NotoSansKannada-CondensedBold.ufo
<glyph name="exclam.knda" format="2">
  <advance width="312"/>
  <unicode hex="0021"/>
  <outline>
    <contour>
      <point x="227" y="249" type="line"/>
      <point x="250" y="690" type="line"/>
      <point x="62" y="690" type="line"/>
      <point x="86" y="249" type="line"/>
    </contour>
    <contour>
      <point x="63" y="81" type="curve" smooth="yes"/>
      <point x="63" y="22"/>
      <point x="99" y="-12"/>
      <point x="156" y="-12" type="curve" smooth="yes"/>
      <point x="212" y="-12"/>
      <point x="247" y="22"/>
      <point x="247" y="81" type="curve" smooth="yes"/>
      <point x="247" y="141"/>
      <point x="214" y="176"/>
      <point x="156" y="176" type="curve" smooth="yes"/>
      <point x="95" y="176"/>
      <point x="63" y="141"/>
    </contour>
  </outline>
</glyph>
<glyph name="quotedbl.knda" format="2">
  <advance width="511"/>
  <unicode hex="0022"/>
  <outline>
    <contour>
      <point x="81" y="542" type="line"/>
      <point x="210" y="542" type="line"/>
      <point x="230" y="800" type="line"/>
      <point x="61" y="800" type="line"/>
    </contour>
    <contour>
      <point x="301" y="542" type="line"/>
      <point x="430" y="542" type="line"/>
      <point x="450" y="800" type="line"/>
      <point x="281" y="800" type="line"/>
    </contour>
  </outline>
</glyph>
<glyph name="numbersign.knda" format="2">
  <advance width="570"/>
  <unicode hex="0023"/>
  <outline>
    <contour>
      <point x="63" y="0" type="line"/>
      <point x="180" y="0" type="line"/>
      <point x="215" y="186" type="line"/>
      <point x="289" y="186" type="line"/>
      <point x="254" y="0" type="line"/>
      <point x="371" y="0" type="line"/>
      <point x="406" y="186" type="line"/>
      <point x="517" y="186" type="line"/>
      <point x="517" y="299" type="line"/>
      <point x="428" y="299" type="line"/>
      <point x="446" y="392" type="line"/>
      <point x="540" y="392" type="line"/>
      <point x="540" y="505" type="line"/>
      <point x="467" y="505" type="line"/>
      <point x="502" y="690" type="line"/>
      <point x="385" y="690" type="line"/>
      <point x="350" y="505" type="line"/>
      <point x="276" y="505" type="line"/>
      <point x="311" y="690" type="line"/>
      <point x="194" y="690" type="line"/>
      <point x="159" y="505" type="line"/>
      <point x="53" y="505" type="line"/>
      <point x="53" y="392" type="line"/>
      <point x="138" y="392" type="line"/>
      <point x="120" y="299" type="line"/>
      <point x="30" y="299" type="line"/>
      <point x="30" y="186" type="line"/>
      <point x="98" y="186" type="line"/>
    </contour>
    <contour>
      <point x="237" y="299" type="line"/>
      <point x="255" y="392" type="line"/>
      <point x="329" y="392" type="line"/>
      <point x="311" y="299" type="line"/>
    </contour>
  </outline>
</glyph>
<glyph name="percent.knda" format="2">
  <advance width="840"/>
  <unicode hex="0025"/>
  <outline>
    <contour>
      <point x="213" y="0" type="line"/>
      <point x="333" y="0" type="line"/>
      <point x="627" y="690" type="line"/>
      <point x="507" y="690" type="line"/>
    </contour>
    <contour>
      <point x="187" y="276" type="curve" smooth="yes"/>
      <point x="294" y="276"/>
      <point x="346" y="354"/>
      <point x="346" y="490" type="curve" smooth="yes"/>
      <point x="346" y="620"/>
      <point x="292" y="702"/>
      <point x="191" y="702" type="curve" smooth="yes"/>
      <point x="84" y="702"/>
      <point x="32" y="624"/>
      <point x="32" y="488" type="curve" smooth="yes"/>
      <point x="32" y="360"/>
      <point x="86" y="276"/>
    </contour>
    <contour>
      <point x="189" y="387" type="curve" smooth="yes"/>
      <point x="167" y="387"/>
      <point x="157" y="413"/>
      <point x="157" y="490" type="curve" smooth="yes"/>
      <point x="157" y="564"/>
      <point x="167" y="591"/>
      <point x="189" y="591" type="curve" smooth="yes"/>
      <point x="211" y="591"/>
      <point x="221" y="565"/>
      <point x="221" y="489" type="curve" smooth="yes"/>
      <point x="221" y="412"/>
      <point x="211" y="387"/>
    </contour>
    <contour>
      <point x="649" y="-12" type="curve" smooth="yes"/>
      <point x="756" y="-12"/>
      <point x="808" y="66"/>
      <point x="808" y="202" type="curve" smooth="yes"/>
      <point x="808" y="331"/>
      <point x="754" y="414"/>
      <point x="653" y="414" type="curve" smooth="yes"/>
      <point x="546" y="414"/>
      <point x="494" y="336"/>
      <point x="494" y="200" type="curve" smooth="yes"/>
      <point x="494" y="72"/>
      <point x="548" y="-12"/>
    </contour>
    <contour>
      <point x="657" y="99" type="curve" smooth="yes"/>
      <point x="635" y="99"/>
      <point x="625" y="127"/>
      <point x="625" y="202" type="curve" smooth="yes"/>
      <point x="625" y="276"/>
      <point x="635" y="303"/>
      <point x="657" y="303" type="curve" smooth="yes"/>
      <point x="679" y="303"/>
      <point x="689" y="277"/>
      <point x="689" y="201" type="curve" smooth="yes"/>
      <point x="689" y="125"/>
      <point x="679" y="99"/>
    </contour>
  </outline>
</glyph>
<glyph name="quotesingle.knda" format="2">
  <advance width="291"/>
  <unicode hex="0027"/>
  <outline>
    <contour>
      <point x="81" y="542" type="line"/>
      <point x="210" y="542" type="line"/>
      <point x="230" y="800" type="line"/>
      <point x="61" y="800" type="line"/>
    </contour>
  </outline>
</glyph>
<glyph name="parenleft.knda" format="2">
  <advance width="431"/>
  <unicode hex="0028"/>
  <outline>
    <contour>
      <point x="37" y="216" type="curve" smooth="yes"/>
      <point x="37" y="-6"/>
      <point x="103" y="-215"/>
      <point x="225" y="-368" type="curve"/>
      <point x="375" y="-368" type="line"/>
      <point x="267" y="-215"/>
      <point x="197" y="-32"/>
      <point x="197" y="215" type="curve" smooth="yes"/>
      <point x="197" y="470"/>
      <point x="277" y="662"/>
      <point x="374" y="793" type="curve"/>
      <point x="225" y="793" type="line"/>
      <point x="116" y="667"/>
      <point x="37" y="456"/>
    </contour>
  </outline>
</glyph>
<glyph name="parenright.knda" format="2">
  <advance width="431"/>
  <unicode hex="0029"/>
  <outline>
    <contour>
      <point x="394" y="209" type="curve"/>
      <point x="394" y="431"/>
      <point x="328" y="640"/>
      <point x="206" y="793" type="curve"/>
      <point x="56" y="793" type="line"/>
      <point x="164" y="640"/>
      <point x="234" y="457"/>
      <point x="234" y="210" type="curve" smooth="yes"/>
      <point x="234" y="-45"/>
      <point x="154" y="-237"/>
      <point x="57" y="-368" type="curve"/>
      <point x="206" y="-368" type="line"/>
      <point x="315" y="-242"/>
      <point x="394" y="-31"/>
    </contour>
  </outline>
</glyph>
<glyph name="asterisk.knda" format="2">
  <advance width="544"/>
  <unicode hex="002A"/>
  <outline>
    <contour>
      <point x="343" y="793" type="line"/>
      <point x="201" y="793" type="line"/>
      <point x="219" y="628" type="line"/>
      <point x="56" y="675" type="line"/>
      <point x="35" y="539" type="line"/>
      <point x="182" y="527" type="line"/>
      <point x="85" y="397" type="line"/>
      <point x="212" y="334" type="line"/>
      <point x="270" y="465" type="line"/>
      <point x="337" y="333" type="line"/>
      <point x="459" y="397" type="line"/>
      <point x="362" y="527" type="line"/>
      <point x="509" y="537" type="line"/>
      <point x="492" y="675" type="line"/>
      <point x="325" y="628" type="line"/>
    </contour>
  </outline>
</glyph>
<glyph name="plus.knda" format="2">
  <advance width="496"/>
  <unicode hex="002B"/>
  <outline>
    <contour>
      <point x="181" y="101" type="line"/>
      <point x="314" y="101" type="line"/>
      <point x="314" y="278" type="line"/>
      <point x="462" y="278" type="line"/>
      <point x="462" y="407" type="line"/>
      <point x="314" y="407" type="line"/>
      <point x="314" y="587" type="line"/>
      <point x="181" y="587" type="line"/>
      <point x="181" y="407" type="line"/>
      <point x="34" y="407" type="line"/>
      <point x="34" y="278" type="line"/>
      <point x="181" y="278" type="line"/>
    </contour>
  </outline>
</glyph>
<glyph name="comma.knda" format="2">
  <advance width="308"/>
  <unicode hex="002C"/>
  <outline>
    <contour>
      <point x="247" y="142" type="line"/>
      <point x="100" y="142" type="line"/>
      <point x="91" y="61"/>
      <point x="69" y="-45"/>
      <point x="48" y="-129" type="curve"/>
      <point x="171" y="-129" type="line"/>
      <point x="202" y="-58"/>
      <point x="240" y="57"/>
      <point x="252" y="131" type="curve"/>
    </contour>
  </outline>
</glyph>
<glyph name="hyphen.knda" format="2">
  <advance width="338"/>
  <unicode hex="002D"/>
  <outline>
    <contour>
      <point x="36" y="222" type="line"/>
      <point x="302" y="222" type="line"/>
      <point x="302" y="367" type="line"/>
      <point x="36" y="367" type="line"/>
    </contour>
  </outline>
</glyph>
<glyph name="slash.knda" format="2">
  <advance width="514"/>
  <unicode hex="002F"/>
  <outline>
    <contour>
      <point x="448" y="793" type="line"/>
      <point x="302" y="793" type="line"/>
      <point x="66" y="-368" type="line"/>
      <point x="212" y="-368" type="line"/>
    </contour>
  </outline>
</glyph>
<glyph name="zero.knda" format="2">
  <advance width="496"/>
  <unicode hex="0030"/>
  <outline>
    <contour>
      <point x="461" y="344" type="curve" smooth="yes"/>
      <point x="461" y="585"/>
      <point x="390" y="702"/>
      <point x="247" y="702" type="curve" smooth="yes"/>
      <point x="104" y="702"/>
      <point x="35" y="594"/>
      <point x="35" y="344" type="curve" smooth="yes"/>
      <point x="35" y="106"/>
      <point x="106" y="-12"/>
      <point x="247" y="-12" type="curve" smooth="yes"/>
      <point x="417" y="-12"/>
      <point x="461" y="141"/>
    </contour>
    <contour>
      <point x="201" y="344" type="curve" smooth="yes"/>
      <point x="201" y="490"/>
      <point x="209" y="560"/>
      <point x="247" y="560" type="curve" smooth="yes"/>
      <point x="289" y="560"/>
      <point x="295" y="497"/>
      <point x="295" y="344" type="curve" smooth="yes"/>
      <point x="295" y="197"/>
      <point x="289" y="130"/>
      <point x="247" y="130" type="curve" smooth="yes"/>
      <point x="207" y="130"/>
      <point x="201" y="193"/>
    </contour>
  </outline>
</glyph>
<glyph name="one.knda" format="2">
  <advance width="496"/>
  <unicode hex="0031"/>
  <outline>
    <contour>
      <point x="397" y="0" type="line"/>
      <point x="397" y="690" type="line"/>
      <point x="246" y="690" type="line"/>
      <point x="34" y="462" type="line"/>
      <point x="135" y="365" type="line"/>
      <point x="196" y="432" type="line" smooth="yes"/>
      <point x="210" y="448"/>
      <point x="222" y="463"/>
      <point x="231" y="477" type="curve"/>
      <point x="230" y="439"/>
      <point x="229" y="397"/>
      <point x="229" y="351" type="curve" smooth="yes"/>
      <point x="229" y="0" type="line"/>
    </contour>
  </outline>
</glyph>
<glyph name="two.knda" format="2">
  <advance width="496"/>
  <unicode hex="0032"/>
  <outline>
    <contour>
      <point x="458" y="0" type="line"/>
      <point x="458" y="147" type="line"/>
      <point x="232" y="147" type="line"/>
      <point x="232" y="150" type="line"/>
      <point x="317" y="253" type="line" smooth="yes"/>
      <point x="411" y="367"/>
      <point x="446" y="427"/>
      <point x="446" y="515" type="curve" smooth="yes"/>
      <point x="446" y="629"/>
      <point x="357" y="702"/>
      <point x="233" y="702" type="curve" smooth="yes"/>
      <point x="155" y="702"/>
      <point x="87" y="669"/>
      <point x="24" y="627" type="curve"/>
      <point x="96" y="504" type="line"/>
      <point x="138" y="533"/>
      <point x="175" y="551"/>
      <point x="217" y="551" type="curve" smooth="yes"/>
      <point x="250" y="551"/>
      <point x="277" y="537"/>
      <point x="277" y="493" type="curve" smooth="yes"/>
      <point x="277" y="443"/>
      <point x="252" y="403"/>
      <point x="179" y="313" type="curve" smooth="yes"/>
      <point x="20" y="116" type="line"/>
      <point x="20" y="0" type="line"/>
    </contour>
  </outline>
</glyph>
<glyph name="three.knda" format="2">
  <advance width="496"/>
  <unicode hex="0033"/>
  <outline>
    <contour>
      <point x="442" y="528" type="curve" smooth="yes"/>
      <point x="442" y="649"/>
      <point x="357" y="702"/>
      <point x="235" y="702" type="curve" smooth="yes"/>
      <point x="157" y="702"/>
      <point x="98" y="682"/>
      <point x="30" y="640" type="curve"/>
      <point x="102" y="527" type="line"/>
      <point x="141" y="550"/>
      <point x="173" y="560"/>
      <point x="204" y="560" type="curve" smooth="yes"/>
      <point x="248" y="560"/>
      <point x="276" y="538"/>
      <point x="276" y="495" type="curve" smooth="yes"/>
      <point x="276" y="442"/>
      <point x="236" y="419"/>
      <point x="146" y="419" type="curve" smooth="yes"/>
      <point x="115" y="419" type="line"/>
      <point x="115" y="289" type="line"/>
      <point x="152" y="289" type="line" smooth="yes"/>
      <point x="236" y="289"/>
      <point x="286" y="265"/>
      <point x="286" y="208" type="curve" smooth="yes"/>
      <point x="286" y="156"/>
      <point x="250" y="130"/>
      <point x="186" y="130" type="curve" smooth="yes"/>
      <point x="131" y="130"/>
      <point x="85" y="142"/>
      <point x="30" y="165" type="curve"/>
      <point x="30" y="19" type="line"/>
      <point x="78" y="-2"/>
      <point x="141" y="-12"/>
      <point x="209" y="-12" type="curve" smooth="yes"/>
      <point x="365" y="-12"/>
      <point x="454" y="69"/>
      <point x="454" y="198" type="curve" smooth="yes"/>
      <point x="454" y="286"/>
      <point x="403" y="343"/>
      <point x="315" y="362" type="curve"/>
      <point x="315" y="365" type="line"/>
      <point x="399" y="394"/>
      <point x="442" y="457"/>
    </contour>
  </outline>
</glyph>
<glyph name="four.knda" format="2">
  <advance width="496"/>
  <unicode hex="0034"/>
  <outline>
    <contour>
      <point x="481" y="133" type="line"/>
      <point x="481" y="269" type="line"/>
      <point x="414" y="269" type="line"/>
      <point x="414" y="691" type="line"/>
      <point x="251" y="691" type="line"/>
      <point x="17" y="266" type="line"/>
      <point x="17" y="133" type="line"/>
      <point x="249" y="133" type="line"/>
      <point x="249" y="0" type="line"/>
      <point x="414" y="0" type="line"/>
      <point x="414" y="133" type="line"/>
    </contour>
    <contour>
      <point x="249" y="269" type="line"/>
      <point x="151" y="269" type="line"/>
      <point x="209" y="376" type="line" smooth="yes"/>
      <point x="224" y="403"/>
      <point x="238" y="431"/>
      <point x="248" y="459" type="curve"/>
      <point x="252" y="459" type="line"/>
      <point x="250" y="442"/>
      <point x="249" y="410"/>
      <point x="249" y="377" type="curve" smooth="yes"/>
    </contour>
  </outline>
</glyph>
<glyph name="five.knda" format="2">
  <advance width="496"/>
  <unicode hex="0035"/>
  <outline>
    <contour>
      <point x="206" y="-12" type="curve" smooth="yes"/>
      <point x="373" y="-12"/>
      <point x="454" y="72"/>
      <point x="454" y="234" type="curve" smooth="yes"/>
      <point x="454" y="369"/>
      <point x="382" y="448"/>
      <point x="265" y="448" type="curve" smooth="yes"/>
      <point x="245" y="448"/>
      <point x="230" y="447"/>
      <point x="210" y="444" type="curve"/>
      <point x="218" y="542" type="line"/>
      <point x="416" y="542" type="line"/>
      <point x="416" y="690" type="line"/>
      <point x="78" y="690" type="line"/>
      <point x="53" y="343" type="line"/>
      <point x="108" y="298" type="line"/>
      <point x="136" y="308"/>
      <point x="165" y="313"/>
      <point x="193" y="313" type="curve" smooth="yes"/>
      <point x="256" y="313"/>
      <point x="286" y="275"/>
      <point x="286" y="222" type="curve" smooth="yes"/>
      <point x="286" y="163"/>
      <point x="254" y="130"/>
      <point x="186" y="130" type="curve" smooth="yes"/>
      <point x="125" y="130"/>
      <point x="86" y="144"/>
      <point x="46" y="165" type="curve"/>
      <point x="46" y="18" type="line"/>
      <point x="86" y="0"/>
      <point x="151" y="-12"/>
    </contour>
  </outline>
</glyph>
<glyph name="six.knda" format="2">
  <advance width="496"/>
  <unicode hex="0036"/>
  <outline>
    <contour>
      <point x="31" y="313" type="curve" smooth="yes"/>
      <point x="31" y="103"/>
      <point x="117" y="-12"/>
      <point x="256" y="-12" type="curve" smooth="yes"/>
      <point x="389" y="-12"/>
      <point x="468" y="87"/>
      <point x="468" y="232" type="curve" smooth="yes"/>
      <point x="468" y="376"/>
      <point x="408" y="462"/>
      <point x="308" y="462" type="curve" smooth="yes"/>
      <point x="253" y="462"/>
      <point x="212" y="434"/>
      <point x="189" y="379" type="curve"/>
      <point x="185" y="379" type="line"/>
      <point x="193" y="506"/>
      <point x="241" y="560"/>
      <point x="346" y="560" type="curve" smooth="yes"/>
      <point x="376" y="560"/>
      <point x="405" y="557"/>
      <point x="432" y="551" type="curve"/>
      <point x="432" y="694" type="line"/>
      <point x="398" y="699"/>
      <point x="364" y="702"/>
      <point x="330" y="702" type="curve" smooth="yes"/>
      <point x="89" y="702"/>
      <point x="31" y="498"/>
    </contour>
    <contour>
      <point x="250" y="130" type="curve" smooth="yes"/>
      <point x="216" y="130"/>
      <point x="195" y="163"/>
      <point x="195" y="238" type="curve" smooth="yes"/>
      <point x="195" y="287"/>
      <point x="218" y="324"/>
      <point x="251" y="324" type="curve" smooth="yes"/>
      <point x="288" y="324"/>
      <point x="304" y="292"/>
      <point x="304" y="227" type="curve" smooth="yes"/>
      <point x="304" y="146"/>
      <point x="282" y="130"/>
    </contour>
  </outline>
</glyph>
<glyph name="seven.knda" format="2">
  <advance width="496"/>
  <unicode hex="0037"/>
  <outline>
    <contour>
      <point x="85" y="0" type="line"/>
      <point x="263" y="0" type="line"/>
      <point x="463" y="575" type="line"/>
      <point x="463" y="690" type="line"/>
      <point x="28" y="690" type="line"/>
      <point x="28" y="542" type="line"/>
      <point x="292" y="542" type="line"/>
    </contour>
  </outline>
</glyph>
<glyph name="eight.knda" format="2">
  <advance width="496"/>
  <unicode hex="0038"/>
  <outline>
    <contour>
      <point x="248" y="702" type="curve" smooth="yes"/>
      <point x="124" y="702"/>
      <point x="46" y="641"/>
      <point x="46" y="534" type="curve" smooth="yes"/>
      <point x="46" y="466"/>
      <point x="75" y="411"/>
      <point x="138" y="361" type="curve"/>
      <point x="57" y="310"/>
      <point x="28" y="255"/>
      <point x="28" y="181" type="curve" smooth="yes"/>
      <point x="28" y="57"/>
      <point x="107" y="-12"/>
      <point x="246" y="-12" type="curve" smooth="yes"/>
      <point x="384" y="-12"/>
      <point x="468" y="59"/>
      <point x="468" y="182" type="curve" smooth="yes"/>
      <point x="468" y="250"/>
      <point x="435" y="313"/>
      <point x="350" y="364" type="curve"/>
      <point x="418" y="405"/>
      <point x="450" y="459"/>
      <point x="450" y="533" type="curve" smooth="yes"/>
      <point x="450" y="641"/>
      <point x="376" y="702"/>
    </contour>
    <contour>
      <point x="189" y="184" type="curve" smooth="yes"/>
      <point x="189" y="220"/>
      <point x="204" y="249"/>
      <point x="245" y="280" type="curve"/>
      <point x="255" y="272" type="line" smooth="yes"/>
      <point x="298" y="237"/>
      <point x="306" y="210"/>
      <point x="306" y="180" type="curve" smooth="yes"/>
      <point x="306" y="139"/>
      <point x="287" y="119"/>
      <point x="247" y="119" type="curve" smooth="yes"/>
      <point x="208" y="119"/>
      <point x="189" y="143"/>
    </contour>
    <contour>
      <point x="249" y="571" type="curve" smooth="yes"/>
      <point x="274" y="571"/>
      <point x="290" y="554"/>
      <point x="290" y="524" type="curve" smooth="yes"/>
      <point x="290" y="492"/>
      <point x="277" y="471"/>
      <point x="246" y="446" type="curve"/>
      <point x="222" y="469"/>
      <point x="206" y="492"/>
      <point x="206" y="525" type="curve" smooth="yes"/>
      <point x="206" y="552"/>
      <point x="222" y="571"/>
    </contour>
  </outline>
</glyph>
<glyph name="nine.knda" format="2">
  <advance width="496"/>
  <unicode hex="0039"/>
  <outline>
    <contour>
      <point x="465" y="382" type="curve" smooth="yes"/>
      <point x="465" y="591"/>
      <point x="377" y="702"/>
      <point x="241" y="702" type="curve" smooth="yes"/>
      <point x="106" y="702"/>
      <point x="28" y="604"/>
      <point x="28" y="454" type="curve" smooth="yes"/>
      <point x="28" y="316"/>
      <point x="88" y="228"/>
      <point x="189" y="228" type="curve" smooth="yes"/>
      <point x="241" y="228"/>
      <point x="283" y="256"/>
      <point x="306" y="311" type="curve"/>
      <point x="311" y="311" type="line"/>
      <point x="306" y="179"/>
      <point x="252" y="130"/>
      <point x="149" y="130" type="curve" smooth="yes"/>
      <point x="119" y="130"/>
      <point x="90" y="133"/>
      <point x="63" y="140" type="curve"/>
      <point x="63" y="-3" type="line"/>
      <point x="96" y="-9"/>
      <point x="130" y="-12"/>
      <point x="165" y="-12" type="curve" smooth="yes"/>
      <point x="393" y="-12"/>
      <point x="465" y="169"/>
    </contour>
    <contour>
      <point x="245" y="560" type="curve" smooth="yes"/>
      <point x="289" y="560"/>
      <point x="301" y="507"/>
      <point x="301" y="446" type="curve" smooth="yes"/>
      <point x="301" y="414"/>
      <point x="285" y="366"/>
      <point x="244" y="366" type="curve" smooth="yes"/>
      <point x="212" y="366"/>
      <point x="192" y="394"/>
      <point x="192" y="457" type="curve" smooth="yes"/>
      <point x="192" y="537"/>
      <point x="215" y="560"/>
    </contour>
  </outline>
</glyph>
<glyph name="colon.knda" format="2">
  <advance width="298"/>
  <unicode hex="003A"/>
  <outline>
    <contour>
      <point x="57" y="81" type="curve" smooth="yes"/>
      <point x="57" y="22"/>
      <point x="93" y="-12"/>
      <point x="150" y="-12" type="curve" smooth="yes"/>
      <point x="207" y="-12"/>
      <point x="241" y="22"/>
      <point x="241" y="81" type="curve" smooth="yes"/>
      <point x="241" y="141"/>
      <point x="208" y="176"/>
      <point x="150" y="176" type="curve" smooth="yes"/>
      <point x="90" y="176"/>
      <point x="57" y="141"/>
    </contour>
    <contour>
      <point x="57" y="375" type="curve" smooth="yes"/>
      <point x="57" y="316"/>
      <point x="93" y="282"/>
      <point x="150" y="282" type="curve" smooth="yes"/>
      <point x="207" y="282"/>
      <point x="241" y="316"/>
      <point x="241" y="375" type="curve" smooth="yes"/>
      <point x="241" y="435"/>
      <point x="208" y="470"/>
      <point x="150" y="470" type="curve" smooth="yes"/>
      <point x="90" y="470"/>
      <point x="57" y="435"/>
    </contour>
  </outline>
</glyph>
<glyph name="semicolon.knda" format="2">
  <advance width="308"/>
  <unicode hex="003B"/>
  <outline>
    <contour>
      <point x="247" y="142" type="line"/>
      <point x="100" y="142" type="line"/>
      <point x="91" y="61"/>
      <point x="69" y="-45"/>
      <point x="48" y="-129" type="curve"/>
      <point x="171" y="-129" type="line"/>
      <point x="202" y="-58"/>
      <point x="240" y="57"/>
      <point x="252" y="131" type="curve"/>
    </contour>
    <contour>
      <point x="70" y="375" type="curve" smooth="yes"/>
      <point x="70" y="316"/>
      <point x="106" y="282"/>
      <point x="163" y="282" type="curve" smooth="yes"/>
      <point x="220" y="282"/>
      <point x="254" y="316"/>
      <point x="254" y="375" type="curve" smooth="yes"/>
      <point x="254" y="435"/>
      <point x="221" y="470"/>
      <point x="163" y="470" type="curve" smooth="yes"/>
      <point x="103" y="470"/>
      <point x="70" y="435"/>
    </contour>
  </outline>
</glyph>
<glyph name="less.knda" format="2">
  <advance width="496"/>
  <unicode hex="003C"/>
  <outline>
    <contour>
      <point x="462" y="105" type="line"/>
      <point x="462" y="250" type="line"/>
      <point x="221" y="350" type="line"/>
      <point x="462" y="452" type="line"/>
      <point x="462" y="596" type="line"/>
      <point x="34" y="395" type="line"/>
      <point x="34" y="305" type="line"/>
    </contour>
  </outline>
</glyph>
<glyph name="equal.knda" format="2">
  <advance width="496"/>
  <unicode hex="003D"/>
  <outline>
    <contour>
      <point x="34" y="389" type="line"/>
      <point x="462" y="389" type="line"/>
      <point x="462" y="518" type="line"/>
      <point x="34" y="518" type="line"/>
    </contour>
    <contour>
      <point x="34" y="167" type="line"/>
      <point x="462" y="167" type="line"/>
      <point x="462" y="296" type="line"/>
      <point x="34" y="296" type="line"/>
    </contour>
  </outline>
</glyph>
<glyph name="greater.knda" format="2">
  <advance width="496"/>
  <unicode hex="003E"/>
  <outline>
    <contour>
      <point x="34" y="105" type="line"/>
      <point x="462" y="306" type="line"/>
      <point x="462" y="396" type="line"/>
      <point x="34" y="596" type="line"/>
      <point x="34" y="451" type="line"/>
      <point x="275" y="351" type="line"/>
      <point x="34" y="249" type="line"/>
    </contour>
  </outline>
</glyph>
<glyph name="question.knda" format="2">
  <advance width="444"/>
  <unicode hex="003F"/>
  <outline>
    <contour>
      <point x="214" y="702" type="curve" smooth="yes"/>
      <point x="147" y="702"/>
      <point x="91" y="684"/>
      <point x="30" y="652" type="curve"/>
      <point x="90" y="530" type="line"/>
      <point x="117" y="545"/>
      <point x="155" y="559"/>
      <point x="185" y="559" type="curve" smooth="yes"/>
      <point x="225" y="559"/>
      <point x="249" y="541"/>
      <point x="249" y="507" type="curve" smooth="yes"/>
      <point x="249" y="478"/>
      <point x="234" y="455"/>
      <point x="190" y="411" type="curve" smooth="yes"/>
      <point x="145" y="366"/>
      <point x="126" y="333"/>
      <point x="126" y="263" type="curve" smooth="yes"/>
      <point x="126" y="240" type="line"/>
      <point x="263" y="240" type="line"/>
      <point x="263" y="250" type="line" smooth="yes"/>
      <point x="263" y="276"/>
      <point x="269" y="295"/>
      <point x="311" y="335" type="curve" smooth="yes"/>
      <point x="376" y="396"/>
      <point x="408" y="446"/>
      <point x="408" y="532" type="curve" smooth="yes"/>
      <point x="408" y="634"/>
      <point x="339" y="702"/>
    </contour>
    <contour>
      <point x="195" y="-12" type="curve" smooth="yes"/>
      <point x="253" y="-12"/>
      <point x="286" y="22"/>
      <point x="286" y="81" type="curve" smooth="yes"/>
      <point x="286" y="141"/>
      <point x="254" y="176"/>
      <point x="195" y="176" type="curve" smooth="yes"/>
      <point x="135" y="176"/>
      <point x="102" y="141"/>
      <point x="102" y="81" type="curve" smooth="yes"/>
      <point x="102" y="22"/>
      <point x="138" y="-12"/>
    </contour>
  </outline>
</glyph>
<glyph name="bracketleft.knda" format="2">
  <advance width="402"/>
  <unicode hex="005B"/>
  <outline>
    <contour>
      <point x="325" y="-369" type="line"/>
      <point x="325" y="-245" type="line"/>
      <point x="224" y="-245" type="line"/>
      <point x="224" y="669" type="line"/>
      <point x="325" y="669" type="line"/>
      <point x="325" y="793" type="line"/>
      <point x="74" y="793" type="line"/>
      <point x="74" y="-369" type="line"/>
    </contour>
  </outline>
</glyph>
<glyph name="backslash.knda" format="2">
  <advance width="514"/>
  <unicode hex="005C"/>
  <outline>
    <contour>
      <point x="212" y="793" type="line"/>
      <point x="66" y="793" type="line"/>
      <point x="302" y="-368" type="line"/>
      <point x="448" y="-368" type="line"/>
    </contour>
  </outline>
</glyph>
<glyph name="bracketright.knda" format="2">
  <advance width="402"/>
  <unicode hex="005D"/>
  <outline>
    <contour>
      <point x="77" y="-245" type="line"/>
      <point x="77" y="-369" type="line"/>
      <point x="328" y="-369" type="line"/>
      <point x="328" y="793" type="line"/>
      <point x="77" y="793" type="line"/>
      <point x="77" y="669" type="line"/>
      <point x="178" y="669" type="line"/>
      <point x="178" y="-245" type="line"/>
    </contour>
  </outline>
</glyph>
<glyph name="asciicircum.knda" format="2">
  <advance width="496"/>
  <unicode hex="005E"/>
  <outline>
    <contour>
      <point x="11" y="301" type="line"/>
      <point x="158" y="301" type="line"/>
      <point x="249" y="504" type="line"/>
      <point x="338" y="301" type="line"/>
      <point x="485" y="301" type="line"/>
      <point x="290" y="714" type="line"/>
      <point x="206" y="714" type="line"/>
    </contour>
  </outline>
</glyph>
<glyph name="underscore.knda" format="2">
  <advance width="394"/>
  <unicode hex="005F"/>
  <outline>
    <contour>
      <point x="-2" y="-162" type="line"/>
      <point x="396" y="-162" type="line"/>
      <point x="396" y="-90" type="line"/>
      <point x="-2" y="-90" type="line"/>
    </contour>
  </outline>
</glyph>
<glyph name="braceleft.knda" format="2">
  <advance width="426"/>
  <unicode hex="007B"/>
  <outline>
    <contour>
      <point x="390" y="-369" type="curve"/>
      <point x="390" y="-235" type="line"/>
      <point x="319" y="-235"/>
      <point x="297" y="-221"/>
      <point x="297" y="-175" type="curve" smooth="yes"/>
      <point x="297" y="85" type="line" smooth="yes"/>
      <point x="297" y="161"/>
      <point x="256" y="197"/>
      <point x="180" y="209" type="curve"/>
      <point x="180" y="215" type="line"/>
      <point x="256" y="227"/>
      <point x="297" y="263"/>
      <point x="297" y="339" type="curve" smooth="yes"/>
      <point x="297" y="599" type="line" smooth="yes"/>
      <point x="297" y="645"/>
      <point x="319" y="659"/>
      <point x="390" y="659" type="curve"/>
      <point x="390" y="793" type="line"/>
      <point x="190" y="793"/>
      <point x="144" y="742"/>
      <point x="144" y="625" type="curve" smooth="yes"/>
      <point x="144" y="368" type="line" smooth="yes"/>
      <point x="144" y="308"/>
      <point x="112" y="289"/>
      <point x="24" y="285" type="curve"/>
      <point x="24" y="139" type="line"/>
      <point x="112" y="135"/>
      <point x="144" y="116"/>
      <point x="144" y="56" type="curve" smooth="yes"/>
      <point x="144" y="-201" type="line" smooth="yes"/>
      <point x="144" y="-318"/>
      <point x="190" y="-369"/>
    </contour>
  </outline>
</glyph>
<glyph name="braceright.knda" format="2">
  <advance width="426"/>
  <unicode hex="007D"/>
  <outline>
    <contour>
      <point x="36" y="793" type="curve"/>
      <point x="36" y="659" type="line"/>
      <point x="107" y="659"/>
      <point x="129" y="645"/>
      <point x="129" y="599" type="curve" smooth="yes"/>
      <point x="129" y="339" type="line" smooth="yes"/>
      <point x="129" y="263"/>
      <point x="170" y="227"/>
      <point x="246" y="215" type="curve"/>
      <point x="246" y="209" type="line"/>
      <point x="170" y="197"/>
      <point x="129" y="161"/>
      <point x="129" y="85" type="curve" smooth="yes"/>
      <point x="129" y="-175" type="line" smooth="yes"/>
      <point x="129" y="-221"/>
      <point x="107" y="-235"/>
      <point x="36" y="-235" type="curve"/>
      <point x="36" y="-369" type="line"/>
      <point x="236" y="-369"/>
      <point x="282" y="-318"/>
      <point x="282" y="-201" type="curve" smooth="yes"/>
      <point x="282" y="56" type="line" smooth="yes"/>
      <point x="282" y="116"/>
      <point x="314" y="135"/>
      <point x="402" y="139" type="curve"/>
      <point x="402" y="285" type="line"/>
      <point x="314" y="289"/>
      <point x="282" y="308"/>
      <point x="282" y="368" type="curve" smooth="yes"/>
      <point x="282" y="625" type="line" smooth="yes"/>
      <point x="282" y="742"/>
      <point x="236" y="793"/>
    </contour>
  </outline>
</glyph>
<glyph name="asciitilde.knda" format="2">
  <advance width="496"/>
  <unicode hex="007E"/>
  <outline>
    <contour>
      <point x="231" y="281" type="curve" smooth="yes"/>
      <point x="273" y="261"/>
      <point x="311" y="249"/>
      <point x="350" y="249" type="curve" smooth="yes"/>
      <point x="395" y="249"/>
      <point x="430" y="266"/>
      <point x="462" y="302" type="curve"/>
      <point x="462" y="437" type="line"/>
      <point x="430" y="401"/>
      <point x="393" y="378"/>
      <point x="357" y="378" type="curve" smooth="yes"/>
      <point x="326" y="378"/>
      <point x="300" y="387"/>
      <point x="264" y="404" type="curve" smooth="yes"/>
      <point x="225" y="423"/>
      <point x="185" y="436"/>
      <point x="146" y="436" type="curve" smooth="yes"/>
      <point x="101" y="436"/>
      <point x="66" y="419"/>
      <point x="34" y="383" type="curve"/>
      <point x="34" y="248" type="line"/>
      <point x="66" y="284"/>
      <point x="103" y="307"/>
      <point x="139" y="307" type="curve" smooth="yes"/>
      <point x="171" y="307"/>
      <point x="195" y="298"/>
    </contour>
  </outline>
</glyph>
<glyph name="multiply.knda" format="2">
  <advance width="496"/>
  <unicode hex="00D7"/>
  <outline>
    <contour>
      <point x="375" y="560" type="line"/>
      <point x="247" y="431" type="line"/>
      <point x="120" y="560" type="line"/>
      <point x="29" y="469" type="line"/>
      <point x="158" y="342" type="line"/>
      <point x="29" y="215" type="line"/>
      <point x="120" y="124" type="line"/>
      <point x="247" y="253" type="line"/>
      <point x="375" y="124" type="line"/>
      <point x="466" y="215" type="line"/>
      <point x="336" y="342" type="line"/>
      <point x="466" y="469" type="line"/>
    </contour>
  </outline>
</glyph>
<glyph name="divide.knda" format="2">
  <advance width="496"/>
  <unicode hex="00F7"/>
  <outline>
    <contour>
      <point x="34" y="278" type="line"/>
      <point x="462" y="278" type="line"/>
      <point x="462" y="407" type="line"/>
      <point x="34" y="407" type="line"/>
    </contour>
    <contour>
      <point x="248" y="59" type="curve" smooth="yes"/>
      <point x="298" y="59"/>
      <point x="327" y="91"/>
      <point x="327" y="145" type="curve" smooth="yes"/>
      <point x="327" y="200"/>
      <point x="300" y="231"/>
      <point x="248" y="231" type="curve" smooth="yes"/>
      <point x="196" y="231"/>
      <point x="168" y="200"/>
      <point x="168" y="145" type="curve" smooth="yes"/>
      <point x="168" y="90"/>
      <point x="199" y="59"/>
    </contour>
    <contour>
      <point x="248" y="454" type="curve" smooth="yes"/>
      <point x="298" y="454"/>
      <point x="327" y="486"/>
      <point x="327" y="540" type="curve" smooth="yes"/>
      <point x="327" y="595"/>
      <point x="300" y="626"/>
      <point x="248" y="626" type="curve" smooth="yes"/>
      <point x="196" y="626"/>
      <point x="168" y="595"/>
      <point x="168" y="540" type="curve" smooth="yes"/>
      <point x="168" y="485"/>
      <point x="199" y="454"/>
    </contour>
  </outline>
</glyph>
<glyph name="uni0952" format="2">
  <unicode hex="0952"/>
  <outline>
    <contour>
      <point x="-460" y="-192" type="line"/>
      <point x="-96" y="-192" type="line"/>
      <point x="-96" y="-98" type="line"/>
      <point x="-460" y="-98" type="line"/>
    </contour>
  </outline>
</glyph>
<glyph name="uni0C80" format="2">
  <advance width="547"/>
  <unicode hex="0C80"/>
  <outline>
    <contour>
      <point x="274" y="10" type="curve" smooth="yes"/>
      <point x="425" y="10"/>
      <point x="523" y="94"/>
      <point x="523" y="256" type="curve" smooth="yes"/>
      <point x="523" y="301"/>
      <point x="515" y="338"/>
      <point x="508" y="365" type="curve"/>
      <point x="359" y="345" type="line"/>
      <point x="364" y="325"/>
      <point x="369" y="295"/>
      <point x="369" y="264" type="curve" smooth="yes"/>
      <point x="369" y="183"/>
      <point x="327" y="151"/>
      <point x="274" y="151" type="curve" smooth="yes"/>
      <point x="217" y="151"/>
      <point x="178" y="181"/>
      <point x="178" y="262" type="curve" smooth="yes"/>
      <point x="178" y="291"/>
      <point x="182" y="324"/>
      <point x="188" y="346" type="curve"/>
      <point x="39" y="366" type="line"/>
      <point x="32" y="342"/>
      <point x="24" y="301"/>
      <point x="24" y="256" type="curve" smooth="yes"/>
      <point x="24" y="93"/>
      <point x="119" y="10"/>
    </contour>
    <contour>
      <point x="274" y="196" type="curve" smooth="yes"/>
      <point x="317" y="196"/>
      <point x="344" y="223"/>
      <point x="344" y="270" type="curve" smooth="yes"/>
      <point x="344" y="318"/>
      <point x="320" y="346"/>
      <point x="274" y="346" type="curve" smooth="yes"/>
      <point x="230" y="346"/>
      <point x="203" y="318"/>
      <point x="203" y="270" type="curve" smooth="yes"/>
      <point x="203" y="223"/>
      <point x="227" y="196"/>
    </contour>
  </outline>
</glyph>
<glyph name="candrabinduknda" format="2">
  <unicode hex="0C81"/>
  <outline>
    <contour>
      <point x="-278" y="586" type="curve" smooth="yes"/>
      <point x="-160" y="586"/>
      <point x="-87" y="637"/>
      <point x="-87" y="753" type="curve" smooth="yes"/>
      <point x="-87" y="773"/>
      <point x="-90" y="793"/>
      <point x="-94" y="809" type="curve"/>
      <point x="-206" y="789" type="line"/>
      <point x="-203" y="777"/>
      <point x="-202" y="766"/>
      <point x="-202" y="753" type="curve" smooth="yes"/>
      <point x="-202" y="709"/>
      <point x="-233" y="683"/>
      <point x="-278" y="683" type="curve" smooth="yes"/>
      <point x="-324" y="683"/>
      <point x="-353" y="701"/>
      <point x="-353" y="753" type="curve" smooth="yes"/>
      <point x="-353" y="766"/>
      <point x="-352" y="777"/>
      <point x="-349" y="789" type="curve"/>
      <point x="-461" y="809" type="line"/>
      <point x="-465" y="793"/>
      <point x="-468" y="772"/>
      <point x="-468" y="753" type="curve" smooth="yes"/>
      <point x="-468" y="638"/>
      <point x="-387" y="586"/>
    </contour>
    <contour>
      <point x="-279" y="702" type="curve" smooth="yes"/>
      <point x="-247" y="702"/>
      <point x="-229" y="724"/>
      <point x="-229" y="756" type="curve" smooth="yes"/>
      <point x="-229" y="785"/>
      <point x="-248" y="808"/>
      <point x="-279" y="808" type="curve" smooth="yes"/>
      <point x="-310" y="808"/>
      <point x="-328" y="785"/>
      <point x="-328" y="756" type="curve" smooth="yes"/>
      <point x="-328" y="724"/>
      <point x="-311" y="702"/>
    </contour>
  </outline>
</glyph>
<glyph name="anusvaraknda" format="2">
  <advance width="514"/>
  <unicode hex="0C82"/>
  <outline>
    <contour>
      <point x="259" y="-12" type="curve" smooth="yes"/>
      <point x="389" y="-12"/>
      <point x="487" y="67"/>
      <point x="487" y="251" type="curve" smooth="yes"/>
      <point x="487" y="415"/>
      <point x="405" y="514"/>
      <point x="256" y="514" type="curve" smooth="yes"/>
      <point x="110" y="514"/>
      <point x="27" y="414"/>
      <point x="27" y="250" type="curve" smooth="yes"/>
      <point x="27" y="78"/>
      <point x="112" y="-12"/>
    </contour>
    <contour>
      <point x="259" y="136" type="curve" smooth="yes"/>
      <point x="210" y="136"/>
      <point x="191" y="176"/>
      <point x="191" y="254" type="curve" smooth="yes"/>
      <point x="191" y="338"/>
      <point x="217" y="372"/>
      <point x="255" y="372" type="curve" smooth="yes"/>
      <point x="301" y="372"/>
      <point x="323" y="331"/>
      <point x="323" y="254" type="curve" smooth="yes"/>
      <point x="323" y="170"/>
      <point x="297" y="136"/>
    </contour>
  </outline>
</glyph>
<glyph name="visargaknda" format="2">
  <advance width="299"/>
  <unicode hex="0C83"/>
  <outline>
    <contour>
      <point x="24" y="386" type="curve" smooth="yes"/>
      <point x="24" y="315"/>
      <point x="64" y="260"/>
      <point x="149" y="260" type="curve" smooth="yes"/>
      <point x="236" y="260"/>
      <point x="275" y="313"/>
      <point x="275" y="386" type="curve" smooth="yes"/>
      <point x="275" y="459"/>
      <point x="236" y="512"/>
      <point x="149" y="512" type="curve" smooth="yes"/>
      <point x="65" y="512"/>
      <point x="24" y="457"/>
    </contour>
    <contour>
      <point x="123" y="387" type="curve" smooth="yes"/>
      <point x="123" y="408"/>
      <point x="131" y="426"/>
      <point x="150" y="426" type="curve" smooth="yes"/>
      <point x="171" y="426"/>
      <point x="176" y="408"/>
      <point x="176" y="387" type="curve" smooth="yes"/>
      <point x="176" y="365"/>
      <point x="170" y="346"/>
      <point x="149" y="346" type="curve" smooth="yes"/>
      <point x="129" y="346"/>
      <point x="123" y="365"/>
    </contour>
    <contour>
      <point x="24" y="114" type="curve" smooth="yes"/>
      <point x="24" y="43"/>
      <point x="64" y="-12"/>
      <point x="149" y="-12" type="curve" smooth="yes"/>
      <point x="236" y="-12"/>
      <point x="275" y="41"/>
      <point x="275" y="114" type="curve" smooth="yes"/>
      <point x="275" y="187"/>
      <point x="236" y="240"/>
      <point x="149" y="240" type="curve" smooth="yes"/>
      <point x="65" y="240"/>
      <point x="24" y="185"/>
    </contour>
    <contour>
      <point x="123" y="115" type="curve" smooth="yes"/>
      <point x="123" y="136"/>
      <point x="131" y="154"/>
      <point x="150" y="154" type="curve" smooth="yes"/>
      <point x="171" y="154"/>
      <point x="176" y="136"/>
      <point x="176" y="115" type="curve" smooth="yes"/>
      <point x="176" y="93"/>
      <point x="170" y="74"/>
      <point x="149" y="74" type="curve" smooth="yes"/>
      <point x="129" y="74"/>
      <point x="123" y="93"/>
    </contour>
  </outline>
</glyph>
<glyph name="uni0C84" format="2">
  <advance width="1018"/>
  <unicode hex="0C84"/>
  <outline>
    <contour>
      <point x="193" y="567" type="curve"/>
      <point x="60" y="575" type="line"/>
      <point x="46" y="501"/>
      <point x="39" y="433"/>
      <point x="39" y="369" type="curve" smooth="yes"/>
      <point x="39" y="16"/>
      <point x="237" y="-178"/>
      <point x="521" y="-178" type="curve" smooth="yes"/>
      <point x="807" y="-178"/>
      <point x="979" y="-8"/>
      <point x="979" y="298" type="curve" smooth="yes"/>
      <point x="979" y="590"/>
      <point x="816" y="747"/>
      <point x="587" y="747" type="curve" smooth="yes"/>
      <point x="380" y="747"/>
      <point x="233" y="610"/>
      <point x="233" y="384" type="curve" smooth="yes"/>
      <point x="233" y="178"/>
      <point x="349" y="59"/>
      <point x="528" y="59" type="curve" smooth="yes"/>
      <point x="687" y="59"/>
      <point x="789" y="151"/>
      <point x="789" y="318" type="curve" smooth="yes"/>
      <point x="789" y="467"/>
      <point x="701" y="549"/>
      <point x="584" y="549" type="curve" smooth="yes"/>
      <point x="483" y="549"/>
      <point x="409" y="488"/>
      <point x="409" y="384" type="curve" smooth="yes"/>
      <point x="409" y="290"/>
      <point x="466" y="231"/>
      <point x="542" y="231" type="curve" smooth="yes"/>
      <point x="586" y="231"/>
      <point x="609" y="239"/>
      <point x="630" y="251" type="curve"/>
      <point x="593" y="363" type="line"/>
      <point x="582" y="357"/>
      <point x="573" y="355"/>
      <point x="565" y="355" type="curve" smooth="yes"/>
      <point x="556" y="355"/>
      <point x="540" y="360"/>
      <point x="540" y="388" type="curve" smooth="yes"/>
      <point x="540" y="415"/>
      <point x="557" y="426"/>
      <point x="583" y="426" type="curve" smooth="yes"/>
      <point x="626" y="426"/>
      <point x="656" y="384"/>
      <point x="656" y="318" type="curve" smooth="yes"/>
      <point x="656" y="231"/>
      <point x="618" y="183"/>
      <point x="522" y="183" type="curve" smooth="yes"/>
      <point x="418" y="183"/>
      <point x="366" y="258"/>
      <point x="366" y="383" type="curve" smooth="yes"/>
      <point x="366" y="551"/>
      <point x="458" y="623"/>
      <point x="588" y="623" type="curve" smooth="yes"/>
      <point x="737" y="623"/>
      <point x="843" y="512"/>
      <point x="843" y="300" type="curve" smooth="yes"/>
      <point x="843" y="63"/>
      <point x="718" y="-50"/>
      <point x="522" y="-50" type="curve" smooth="yes"/>
      <point x="312" y="-50"/>
      <point x="172" y="90"/>
      <point x="172" y="374" type="curve" smooth="yes"/>
      <point x="172" y="449"/>
      <point x="179" y="505"/>
    </contour>
  </outline>
</glyph>
<glyph name="aknda" format="2">
  <advance width="845"/>
  <unicode hex="0C85"/>
  <outline>
    <contour>
      <point x="420" y="147" type="curve" smooth="yes"/>
      <point x="242" y="147"/>
      <point x="185" y="235"/>
      <point x="185" y="313" type="curve" smooth="yes"/>
      <point x="185" y="340" type="line" smooth="yes"/>
      <point x="185" y="432"/>
      <point x="207" y="461"/>
      <point x="231" y="461" type="curve" smooth="yes"/>
      <point x="247" y="461"/>
      <point x="258" y="448"/>
      <point x="258" y="418" type="curve" smooth="yes"/>
      <point x="258" y="381"/>
      <point x="243" y="368"/>
      <point x="217" y="368" type="curve" smooth="yes"/>
      <point x="185" y="368"/>
      <point x="157" y="384"/>
      <point x="133" y="414" type="curve"/>
      <point x="95" y="299" type="line"/>
      <point x="130" y="270"/>
      <point x="184" y="245"/>
      <point x="233" y="245" type="curve" smooth="yes"/>
      <point x="332" y="245"/>
      <point x="391" y="292"/>
      <point x="391" y="420" type="curve" smooth="yes"/>
      <point x="391" y="499"/>
      <point x="354" y="586"/>
      <point x="234" y="586" type="curve" smooth="yes"/>
      <point x="115" y="586"/>
      <point x="28" y="493"/>
      <point x="28" y="333" type="curve" smooth="yes"/>
      <point x="28" y="124"/>
      <point x="154" y="-12"/>
      <point x="416" y="-12" type="curve" smooth="yes"/>
      <point x="665" y="-12"/>
      <point x="817" y="99"/>
      <point x="817" y="345" type="curve" smooth="yes"/>
      <point x="817" y="465"/>
      <point x="750" y="586"/>
      <point x="602" y="586" type="curve" smooth="yes"/>
      <point x="486" y="586"/>
      <point x="438" y="519"/>
      <point x="438" y="448" type="curve" smooth="yes"/>
      <point x="438" y="406"/>
      <point x="453" y="379"/>
      <point x="471" y="356" type="curve"/>
      <point x="386" y="356" type="line"/>
      <point x="386" y="221" type="line"/>
      <point x="613" y="221" type="line"/>
      <point x="613" y="349" type="line"/>
      <point x="597" y="361"/>
      <point x="577" y="383"/>
      <point x="577" y="416" type="curve" smooth="yes"/>
      <point x="577" y="437"/>
      <point x="585" y="454"/>
      <point x="607" y="454" type="curve" smooth="yes"/>
      <point x="631" y="454"/>
      <point x="651" y="417"/>
      <point x="651" y="345" type="curve" smooth="yes"/>
      <point x="651" y="185"/>
      <point x="562" y="147"/>
    </contour>
  </outline>
</glyph>
<glyph name="aaknda" format="2">
  <advance width="823"/>
  <unicode hex="0C86"/>
  <outline>
    <contour>
      <point x="427" y="-12" type="curve" smooth="yes"/>
      <point x="663" y="-12"/>
      <point x="773" y="73"/>
      <point x="773" y="204" type="curve" smooth="yes"/>
      <point x="773" y="253"/>
      <point x="749" y="299"/>
      <point x="701" y="330" type="curve"/>
      <point x="687" y="343"/>
      <point x="683" y="345"/>
      <point x="667" y="354" type="curve" smooth="yes"/>
      <point x="617" y="382"/>
      <point x="589" y="401"/>
      <point x="589" y="429" type="curve" smooth="yes"/>
      <point x="589" y="449"/>
      <point x="601" y="460"/>
      <point x="619" y="460" type="curve" smooth="yes"/>
      <point x="638" y="460"/>
      <point x="649" y="444"/>
      <point x="649" y="426" type="curve" smooth="yes"/>
      <point x="649" y="386"/>
      <point x="620" y="361"/>
      <point x="594" y="356" type="curve"/>
      <point x="386" y="356" type="line"/>
      <point x="386" y="221" type="line"/>
      <point x="519" y="221" type="line" smooth="yes"/>
      <point x="593" y="221"/>
      <point x="645" y="234"/>
      <point x="698" y="264" type="curve"/>
      <point x="765" y="298"/>
      <point x="800" y="359"/>
      <point x="800" y="430" type="curve" smooth="yes"/>
      <point x="800" y="522"/>
      <point x="735" y="586"/>
      <point x="623" y="586" type="curve" smooth="yes"/>
      <point x="513" y="586"/>
      <point x="452" y="539"/>
      <point x="452" y="459" type="curve" smooth="yes"/>
      <point x="452" y="390"/>
      <point x="499" y="338"/>
      <point x="563" y="310" type="curve" smooth="yes"/>
      <point x="573" y="306"/>
      <point x="572" y="287"/>
      <point x="582" y="282" type="curve"/>
      <point x="594" y="272"/>
      <point x="608" y="261"/>
      <point x="608" y="230" type="curve" smooth="yes"/>
      <point x="608" y="185"/>
      <point x="561" y="147"/>
      <point x="421" y="147" type="curve" smooth="yes"/>
      <point x="242" y="147"/>
      <point x="185" y="235"/>
      <point x="185" y="313" type="curve" smooth="yes"/>
      <point x="185" y="340" type="line" smooth="yes"/>
      <point x="185" y="432"/>
      <point x="207" y="461"/>
      <point x="231" y="461" type="curve" smooth="yes"/>
      <point x="247" y="461"/>
      <point x="258" y="448"/>
      <point x="258" y="418" type="curve" smooth="yes"/>
      <point x="258" y="381"/>
      <point x="243" y="368"/>
      <point x="217" y="368" type="curve" smooth="yes"/>
      <point x="185" y="368"/>
      <point x="157" y="384"/>
      <point x="133" y="414" type="curve"/>
      <point x="95" y="299" type="line"/>
      <point x="130" y="270"/>
      <point x="184" y="245"/>
      <point x="233" y="245" type="curve" smooth="yes"/>
      <point x="332" y="245"/>
      <point x="391" y="292"/>
      <point x="391" y="420" type="curve" smooth="yes"/>
      <point x="391" y="499"/>
      <point x="354" y="586"/>
      <point x="233" y="586" type="curve" smooth="yes"/>
      <point x="115" y="586"/>
      <point x="28" y="493"/>
      <point x="28" y="333" type="curve" smooth="yes"/>
      <point x="28" y="124"/>
      <point x="151" y="-12"/>
    </contour>
  </outline>
</glyph>
<glyph name="iiknda" format="2">
  <advance width="897"/>
  <unicode hex="0C88"/>
  <outline>
    <contour>
      <point x="309" y="-12" type="curve" smooth="yes"/>
      <point x="474" y="-12"/>
      <point x="561" y="85"/>
      <point x="561" y="236" type="curve" smooth="yes"/>
      <point x="561" y="371"/>
      <point x="515" y="428"/>
      <point x="463" y="470" type="curve"/>
      <point x="414" y="430" type="line"/>
      <point x="476" y="442"/>
      <point x="502" y="462"/>
      <point x="523" y="486" type="curve" smooth="yes"/>
      <point x="550" y="518"/>
      <point x="561" y="560"/>
      <point x="561" y="600" type="curve" smooth="yes"/>
      <point x="561" y="666"/>
      <point x="538" y="719"/>
      <point x="476" y="798" type="curve"/>
      <point x="356" y="719" type="line"/>
      <point x="385" y="686"/>
      <point x="404" y="654"/>
      <point x="404" y="620" type="curve" smooth="yes"/>
      <point x="404" y="604"/>
      <point x="399" y="593"/>
      <point x="391" y="586" type="curve" smooth="yes"/>
      <point x="380" y="577"/>
      <point x="363" y="574"/>
      <point x="316" y="574" type="curve" smooth="yes"/>
      <point x="58" y="574" type="line"/>
      <point x="58" y="423" type="line"/>
      <point x="192" y="423" type="line"/>
      <point x="175" y="472" type="line"/>
      <point x="103" y="423"/>
      <point x="58" y="368"/>
      <point x="58" y="235" type="curve" smooth="yes"/>
      <point x="58" y="85"/>
      <point x="145" y="-12"/>
    </contour>
    <contour>
      <point x="311" y="147" type="curve" smooth="yes"/>
      <point x="250" y="147"/>
      <point x="221" y="183"/>
      <point x="221" y="275" type="curve" smooth="yes"/>
      <point x="221" y="293"/>
      <point x="221" y="312"/>
      <point x="222" y="325" type="curve" smooth="yes"/>
      <point x="229" y="387"/>
      <point x="259" y="424"/>
      <point x="312" y="424" type="curve" smooth="yes"/>
      <point x="357" y="424"/>
      <point x="387" y="389"/>
      <point x="395" y="323" type="curve" smooth="yes"/>
      <point x="397" y="310"/>
      <point x="398" y="290"/>
      <point x="398" y="270" type="curve" smooth="yes"/>
      <point x="398" y="184"/>
      <point x="368" y="147"/>
    </contour>
    <contour>
      <point x="632" y="154" type="curve"/>
      <point x="648" y="6" type="line"/>
      <point x="777" y="14"/>
      <point x="833" y="64"/>
      <point x="833" y="161" type="curve" smooth="yes"/>
      <point x="833" y="205"/>
      <point x="805" y="250"/>
      <point x="773" y="285" type="curve"/>
      <point x="755" y="325" type="line"/>
      <point x="718" y="367"/>
      <point x="708" y="386"/>
      <point x="708" y="412" type="curve" smooth="yes"/>
      <point x="708" y="430"/>
      <point x="717" y="443"/>
      <point x="732" y="443" type="curve" smooth="yes"/>
      <point x="748" y="443"/>
      <point x="755" y="428"/>
      <point x="755" y="408" type="curve" smooth="yes"/>
      <point x="755" y="367"/>
      <point x="717" y="353"/>
      <point x="635" y="353" type="curve" smooth="yes"/>
      <point x="20" y="353" type="line"/>
      <point x="20" y="220" type="line"/>
      <point x="607" y="220" type="line" smooth="yes"/>
      <point x="763" y="220"/>
      <point x="879" y="269"/>
      <point x="879" y="410" type="curve" smooth="yes"/>
      <point x="879" y="498"/>
      <point x="827" y="565"/>
      <point x="730" y="565" type="curve" smooth="yes"/>
      <point x="635" y="565"/>
      <point x="583" y="509"/>
      <point x="583" y="433" type="curve" smooth="yes"/>
      <point x="583" y="382"/>
      <point x="611" y="339"/>
      <point x="642" y="300" type="curve"/>
      <point x="642" y="256" type="line"/>
      <point x="669" y="236"/>
      <point x="690" y="211"/>
      <point x="690" y="192" type="curve" smooth="yes"/>
      <point x="690" y="170"/>
      <point x="676" y="156"/>
    </contour>
  </outline>
</glyph>
<glyph name="uknda" format="2">
  <advance width="1147"/>
  <unicode hex="0C89"/>
  <outline>
    <contour>
      <point x="884" y="-12" type="curve" smooth="yes"/>
      <point x="1039" y="-12"/>
      <point x="1117" y="84"/>
      <point x="1117" y="243" type="curve" smooth="yes"/>
      <point x="1117" y="388"/>
      <point x="1054" y="499"/>
      <point x="982" y="588" type="curve"/>
      <point x="840" y="492" type="line"/>
      <point x="895" y="433"/>
      <point x="951" y="343"/>
      <point x="951" y="244" type="curve" smooth="yes"/>
      <point x="951" y="182"/>
      <point x="928" y="144"/>
      <point x="882" y="144" type="curve" smooth="yes"/>
      <point x="857" y="144"/>
      <point x="847" y="150"/>
      <point x="838" y="160" type="curve" smooth="yes"/>
      <point x="824" y="176"/>
      <point x="819" y="201"/>
      <point x="819" y="248" type="curve" smooth="yes"/>
      <point x="819" y="371" type="line" smooth="yes"/>
      <point x="819" y="451"/>
      <point x="802" y="500"/>
      <point x="763" y="538" type="curve" smooth="yes"/>
      <point x="732" y="568"/>
      <point x="682" y="586"/>
      <point x="619" y="586" type="curve" smooth="yes"/>
      <point x="489" y="586"/>
      <point x="432" y="502"/>
      <point x="432" y="408" type="curve" smooth="yes"/>
      <point x="432" y="352"/>
      <point x="437" y="309"/>
      <point x="437" y="277" type="curve" smooth="yes"/>
      <point x="437" y="184"/>
      <point x="396" y="144"/>
      <point x="324" y="144" type="curve" smooth="yes"/>
      <point x="218" y="144"/>
      <point x="183" y="223"/>
      <point x="183" y="315" type="curve" smooth="yes"/>
      <point x="183" y="326" type="line" smooth="yes"/>
      <point x="183" y="410"/>
      <point x="205" y="461"/>
      <point x="237" y="461" type="curve" smooth="yes"/>
      <point x="253" y="461"/>
      <point x="264" y="448"/>
      <point x="264" y="418" type="curve" smooth="yes"/>
      <point x="264" y="381"/>
      <point x="249" y="368"/>
      <point x="221" y="368" type="curve" smooth="yes"/>
      <point x="191" y="368"/>
      <point x="166" y="384"/>
      <point x="142" y="414" type="curve"/>
      <point x="102" y="306" type="line"/>
      <point x="137" y="271"/>
      <point x="191" y="245"/>
      <point x="242" y="245" type="curve" smooth="yes"/>
      <point x="346" y="245"/>
      <point x="405" y="299"/>
      <point x="405" y="411" type="curve" smooth="yes"/>
      <point x="405" y="502"/>
      <point x="359" y="586"/>
      <point x="243" y="586" type="curve" smooth="yes"/>
      <point x="115" y="586"/>
      <point x="29" y="487"/>
      <point x="29" y="316" type="curve" smooth="yes"/>
      <point x="29" y="106"/>
      <point x="145" y="-12"/>
      <point x="331" y="-12" type="curve" smooth="yes"/>
      <point x="491" y="-12"/>
      <point x="599" y="59"/>
      <point x="599" y="241" type="curve" smooth="yes"/>
      <point x="599" y="284"/>
      <point x="593" y="332"/>
      <point x="593" y="381" type="curve" smooth="yes"/>
      <point x="593" y="423"/>
      <point x="607" y="435"/>
      <point x="625" y="435" type="curve" smooth="yes"/>
      <point x="636" y="435"/>
      <point x="642" y="432"/>
      <point x="647" y="425" type="curve" smooth="yes"/>
      <point x="653" y="417"/>
      <point x="656" y="401"/>
      <point x="656" y="369" type="curve" smooth="yes"/>
      <point x="656" y="223" type="line" smooth="yes"/>
      <point x="656" y="133"/>
      <point x="677" y="75"/>
      <point x="724" y="34" type="curve" smooth="yes"/>
      <point x="759" y="4"/>
      <point x="808" y="-12"/>
    </contour>
  </outline>
</glyph>
<glyph name="uuknda" format="2">
  <advance width="1517"/>
  <unicode hex="0C8A"/>
  <outline>
    <contour>
      <point x="863" y="-12" type="curve" smooth="yes"/>
      <point x="989" y="-12"/>
      <point x="1048" y="54"/>
      <point x="1048" y="171" type="curve" smooth="yes"/>
      <point x="1048" y="218"/>
      <point x="1045" y="255"/>
      <point x="1045" y="296" type="curve" smooth="yes"/>
      <point x="1045" y="391"/>
      <point x="1093" y="432"/>
      <point x="1166" y="432" type="curve" smooth="yes"/>
      <point x="1262" y="432"/>
      <point x="1322" y="363"/>
      <point x="1322" y="244" type="curve" smooth="yes"/>
      <point x="1322" y="169"/>
      <point x="1299" y="130"/>
      <point x="1251" y="130" type="curve" smooth="yes"/>
      <point x="1211" y="130"/>
      <point x="1202" y="156"/>
      <point x="1202" y="185" type="curve" smooth="yes"/>
      <point x="1202" y="206"/>
      <point x="1204" y="217"/>
      <point x="1211" y="235" type="curve"/>
      <point x="1177" y="189" type="line"/>
      <point x="1194" y="173"/>
      <point x="1212" y="169"/>
      <point x="1229" y="169" type="curve" smooth="yes"/>
      <point x="1270" y="169"/>
      <point x="1289" y="198"/>
      <point x="1289" y="240" type="curve" smooth="yes"/>
      <point x="1289" y="293"/>
      <point x="1258" y="323"/>
      <point x="1202" y="323" type="curve" smooth="yes"/>
      <point x="1125" y="323"/>
      <point x="1079" y="260"/>
      <point x="1079" y="178" type="curve" smooth="yes"/>
      <point x="1079" y="58"/>
      <point x="1150" y="-12"/>
      <point x="1265" y="-12" type="curve" smooth="yes"/>
      <point x="1407" y="-12"/>
      <point x="1487" y="93"/>
      <point x="1487" y="251" type="curve" smooth="yes"/>
      <point x="1487" y="423"/>
      <point x="1393" y="586"/>
      <point x="1165" y="586" type="curve" smooth="yes"/>
      <point x="1010" y="586"/>
      <point x="882" y="503"/>
      <point x="882" y="328" type="curve" smooth="yes"/>
      <point x="882" y="284"/>
      <point x="885" y="242"/>
      <point x="885" y="191" type="curve" smooth="yes"/>
      <point x="885" y="158"/>
      <point x="876" y="139"/>
      <point x="851" y="139" type="curve" smooth="yes"/>
      <point x="840" y="139"/>
      <point x="833" y="143"/>
      <point x="828" y="149" type="curve" smooth="yes"/>
      <point x="821" y="158"/>
      <point x="819" y="172"/>
      <point x="819" y="201" type="curve" smooth="yes"/>
      <point x="819" y="371" type="line" smooth="yes"/>
      <point x="819" y="451"/>
      <point x="802" y="500"/>
      <point x="763" y="538" type="curve" smooth="yes"/>
      <point x="732" y="568"/>
      <point x="682" y="586"/>
      <point x="619" y="586" type="curve" smooth="yes"/>
      <point x="489" y="586"/>
      <point x="432" y="502"/>
      <point x="432" y="408" type="curve" smooth="yes"/>
      <point x="432" y="352"/>
      <point x="437" y="309"/>
      <point x="437" y="277" type="curve" smooth="yes"/>
      <point x="437" y="184"/>
      <point x="396" y="144"/>
      <point x="324" y="144" type="curve" smooth="yes"/>
      <point x="218" y="144"/>
      <point x="183" y="223"/>
      <point x="183" y="315" type="curve" smooth="yes"/>
      <point x="183" y="326" type="line" smooth="yes"/>
      <point x="183" y="410"/>
      <point x="205" y="461"/>
      <point x="237" y="461" type="curve" smooth="yes"/>
      <point x="253" y="461"/>
      <point x="264" y="448"/>
      <point x="264" y="418" type="curve" smooth="yes"/>
      <point x="264" y="381"/>
      <point x="249" y="368"/>
      <point x="221" y="368" type="curve" smooth="yes"/>
      <point x="191" y="368"/>
      <point x="166" y="384"/>
      <point x="142" y="414" type="curve"/>
      <point x="102" y="306" type="line"/>
      <point x="137" y="271"/>
      <point x="191" y="245"/>
      <point x="242" y="245" type="curve" smooth="yes"/>
      <point x="346" y="245"/>
      <point x="405" y="299"/>
      <point x="405" y="411" type="curve" smooth="yes"/>
      <point x="405" y="502"/>
      <point x="359" y="586"/>
      <point x="243" y="586" type="curve" smooth="yes"/>
      <point x="115" y="586"/>
      <point x="29" y="487"/>
      <point x="29" y="316" type="curve" smooth="yes"/>
      <point x="29" y="106"/>
      <point x="145" y="-12"/>
      <point x="331" y="-12" type="curve" smooth="yes"/>
      <point x="491" y="-12"/>
      <point x="599" y="59"/>
      <point x="599" y="241" type="curve" smooth="yes"/>
      <point x="599" y="284"/>
      <point x="593" y="332"/>
      <point x="593" y="381" type="curve" smooth="yes"/>
      <point x="593" y="423"/>
      <point x="607" y="435"/>
      <point x="625" y="435" type="curve" smooth="yes"/>
      <point x="636" y="435"/>
      <point x="642" y="432"/>
      <point x="647" y="425" type="curve" smooth="yes"/>
      <point x="653" y="417"/>
      <point x="656" y="401"/>
      <point x="656" y="369" type="curve" smooth="yes"/>
      <point x="656" y="204" type="line" smooth="yes"/>
      <point x="656" y="118"/>
      <point x="673" y="74"/>
      <point x="712" y="36" type="curve" smooth="yes"/>
      <point x="743" y="6"/>
      <point x="793" y="-12"/>
    </contour>
  </outline>
</glyph>
<glyph name="lvocalicknda" format="2">
  <advance width="837"/>
  <unicode hex="0C8C"/>
  <outline>
    <contour>
      <point x="445" y="-12" type="curve" smooth="yes"/>
      <point x="652" y="-12"/>
      <point x="806" y="118"/>
      <point x="806" y="352" type="curve" smooth="yes"/>
      <point x="806" y="417"/>
      <point x="785" y="509"/>
      <point x="731" y="588" type="curve"/>
      <point x="591" y="525" type="line"/>
      <point x="620" y="481"/>
      <point x="640" y="410"/>
      <point x="640" y="343" type="curve" smooth="yes"/>
      <point x="640" y="206"/>
      <point x="542" y="140"/>
      <point x="439" y="140" type="curve" smooth="yes"/>
      <point x="407" y="140"/>
      <point x="390" y="149"/>
      <point x="390" y="169" type="curve" smooth="yes"/>
      <point x="390" y="189"/>
      <point x="400" y="199"/>
      <point x="459" y="227" type="curve" smooth="yes"/>
      <point x="558" y="275"/>
      <point x="596" y="327"/>
      <point x="596" y="423" type="curve" smooth="yes"/>
      <point x="596" y="500"/>
      <point x="555" y="586"/>
      <point x="446" y="586" type="curve" smooth="yes"/>
      <point x="379" y="586"/>
      <point x="335" y="555"/>
      <point x="294" y="497" type="curve"/>
      <point x="332" y="496" type="line"/>
      <point x="295" y="550"/>
      <point x="260" y="586"/>
      <point x="185" y="586" type="curve" smooth="yes"/>
      <point x="94" y="586"/>
      <point x="21" y="529"/>
      <point x="21" y="419" type="curve" smooth="yes"/>
      <point x="21" y="372"/>
      <point x="31" y="341"/>
      <point x="41" y="311" type="curve"/>
      <point x="197" y="349" type="line"/>
      <point x="191" y="362"/>
      <point x="187" y="386"/>
      <point x="187" y="402" type="curve" smooth="yes"/>
      <point x="187" y="432"/>
      <point x="198" y="441"/>
      <point x="212" y="441" type="curve" smooth="yes"/>
      <point x="233" y="441"/>
      <point x="247" y="405"/>
      <point x="249" y="360" type="curve"/>
      <point x="380" y="360" type="line"/>
      <point x="382" y="410"/>
      <point x="403" y="432"/>
      <point x="424" y="432" type="curve" smooth="yes"/>
      <point x="442" y="432"/>
      <point x="449" y="421"/>
      <point x="449" y="404" type="curve" smooth="yes"/>
      <point x="449" y="380"/>
      <point x="430" y="364"/>
      <point x="369" y="335" type="curve" smooth="yes"/>
      <point x="271" y="288"/>
      <point x="223" y="237"/>
      <point x="223" y="159" type="curve" smooth="yes"/>
      <point x="223" y="45"/>
      <point x="297" y="-12"/>
    </contour>
  </outline>
</glyph>
<glyph name="eknda" format="2">
  <advance width="743"/>
  <unicode hex="0C8E"/>
  <outline>
    <contour>
      <point x="547" y="-12" type="curve" smooth="yes"/>
      <point x="647" y="-12"/>
      <point x="715" y="49"/>
      <point x="715" y="206" type="curve" smooth="yes"/>
      <point x="715" y="405"/>
      <point x="580" y="583"/>
      <point x="247" y="609" type="curve"/>
      <point x="223" y="448" type="line"/>
      <point x="402" y="440"/>
      <point x="549" y="357"/>
      <point x="549" y="201" type="curve" smooth="yes"/>
      <point x="549" y="170"/>
      <point x="542" y="145"/>
      <point x="516" y="145" type="curve" smooth="yes"/>
      <point x="496" y="145"/>
      <point x="477" y="161"/>
      <point x="475" y="227" type="curve"/>
      <point x="343" y="227" type="line"/>
      <point x="333" y="168"/>
      <point x="304" y="140"/>
      <point x="242" y="140" type="curve" smooth="yes"/>
      <point x="187" y="140"/>
      <point x="161" y="160"/>
      <point x="161" y="197" type="curve" smooth="yes"/>
      <point x="161" y="221"/>
      <point x="170" y="229"/>
      <point x="180" y="229" type="curve" smooth="yes"/>
      <point x="192" y="229"/>
      <point x="197" y="214"/>
      <point x="197" y="203" type="curve" smooth="yes"/>
      <point x="197" y="194"/>
      <point x="196" y="189"/>
      <point x="195" y="185" type="curve"/>
      <point x="304" y="179" type="line"/>
      <point x="309" y="194"/>
      <point x="313" y="220"/>
      <point x="313" y="241" type="curve" smooth="yes"/>
      <point x="313" y="308"/>
      <point x="269" y="355"/>
      <point x="184" y="355" type="curve" smooth="yes"/>
      <point x="81" y="355"/>
      <point x="24" y="284"/>
      <point x="24" y="183" type="curve" smooth="yes"/>
      <point x="24" y="70"/>
      <point x="95" y="-12"/>
      <point x="227" y="-12" type="curve" smooth="yes"/>
      <point x="323" y="-12"/>
      <point x="372" y="12"/>
      <point x="431" y="90" type="curve"/>
      <point x="375" y="105" type="line"/>
      <point x="421" y="27"/>
      <point x="457" y="-12"/>
    </contour>
  </outline>
</glyph>
<glyph name="eeknda" format="2">
  <advance width="743"/>
  <unicode hex="0C8F"/>
  <outline>
    <contour>
      <point x="547" y="-12" type="curve" smooth="yes"/>
      <point x="647" y="-12"/>
      <point x="715" y="49"/>
      <point x="715" y="206" type="curve" smooth="yes"/>
      <point x="715" y="398"/>
      <point x="577" y="550"/>
      <point x="328" y="607" type="curve"/>
      <point x="320" y="535"/>
      <point x="306" y="508"/>
      <point x="279" y="508" type="curve" smooth="yes"/>
      <point x="252" y="508"/>
      <point x="243" y="537"/>
      <point x="242" y="608" type="curve"/>
      <point x="85" y="594" type="line"/>
      <point x="93" y="425"/>
      <point x="167" y="375"/>
      <point x="270" y="375" type="curve" smooth="yes"/>
      <point x="361" y="375"/>
      <point x="417" y="415"/>
      <point x="449" y="502" type="curve"/>
      <point x="354" y="430" type="line"/>
      <point x="440" y="404"/>
      <point x="549" y="334"/>
      <point x="549" y="201" type="curve" smooth="yes"/>
      <point x="549" y="170"/>
      <point x="542" y="145"/>
      <point x="516" y="145" type="curve" smooth="yes"/>
      <point x="496" y="145"/>
      <point x="477" y="161"/>
      <point x="475" y="227" type="curve"/>
      <point x="343" y="227" type="line"/>
      <point x="333" y="168"/>
      <point x="304" y="140"/>
      <point x="242" y="140" type="curve" smooth="yes"/>
      <point x="187" y="140"/>
      <point x="161" y="160"/>
      <point x="161" y="197" type="curve" smooth="yes"/>
      <point x="161" y="221"/>
      <point x="170" y="229"/>
      <point x="180" y="229" type="curve" smooth="yes"/>
      <point x="192" y="229"/>
      <point x="197" y="214"/>
      <point x="197" y="203" type="curve" smooth="yes"/>
      <point x="197" y="194"/>
      <point x="196" y="189"/>
      <point x="195" y="185" type="curve"/>
      <point x="304" y="179" type="line"/>
      <point x="309" y="194"/>
      <point x="313" y="220"/>
      <point x="313" y="241" type="curve" smooth="yes"/>
      <point x="313" y="308"/>
      <point x="269" y="355"/>
      <point x="184" y="355" type="curve" smooth="yes"/>
      <point x="81" y="355"/>
      <point x="24" y="284"/>
      <point x="24" y="183" type="curve" smooth="yes"/>
      <point x="24" y="70"/>
      <point x="95" y="-12"/>
      <point x="227" y="-12" type="curve" smooth="yes"/>
      <point x="323" y="-12"/>
      <point x="370" y="12"/>
      <point x="431" y="90" type="curve"/>
      <point x="375" y="105" type="line"/>
      <point x="421" y="27"/>
      <point x="457" y="-12"/>
    </contour>
  </outline>
</glyph>
<glyph name="aiknda" format="2">
  <advance width="765"/>
  <unicode hex="0C90"/>
  <outline>
    <contour>
      <point x="550" y="-12" type="curve" smooth="yes"/>
      <point x="662" y="-12"/>
      <point x="732" y="62"/>
      <point x="732" y="265" type="curve" smooth="yes"/>
      <point x="732" y="477"/>
      <point x="651" y="586"/>
      <point x="513" y="586" type="curve" smooth="yes"/>
      <point x="432" y="586"/>
      <point x="389" y="549"/>
      <point x="348" y="496" type="curve"/>
      <point x="387" y="490" type="line"/>
      <point x="347" y="544"/>
      <point x="297" y="586"/>
      <point x="218" y="586" type="curve" smooth="yes"/>
      <point x="103" y="586"/>
      <point x="42" y="524"/>
      <point x="42" y="430" type="curve" smooth="yes"/>
      <point x="42" y="407"/>
      <point x="46" y="376"/>
      <point x="54" y="350" type="curve"/>
      <point x="210" y="377" type="line"/>
      <point x="208" y="385"/>
      <point x="207" y="392"/>
      <point x="207" y="398" type="curve" smooth="yes"/>
      <point x="207" y="422"/>
      <point x="220" y="434"/>
      <point x="244" y="434" type="curve" smooth="yes"/>
      <point x="272" y="434"/>
      <point x="292" y="408"/>
      <point x="301" y="366" type="curve"/>
      <point x="431" y="366" type="line"/>
      <point x="440" y="409"/>
      <point x="458" y="430"/>
      <point x="489" y="430" type="curve" smooth="yes"/>
      <point x="535" y="430"/>
      <point x="566" y="380"/>
      <point x="566" y="261" type="curve" smooth="yes"/>
      <point x="566" y="193"/>
      <point x="558" y="145"/>
      <point x="524" y="145" type="curve" smooth="yes"/>
      <point x="502" y="145"/>
      <point x="483" y="161"/>
      <point x="481" y="227" type="curve"/>
      <point x="349" y="227" type="line"/>
      <point x="339" y="168"/>
      <point x="310" y="140"/>
      <point x="248" y="140" type="curve" smooth="yes"/>
      <point x="193" y="140"/>
      <point x="167" y="160"/>
      <point x="167" y="197" type="curve" smooth="yes"/>
      <point x="167" y="221"/>
      <point x="176" y="229"/>
      <point x="186" y="229" type="curve" smooth="yes"/>
      <point x="198" y="229"/>
      <point x="203" y="214"/>
      <point x="203" y="203" type="curve" smooth="yes"/>
      <point x="203" y="194"/>
      <point x="202" y="189"/>
      <point x="201" y="185" type="curve"/>
      <point x="310" y="179" type="line"/>
      <point x="315" y="194"/>
      <point x="319" y="220"/>
      <point x="319" y="241" type="curve" smooth="yes"/>
      <point x="319" y="308"/>
      <point x="275" y="355"/>
      <point x="190" y="355" type="curve" smooth="yes"/>
      <point x="87" y="355"/>
      <point x="30" y="284"/>
      <point x="30" y="183" type="curve" smooth="yes"/>
      <point x="30" y="70"/>
      <point x="101" y="-12"/>
      <point x="233" y="-12" type="curve" smooth="yes"/>
      <point x="329" y="-12"/>
      <point x="377" y="12"/>
      <point x="437" y="90" type="curve"/>
      <point x="381" y="105" type="line"/>
      <point x="422" y="26"/>
      <point x="465" y="-12"/>
    </contour>
  </outline>
</glyph>
<glyph name="ooknda" format="2">
  <advance width="735"/>
  <unicode hex="0C93"/>
  <outline>
    <contour>
      <point x="152" y="509" type="curve"/>
      <point x="268" y="566" type="line"/>
      <point x="247" y="583"/>
      <point x="233" y="599"/>
      <point x="233" y="620" type="curve" smooth="yes"/>
      <point x="233" y="636"/>
      <point x="244" y="651"/>
      <point x="280" y="656" type="curve"/>
      <point x="268" y="798" type="line"/>
      <point x="130" y="794"/>
      <point x="78" y="727"/>
      <point x="78" y="652" type="curve" smooth="yes"/>
      <point x="78" y="591"/>
      <point x="115" y="544"/>
    </contour>
    <component base="oknda"/>
  </outline>
</glyph>
<glyph name="auknda" format="2">
  <advance width="740"/>
  <unicode hex="0C94"/>
  <outline>
    <contour>
      <point x="524" y="-12" type="curve" smooth="yes"/>
      <point x="647" y="-12"/>
      <point x="712" y="56"/>
      <point x="712" y="174" type="curve" smooth="yes"/>
      <point x="712" y="232"/>
      <point x="698" y="286"/>
      <point x="675" y="322" type="curve"/>
      <point x="527" y="268" type="line"/>
      <point x="539" y="247"/>
      <point x="546" y="227"/>
      <point x="546" y="200" type="curve" smooth="yes"/>
      <point x="546" y="166"/>
      <point x="534" y="145"/>
      <point x="504" y="145" type="curve" smooth="yes"/>
      <point x="471" y="145"/>
      <point x="451" y="159"/>
      <point x="448" y="227" type="curve"/>
      <point x="316" y="227" type="line"/>
      <point x="312" y="166"/>
      <point x="292" y="141"/>
      <point x="249" y="141" type="curve" smooth="yes"/>
      <point x="226" y="141"/>
      <point x="214" y="150"/>
      <point x="214" y="169" type="curve" smooth="yes"/>
      <point x="214" y="188"/>
      <point x="227" y="204"/>
      <point x="272" y="247" type="curve" smooth="yes"/>
      <point x="352" y="323"/>
      <point x="381" y="365"/>
      <point x="381" y="442" type="curve" smooth="yes"/>
      <point x="381" y="506"/>
      <point x="339" y="586"/>
      <point x="206" y="586" type="curve" smooth="yes"/>
      <point x="89" y="586"/>
      <point x="21" y="527"/>
      <point x="21" y="435" type="curve" smooth="yes"/>
      <point x="21" y="396"/>
      <point x="31" y="369"/>
      <point x="42" y="342" type="curve"/>
      <point x="184" y="380" type="line"/>
      <point x="180" y="392"/>
      <point x="176" y="407"/>
      <point x="176" y="423" type="curve" smooth="yes"/>
      <point x="176" y="445"/>
      <point x="185" y="457"/>
      <point x="201" y="457" type="curve" smooth="yes"/>
      <point x="215" y="457"/>
      <point x="224" y="449"/>
      <point x="224" y="429" type="curve" smooth="yes"/>
      <point x="224" y="408"/>
      <point x="212" y="389"/>
      <point x="161" y="346" type="curve" smooth="yes"/>
      <point x="70" y="268"/>
      <point x="48" y="218"/>
      <point x="48" y="154" type="curve" smooth="yes"/>
      <point x="48" y="59"/>
      <point x="104" y="-12"/>
      <point x="218" y="-12" type="curve" smooth="yes"/>
      <point x="305" y="-12"/>
      <point x="358" y="15"/>
      <point x="421" y="105" type="curve"/>
      <point x="348" y="106" type="line"/>
      <point x="393" y="21"/>
      <point x="440" y="-12"/>
    </contour>
    <contour>
      <point x="78" y="471" type="line"/>
      <point x="138" y="471" type="line" smooth="yes"/>
      <point x="204" y="471"/>
      <point x="251" y="477"/>
      <point x="282" y="507" type="curve" smooth="yes"/>
      <point x="310" y="535"/>
      <point x="317" y="565"/>
      <point x="317" y="589" type="curve" smooth="yes"/>
      <point x="317" y="637"/>
      <point x="293" y="669"/>
      <point x="266" y="695" type="curve"/>
      <point x="141" y="675" type="line"/>
      <point x="160" y="655"/>
      <point x="173" y="630"/>
      <point x="173" y="612" type="curve" smooth="yes"/>
      <point x="173" y="602"/>
      <point x="171" y="597"/>
      <point x="167" y="593" type="curve" smooth="yes"/>
      <point x="162" y="588"/>
      <point x="156" y="586"/>
      <point x="136" y="586" type="curve" smooth="yes"/>
      <point x="77" y="586" type="line"/>
    </contour>
    <contour>
      <point x="533" y="308" type="curve" smooth="yes"/>
      <point x="636" y="308"/>
      <point x="703" y="382"/>
      <point x="703" y="525" type="curve" smooth="yes"/>
      <point x="703" y="616"/>
      <point x="674" y="683"/>
      <point x="619" y="729" type="curve" smooth="yes"/>
      <point x="570" y="770"/>
      <point x="504" y="790"/>
      <point x="379" y="790" type="curve" smooth="yes"/>
      <point x="40" y="790" type="line"/>
      <point x="40" y="645" type="line"/>
      <point x="399" y="645" type="line" smooth="yes"/>
      <point x="464" y="645"/>
      <point x="498" y="637"/>
      <point x="524" y="615" type="curve" smooth="yes"/>
      <point x="547" y="596"/>
      <point x="561" y="563"/>
      <point x="561" y="517" type="curve" smooth="yes"/>
      <point x="561" y="456"/>
      <point x="544" y="429"/>
      <point x="517" y="429" type="curve" smooth="yes"/>
      <point x="489" y="429"/>
      <point x="481" y="449"/>
      <point x="481" y="477" type="curve" smooth="yes"/>
      <point x="481" y="490"/>
      <point x="483" y="506"/>
      <point x="489" y="518" type="curve"/>
      <point x="452" y="500" type="line"/>
      <point x="461" y="479"/>
      <point x="476" y="463"/>
      <point x="500" y="463" type="curve" smooth="yes"/>
      <point x="533" y="463"/>
      <point x="549" y="490"/>
      <point x="549" y="524" type="curve" smooth="yes"/>
      <point x="549" y="566"/>
      <point x="531" y="596"/>
      <point x="481" y="596" type="curve" smooth="yes"/>
      <point x="429" y="596"/>
      <point x="385" y="547"/>
      <point x="385" y="472" type="curve" smooth="yes"/>
      <point x="385" y="362"/>
      <point x="441" y="308"/>
    </contour>
  </outline>
</glyph>
<glyph name="kaknda" format="2">
  <advance width="535"/>
  <unicode hex="0C95"/>
  <outline>
    <contour>
      <point x="267" y="-12" type="curve" smooth="yes"/>
      <point x="442" y="-12"/>
      <point x="487" y="69"/>
      <point x="487" y="147" type="curve" smooth="yes"/>
      <point x="487" y="191"/>
      <point x="467" y="231"/>
      <point x="424" y="255" type="curve"/>
      <point x="426" y="244" type="line"/>
      <point x="504" y="240" type="line"/>
      <point x="504" y="360" type="line"/>
      <point x="363" y="360" type="line"/>
      <point x="371" y="370"/>
      <point x="373" y="385"/>
      <point x="373" y="394" type="curve" smooth="yes"/>
      <point x="373" y="418"/>
      <point x="363" y="433"/>
      <point x="349" y="449" type="curve"/>
      <point x="286" y="459" type="line"/>
      <point x="185" y="449" type="line"/>
      <point x="204" y="436"/>
      <point x="217" y="417"/>
      <point x="217" y="398" type="curve" smooth="yes"/>
      <point x="217" y="383"/>
      <point x="207" y="367"/>
      <point x="195" y="360" type="curve"/>
      <point x="33" y="360" type="line"/>
      <point x="33" y="240" type="line"/>
      <point x="107" y="241" type="line"/>
      <point x="107" y="251" type="line"/>
      <point x="66" y="225"/>
      <point x="50" y="188"/>
      <point x="50" y="147" type="curve" smooth="yes"/>
      <point x="50" y="63"/>
      <point x="107" y="-12"/>
    </contour>
    <contour>
      <point x="268" y="141" type="curve" smooth="yes"/>
      <point x="230" y="141"/>
      <point x="211" y="166"/>
      <point x="211" y="198" type="curve" smooth="yes"/>
      <point x="211" y="233"/>
      <point x="232" y="257"/>
      <point x="268" y="257" type="curve" smooth="yes"/>
      <point x="302" y="257"/>
      <point x="326" y="235"/>
      <point x="326" y="198" type="curve" smooth="yes"/>
      <point x="326" y="168"/>
      <point x="309" y="141"/>
    </contour>
    <contour>
      <point x="32" y="423" type="line"/>
      <point x="276" y="423" type="line" smooth="yes"/>
      <point x="389" y="423"/>
      <point x="438" y="448"/>
      <point x="470" y="486" type="curve" smooth="yes"/>
      <point x="497" y="518"/>
      <point x="508" y="560"/>
      <point x="508" y="600" type="curve" smooth="yes"/>
      <point x="508" y="667"/>
      <point x="485" y="719"/>
      <point x="423" y="798" type="curve"/>
      <point x="303" y="719" type="line"/>
      <point x="332" y="686"/>
      <point x="351" y="654"/>
      <point x="351" y="620" type="curve" smooth="yes"/>
      <point x="351" y="604"/>
      <point x="346" y="593"/>
      <point x="338" y="586" type="curve" smooth="yes"/>
      <point x="327" y="577"/>
      <point x="310" y="574"/>
      <point x="263" y="574" type="curve" smooth="yes"/>
      <point x="32" y="574" type="line"/>
    </contour>
  </outline>
</glyph>
<glyph name="khaknda" format="2">
  <advance width="815"/>
  <unicode hex="0C96"/>
  <outline>
    <contour>
      <point x="546" y="-12" type="curve" smooth="yes"/>
      <point x="695" y="-12"/>
      <point x="785" y="93"/>
      <point x="785" y="245" type="curve" smooth="yes"/>
      <point x="785" y="427"/>
      <point x="695" y="547"/>
      <point x="583" y="652" type="curve"/>
      <point x="464" y="532" type="line"/>
      <point x="535" y="473"/>
      <point x="619" y="374"/>
      <point x="619" y="254" type="curve" smooth="yes"/>
      <point x="619" y="186"/>
      <point x="595" y="144"/>
      <point x="532" y="144" type="curve" smooth="yes"/>
      <point x="471" y="144"/>
      <point x="443" y="172"/>
      <point x="412" y="206" type="curve"/>
      <point x="356" y="210" type="line"/>
      <point x="312" y="251"/>
      <point x="261" y="283"/>
      <point x="184" y="283" type="curve" smooth="yes"/>
      <point x="85" y="283"/>
      <point x="20" y="227"/>
      <point x="20" y="138" type="curve" smooth="yes"/>
      <point x="20" y="40"/>
      <point x="91" y="-12"/>
      <point x="198" y="-12" type="curve" smooth="yes"/>
      <point x="301" y="-12"/>
      <point x="363" y="21"/>
      <point x="419" y="102" type="curve"/>
      <point x="461" y="149"/>
      <point x="486" y="222"/>
      <point x="486" y="322" type="curve" smooth="yes"/>
      <point x="486" y="483"/>
      <point x="405" y="586"/>
      <point x="259" y="586" type="curve" smooth="yes"/>
      <point x="143" y="586"/>
      <point x="68" y="520"/>
      <point x="68" y="429" type="curve" smooth="yes"/>
      <point x="68" y="339"/>
      <point x="121" y="296"/>
      <point x="188" y="296" type="curve" smooth="yes"/>
      <point x="253" y="296"/>
      <point x="284" y="324"/>
      <point x="284" y="367" type="curve" smooth="yes"/>
      <point x="284" y="404"/>
      <point x="264" y="427"/>
      <point x="232" y="427" type="curve" smooth="yes"/>
      <point x="209" y="427"/>
      <point x="192" y="411"/>
      <point x="187" y="385" type="curve"/>
      <point x="210" y="382" type="line"/>
      <point x="204" y="392"/>
      <point x="201" y="405"/>
      <point x="201" y="416" type="curve" smooth="yes"/>
      <point x="201" y="441"/>
      <point x="223" y="454"/>
      <point x="247" y="454" type="curve" smooth="yes"/>
      <point x="303" y="454"/>
      <point x="325" y="386"/>
      <point x="325" y="307" type="curve" smooth="yes"/>
      <point x="325" y="201"/>
      <point x="286" y="118"/>
      <point x="204" y="118" type="curve" smooth="yes"/>
      <point x="176" y="118"/>
      <point x="165" y="127"/>
      <point x="165" y="141" type="curve" smooth="yes"/>
      <point x="165" y="153"/>
      <point x="172" y="162"/>
      <point x="196" y="162" type="curve" smooth="yes"/>
      <point x="229" y="162"/>
      <point x="261" y="136"/>
      <point x="290" y="105" type="curve" smooth="yes"/>
      <point x="303" y="96"/>
      <point x="324" y="82"/>
      <point x="338" y="74" type="curve" smooth="yes"/>
      <point x="392" y="25"/>
      <point x="447" y="-12"/>
    </contour>
  </outline>
</glyph>
<glyph name="gaknda" format="2">
  <advance width="595"/>
  <unicode hex="0C97"/>
  <outline>
    <contour>
      <point x="297" y="423" type="curve" smooth="yes"/>
      <point x="327" y="423"/>
      <point x="347" y="397"/>
      <point x="359" y="357" type="curve" smooth="yes"/>
      <point x="376" y="302"/>
      <point x="379" y="214"/>
      <point x="379" y="126" type="curve" smooth="yes"/>
      <point x="379" y="0" type="line"/>
      <point x="554" y="0" type="line"/>
      <point x="554" y="142" type="line" smooth="yes"/>
      <point x="554" y="272"/>
      <point x="535" y="391"/>
      <point x="445" y="459" type="curve"/>
      <point x="419" y="433" type="line"/>
      <point x="508" y="450"/>
      <point x="553" y="517"/>
      <point x="553" y="600" type="curve" smooth="yes"/>
      <point x="553" y="667"/>
      <point x="530" y="719"/>
      <point x="468" y="798" type="curve"/>
      <point x="348" y="719" type="line"/>
      <point x="377" y="686"/>
      <point x="396" y="654"/>
      <point x="396" y="620" type="curve" smooth="yes"/>
      <point x="396" y="604"/>
      <point x="391" y="593"/>
      <point x="383" y="586" type="curve" smooth="yes"/>
      <point x="372" y="577"/>
      <point x="355" y="574"/>
      <point x="308" y="574" type="curve" smooth="yes"/>
      <point x="38" y="574" type="line"/>
      <point x="38" y="423" type="line"/>
      <point x="188" y="423" type="line"/>
      <point x="159" y="459" type="line"/>
      <point x="69" y="402"/>
      <point x="41" y="285"/>
      <point x="41" y="142" type="curve" smooth="yes"/>
      <point x="41" y="0" type="line"/>
      <point x="216" y="0" type="line"/>
      <point x="216" y="119" type="line" smooth="yes"/>
      <point x="216" y="214"/>
      <point x="219" y="302"/>
      <point x="236" y="357" type="curve" smooth="yes"/>
      <point x="248" y="397"/>
      <point x="267" y="423"/>
    </contour>
  </outline>
</glyph>
<glyph name="ghaknda" format="2">
  <advance width="947"/>
  <unicode hex="0C98"/>
  <outline>
    <contour>
      <point x="229" y="-12" type="curve" smooth="yes"/>
      <point x="325" y="-12"/>
      <point x="372" y="12"/>
      <point x="433" y="90" type="curve"/>
      <point x="377" y="105" type="line"/>
      <point x="423" y="27"/>
      <point x="459" y="-12"/>
      <point x="546" y="-12" type="curve" smooth="yes"/>
      <point x="659" y="-12"/>
      <point x="717" y="62"/>
      <point x="717" y="157" type="curve" smooth="yes"/>
      <point x="717" y="239"/>
      <point x="684" y="316"/>
      <point x="645" y="378" type="curve"/>
      <point x="643" y="398" type="line"/>
      <point x="503" y="326" type="line"/>
      <point x="529" y="292"/>
      <point x="551" y="240"/>
      <point x="551" y="193" type="curve" smooth="yes"/>
      <point x="551" y="168"/>
      <point x="546" y="145"/>
      <point x="518" y="145" type="curve" smooth="yes"/>
      <point x="498" y="145"/>
      <point x="479" y="161"/>
      <point x="477" y="224" type="curve"/>
      <point x="345" y="224" type="line"/>
      <point x="334" y="166"/>
      <point x="302" y="140"/>
      <point x="244" y="140" type="curve" smooth="yes"/>
      <point x="189" y="140"/>
      <point x="163" y="160"/>
      <point x="163" y="197" type="curve" smooth="yes"/>
      <point x="163" y="221"/>
      <point x="172" y="229"/>
      <point x="182" y="229" type="curve" smooth="yes"/>
      <point x="194" y="229"/>
      <point x="199" y="214"/>
      <point x="199" y="203" type="curve" smooth="yes"/>
      <point x="199" y="194"/>
      <point x="198" y="189"/>
      <point x="197" y="185" type="curve"/>
      <point x="306" y="179" type="line"/>
      <point x="311" y="194"/>
      <point x="315" y="220"/>
      <point x="315" y="241" type="curve" smooth="yes"/>
      <point x="315" y="308"/>
      <point x="271" y="355"/>
      <point x="186" y="355" type="curve" smooth="yes"/>
      <point x="83" y="355"/>
      <point x="26" y="284"/>
      <point x="26" y="183" type="curve" smooth="yes"/>
      <point x="26" y="70"/>
      <point x="97" y="-12"/>
    </contour>
    <contour>
      <point x="318" y="-144" type="line"/>
      <point x="481" y="-144" type="line"/>
      <point x="470" y="0" type="line"/>
      <point x="329" y="0" type="line"/>
    </contour>
    <contour>
      <point x="402" y="255" type="curve" smooth="yes"/>
      <point x="451" y="255"/>
      <point x="478" y="286"/>
      <point x="478" y="330" type="curve" smooth="yes"/>
      <point x="478" y="378"/>
      <point x="448" y="405"/>
      <point x="402" y="405" type="curve" smooth="yes"/>
      <point x="355" y="405"/>
      <point x="326" y="376"/>
      <point x="326" y="330" type="curve" smooth="yes"/>
      <point x="326" y="287"/>
      <point x="352" y="255"/>
    </contour>
    <contour>
      <point x="28" y="423" type="line"/>
      <point x="485" y="423" type="line" smooth="yes"/>
      <point x="598" y="423"/>
      <point x="646" y="447"/>
      <point x="679" y="486" type="curve" smooth="yes"/>
      <point x="706" y="518"/>
      <point x="717" y="560"/>
      <point x="717" y="600" type="curve" smooth="yes"/>
      <point x="717" y="667"/>
      <point x="694" y="719"/>
      <point x="632" y="798" type="curve"/>
      <point x="512" y="719" type="line"/>
      <point x="541" y="686"/>
      <point x="560" y="654"/>
      <point x="560" y="620" type="curve" smooth="yes"/>
      <point x="560" y="604"/>
      <point x="555" y="593"/>
      <point x="547" y="586" type="curve" smooth="yes"/>
      <point x="536" y="577"/>
      <point x="519" y="574"/>
      <point x="472" y="574" type="curve" smooth="yes"/>
      <point x="28" y="574" type="line"/>
    </contour>
    <contour>
      <point x="769" y="188" type="curve" smooth="yes"/>
      <point x="855" y="188"/>
      <point x="926" y="238"/>
      <point x="926" y="361" type="curve" smooth="yes"/>
      <point x="926" y="439"/>
      <point x="890" y="523"/>
      <point x="820" y="588" type="curve"/>
      <point x="698" y="484" type="line"/>
      <point x="733" y="450"/>
      <point x="761" y="406"/>
      <point x="761" y="363" type="curve" smooth="yes"/>
      <point x="761" y="334"/>
      <point x="747" y="320"/>
      <point x="729" y="320" type="curve" smooth="yes"/>
      <point x="700" y="320"/>
      <point x="678" y="338"/>
      <point x="643" y="398" type="curve"/>
      <point x="595" y="312" type="line"/>
      <point x="643" y="223"/>
      <point x="693" y="188"/>
    </contour>
  </outline>
</glyph>
<glyph name="ngaknda" format="2">
  <advance width="735"/>
  <unicode hex="0C99"/>
  <outline>
    <contour>
      <point x="524" y="-12" type="curve" smooth="yes"/>
      <point x="647" y="-12"/>
      <point x="712" y="56"/>
      <point x="712" y="174" type="curve" smooth="yes"/>
      <point x="712" y="225"/>
      <point x="701" y="271"/>
      <point x="683" y="308" type="curve"/>
      <point x="533" y="258" type="line"/>
      <point x="540" y="245"/>
      <point x="546" y="222"/>
      <point x="546" y="200" type="curve" smooth="yes"/>
      <point x="546" y="166"/>
      <point x="534" y="145"/>
      <point x="504" y="145" type="curve" smooth="yes"/>
      <point x="471" y="145"/>
      <point x="451" y="159"/>
      <point x="448" y="227" type="curve"/>
      <point x="316" y="227" type="line"/>
      <point x="312" y="166"/>
      <point x="292" y="141"/>
      <point x="249" y="141" type="curve" smooth="yes"/>
      <point x="226" y="141"/>
      <point x="214" y="150"/>
      <point x="214" y="169" type="curve" smooth="yes"/>
      <point x="214" y="188"/>
      <point x="227" y="204"/>
      <point x="272" y="247" type="curve" smooth="yes"/>
      <point x="352" y="323"/>
      <point x="381" y="365"/>
      <point x="381" y="442" type="curve" smooth="yes"/>
      <point x="381" y="506"/>
      <point x="339" y="586"/>
      <point x="203" y="586" type="curve" smooth="yes"/>
      <point x="87" y="586"/>
      <point x="21" y="527"/>
      <point x="21" y="435" type="curve" smooth="yes"/>
      <point x="21" y="396"/>
      <point x="31" y="369"/>
      <point x="42" y="342" type="curve"/>
      <point x="184" y="380" type="line"/>
      <point x="180" y="392"/>
      <point x="176" y="407"/>
      <point x="176" y="423" type="curve" smooth="yes"/>
      <point x="176" y="445"/>
      <point x="185" y="457"/>
      <point x="201" y="457" type="curve" smooth="yes"/>
      <point x="215" y="457"/>
      <point x="224" y="449"/>
      <point x="224" y="429" type="curve" smooth="yes"/>
      <point x="224" y="408"/>
      <point x="212" y="389"/>
      <point x="161" y="346" type="curve" smooth="yes"/>
      <point x="70" y="268"/>
      <point x="48" y="218"/>
      <point x="48" y="154" type="curve" smooth="yes"/>
      <point x="48" y="59"/>
      <point x="104" y="-12"/>
      <point x="218" y="-12" type="curve" smooth="yes"/>
      <point x="305" y="-12"/>
      <point x="358" y="15"/>
      <point x="421" y="105" type="curve"/>
      <point x="348" y="106" type="line"/>
      <point x="393" y="21"/>
      <point x="440" y="-12"/>
    </contour>
    <contour>
      <point x="445" y="253" type="curve" smooth="yes"/>
      <point x="494" y="253"/>
      <point x="521" y="284"/>
      <point x="521" y="328" type="curve" smooth="yes"/>
      <point x="521" y="376"/>
      <point x="491" y="403"/>
      <point x="445" y="403" type="curve" smooth="yes"/>
      <point x="398" y="403"/>
      <point x="369" y="374"/>
      <point x="369" y="328" type="curve" smooth="yes"/>
      <point x="369" y="285"/>
      <point x="395" y="253"/>
    </contour>
    <contour>
      <point x="509" y="586" type="curve" smooth="yes"/>
      <point x="413" y="586"/>
      <point x="345" y="538"/>
      <point x="287" y="478" type="curve"/>
      <point x="285" y="435" type="line"/>
      <point x="352" y="376" type="line"/>
      <point x="393" y="429"/>
      <point x="439" y="456"/>
      <point x="476" y="456" type="curve" smooth="yes"/>
      <point x="513" y="456"/>
      <point x="533" y="437"/>
      <point x="533" y="403" type="curve" smooth="yes"/>
      <point x="533" y="387"/>
      <point x="531" y="370"/>
      <point x="524" y="353" type="curve"/>
      <point x="673" y="327" type="line"/>
      <point x="683" y="353"/>
      <point x="688" y="383"/>
      <point x="688" y="411" type="curve" smooth="yes"/>
      <point x="688" y="524"/>
      <point x="616" y="586"/>
    </contour>
  </outline>
</glyph>
<glyph name="chaknda" format="2">
  <advance width="806"/>
  <unicode hex="0C9B"/>
  <outline>
    <contour>
      <point x="266" y="-12" type="curve" smooth="yes"/>
      <point x="371" y="-12"/>
      <point x="407" y="31"/>
      <point x="465" y="118" type="curve"/>
      <point x="388" y="106" type="line"/>
      <point x="433" y="21"/>
      <point x="480" y="-12"/>
      <point x="570" y="-12" type="curve" smooth="yes"/>
      <point x="703" y="-12"/>
      <point x="771" y="80"/>
      <point x="771" y="227" type="curve" smooth="yes"/>
      <point x="771" y="355"/>
      <point x="714" y="437"/>
      <point x="617" y="506" type="curve"/>
      <point x="480" y="451" type="line"/>
      <point x="538" y="410"/>
      <point x="605" y="337"/>
      <point x="605" y="231" type="curve" smooth="yes"/>
      <point x="605" y="169"/>
      <point x="580" y="145"/>
      <point x="550" y="145" type="curve" smooth="yes"/>
      <point x="511" y="145"/>
      <point x="491" y="159"/>
      <point x="488" y="227" type="curve"/>
      <point x="356" y="227" type="line"/>
      <point x="347" y="172"/>
      <point x="323" y="145"/>
      <point x="271" y="145" type="curve" smooth="yes"/>
      <point x="217" y="145"/>
      <point x="191" y="189"/>
      <point x="191" y="275" type="curve" smooth="yes"/>
      <point x="191" y="423"/>
      <point x="217" y="461"/>
      <point x="247" y="461" type="curve" smooth="yes"/>
      <point x="266" y="461"/>
      <point x="277" y="448"/>
      <point x="277" y="418" type="curve" smooth="yes"/>
      <point x="277" y="384"/>
      <point x="260" y="368"/>
      <point x="231" y="368" type="curve" smooth="yes"/>
      <point x="199" y="368"/>
      <point x="173" y="389"/>
      <point x="152" y="414" type="curve"/>
      <point x="111" y="297" type="line"/>
      <point x="154" y="264"/>
      <point x="209" y="245"/>
      <point x="255" y="245" type="curve" smooth="yes"/>
      <point x="360" y="245"/>
      <point x="412" y="306"/>
      <point x="412" y="415" type="curve" smooth="yes"/>
      <point x="412" y="516"/>
      <point x="360" y="586"/>
      <point x="254" y="586" type="curve" smooth="yes"/>
      <point x="122" y="586"/>
      <point x="32" y="483"/>
      <point x="32" y="280" type="curve" smooth="yes"/>
      <point x="32" y="95"/>
      <point x="123" y="-12"/>
    </contour>
    <contour>
      <point x="337" y="-144" type="line"/>
      <point x="500" y="-144" type="line"/>
      <point x="489" y="0" type="line"/>
      <point x="348" y="0" type="line"/>
    </contour>
    <contour>
      <point x="453" y="423" type="line"/>
      <point x="541" y="423" type="line" smooth="yes"/>
      <point x="654" y="423"/>
      <point x="702" y="447"/>
      <point x="735" y="486" type="curve" smooth="yes"/>
      <point x="762" y="518"/>
      <point x="773" y="560"/>
      <point x="773" y="600" type="curve" smooth="yes"/>
      <point x="773" y="667"/>
      <point x="750" y="719"/>
      <point x="688" y="798" type="curve"/>
      <point x="568" y="719" type="line"/>
      <point x="597" y="686"/>
      <point x="616" y="654"/>
      <point x="616" y="620" type="curve" smooth="yes"/>
      <point x="616" y="604"/>
      <point x="611" y="593"/>
      <point x="603" y="586" type="curve" smooth="yes"/>
      <point x="592" y="577"/>
      <point x="575" y="574"/>
      <point x="528" y="574" type="curve" smooth="yes"/>
      <point x="453" y="574" type="line"/>
    </contour>
  </outline>
</glyph>
<glyph name="jaknda" format="2">
  <advance width="735"/>
  <unicode hex="0C9C"/>
  <outline>
    <contour>
      <point x="524" y="-12" type="curve" smooth="yes"/>
      <point x="647" y="-12"/>
      <point x="712" y="56"/>
      <point x="712" y="174" type="curve" smooth="yes"/>
      <point x="712" y="236"/>
      <point x="696" y="289"/>
      <point x="671" y="330" type="curve"/>
      <point x="526" y="273" type="line"/>
      <point x="537" y="253"/>
      <point x="546" y="225"/>
      <point x="546" y="200" type="curve" smooth="yes"/>
      <point x="546" y="166"/>
      <point x="534" y="145"/>
      <point x="504" y="145" type="curve" smooth="yes"/>
      <point x="471" y="145"/>
      <point x="451" y="159"/>
      <point x="448" y="227" type="curve"/>
      <point x="316" y="227" type="line"/>
      <point x="312" y="166"/>
      <point x="292" y="141"/>
      <point x="249" y="141" type="curve" smooth="yes"/>
      <point x="226" y="141"/>
      <point x="214" y="150"/>
      <point x="214" y="169" type="curve" smooth="yes"/>
      <point x="214" y="188"/>
      <point x="227" y="204"/>
      <point x="272" y="247" type="curve" smooth="yes"/>
      <point x="352" y="323"/>
      <point x="381" y="365"/>
      <point x="381" y="442" type="curve" smooth="yes"/>
      <point x="381" y="506"/>
      <point x="341" y="586"/>
      <point x="203" y="586" type="curve" smooth="yes"/>
      <point x="87" y="586"/>
      <point x="21" y="527"/>
      <point x="21" y="435" type="curve" smooth="yes"/>
      <point x="21" y="396"/>
      <point x="31" y="369"/>
      <point x="42" y="342" type="curve"/>
      <point x="184" y="380" type="line"/>
      <point x="180" y="392"/>
      <point x="176" y="407"/>
      <point x="176" y="423" type="curve" smooth="yes"/>
      <point x="176" y="445"/>
      <point x="185" y="457"/>
      <point x="201" y="457" type="curve" smooth="yes"/>
      <point x="215" y="457"/>
      <point x="224" y="449"/>
      <point x="224" y="429" type="curve" smooth="yes"/>
      <point x="224" y="408"/>
      <point x="212" y="389"/>
      <point x="161" y="346" type="curve" smooth="yes"/>
      <point x="70" y="268"/>
      <point x="48" y="218"/>
      <point x="48" y="154" type="curve" smooth="yes"/>
      <point x="48" y="59"/>
      <point x="104" y="-12"/>
      <point x="218" y="-12" type="curve" smooth="yes"/>
      <point x="305" y="-12"/>
      <point x="358" y="15"/>
      <point x="421" y="105" type="curve"/>
      <point x="348" y="106" type="line"/>
      <point x="393" y="21"/>
      <point x="440" y="-12"/>
    </contour>
    <contour>
      <point x="495" y="302" type="curve" smooth="yes"/>
      <point x="600" y="302"/>
      <point x="672" y="364"/>
      <point x="672" y="477" type="curve" smooth="yes"/>
      <point x="672" y="522"/>
      <point x="660" y="558"/>
      <point x="646" y="586" type="curve"/>
      <point x="502" y="551" type="line"/>
      <point x="512" y="530"/>
      <point x="517" y="507"/>
      <point x="517" y="487" type="curve" smooth="yes"/>
      <point x="517" y="451"/>
      <point x="497" y="432"/>
      <point x="464" y="432" type="curve" smooth="yes"/>
      <point x="421" y="432"/>
      <point x="385" y="468"/>
      <point x="354" y="522" type="curve"/>
      <point x="285" y="483" type="line"/>
      <point x="287" y="440" type="line"/>
      <point x="327" y="363"/>
      <point x="381" y="302"/>
    </contour>
  </outline>
</glyph>
<glyph name="jhaknda" format="2">
  <advance width="1175"/>
  <unicode hex="0C9D"/>
  <outline>
    <contour>
      <point x="283" y="-12" type="curve" smooth="yes"/>
      <point x="447" y="-12"/>
      <point x="533" y="85"/>
      <point x="533" y="246" type="curve" smooth="yes"/>
      <point x="533" y="371"/>
      <point x="487" y="428"/>
      <point x="435" y="470" type="curve"/>
      <point x="386" y="430" type="line"/>
      <point x="448" y="442"/>
      <point x="474" y="462"/>
      <point x="495" y="486" type="curve" smooth="yes"/>
      <point x="522" y="518"/>
      <point x="533" y="560"/>
      <point x="533" y="600" type="curve" smooth="yes"/>
      <point x="533" y="666"/>
      <point x="510" y="719"/>
      <point x="448" y="798" type="curve"/>
      <point x="328" y="719" type="line"/>
      <point x="357" y="686"/>
      <point x="376" y="654"/>
      <point x="376" y="620" type="curve" smooth="yes"/>
      <point x="376" y="604"/>
      <point x="371" y="593"/>
      <point x="363" y="586" type="curve" smooth="yes"/>
      <point x="352" y="577"/>
      <point x="335" y="574"/>
      <point x="288" y="574" type="curve" smooth="yes"/>
      <point x="33" y="574" type="line"/>
      <point x="33" y="423" type="line"/>
      <point x="164" y="423" type="line"/>
      <point x="147" y="472" type="line"/>
      <point x="77" y="423"/>
      <point x="33" y="368"/>
      <point x="33" y="245" type="curve" smooth="yes"/>
      <point x="33" y="85"/>
      <point x="119" y="-12"/>
    </contour>
    <contour>
      <point x="284" y="147" type="curve" smooth="yes"/>
      <point x="228" y="147"/>
      <point x="199" y="186"/>
      <point x="199" y="279" type="curve" smooth="yes"/>
      <point x="199" y="363"/>
      <point x="226" y="424"/>
      <point x="285" y="424" type="curve" smooth="yes"/>
      <point x="339" y="424"/>
      <point x="367" y="367"/>
      <point x="367" y="275" type="curve" smooth="yes"/>
      <point x="367" y="185"/>
      <point x="338" y="147"/>
    </contour>
    <contour>
      <point x="707" y="-144" type="line"/>
      <point x="870" y="-144" type="line"/>
      <point x="859" y="-2" type="line"/>
      <point x="718" y="-2" type="line"/>
    </contour>
    <contour>
      <point x="640" y="-12" type="curve" smooth="yes"/>
      <point x="775" y="-12"/>
      <point x="842" y="86"/>
      <point x="842" y="227" type="curve" smooth="yes"/>
      <point x="842" y="406"/>
      <point x="749" y="514"/>
      <point x="666" y="588" type="curve"/>
      <point x="547" y="468" type="line"/>
      <point x="605" y="417"/>
      <point x="676" y="341"/>
      <point x="676" y="234" type="curve" smooth="yes"/>
      <point x="676" y="175"/>
      <point x="650" y="145"/>
      <point x="608" y="145" type="curve" smooth="yes"/>
      <point x="560" y="145"/>
      <point x="532" y="170"/>
      <point x="491" y="222" type="curve"/>
      <point x="404" y="119" type="line"/>
      <point x="478" y="24"/>
      <point x="544" y="-12"/>
    </contour>
    <contour>
      <point x="943" y="-12" type="curve" smooth="yes"/>
      <point x="1078" y="-12"/>
      <point x="1145" y="86"/>
      <point x="1145" y="227" type="curve" smooth="yes"/>
      <point x="1145" y="406"/>
      <point x="1052" y="514"/>
      <point x="969" y="588" type="curve"/>
      <point x="850" y="468" type="line"/>
      <point x="908" y="417"/>
      <point x="979" y="341"/>
      <point x="979" y="234" type="curve" smooth="yes"/>
      <point x="979" y="175"/>
      <point x="953" y="145"/>
      <point x="911" y="145" type="curve" smooth="yes"/>
      <point x="863" y="145"/>
      <point x="835" y="170"/>
      <point x="794" y="222" type="curve"/>
      <point x="707" y="119" type="line"/>
      <point x="781" y="24"/>
      <point x="847" y="-12"/>
    </contour>
  </outline>
</glyph>
<glyph name="nyaknda" format="2">
  <advance width="923"/>
  <unicode hex="0C9E"/>
  <outline>
    <contour>
      <point x="328" y="-12" type="curve" smooth="yes"/>
      <point x="411" y="-12"/>
      <point x="470" y="10"/>
      <point x="525" y="67" type="curve"/>
      <point x="569" y="74" type="line"/>
      <point x="626" y="124"/>
      <point x="662" y="222"/>
      <point x="662" y="339" type="curve" smooth="yes"/>
      <point x="662" y="383"/>
      <point x="656" y="423"/>
      <point x="644" y="456" type="curve" smooth="yes"/>
      <point x="640" y="468"/>
      <point x="628" y="474"/>
      <point x="622" y="485" type="curve" smooth="yes"/>
      <point x="588" y="551"/>
      <point x="540" y="586"/>
      <point x="461" y="586" type="curve" smooth="yes"/>
      <point x="391" y="586"/>
      <point x="347" y="555"/>
      <point x="306" y="497" type="curve"/>
      <point x="344" y="496" type="line"/>
      <point x="307" y="550"/>
      <point x="275" y="586"/>
      <point x="189" y="586" type="curve" smooth="yes"/>
      <point x="85" y="586"/>
      <point x="21" y="512"/>
      <point x="21" y="415" type="curve" smooth="yes"/>
      <point x="21" y="372"/>
      <point x="32" y="328"/>
      <point x="42" y="302" type="curve"/>
      <point x="198" y="340" type="line"/>
      <point x="192" y="355"/>
      <point x="187" y="378"/>
      <point x="187" y="397" type="curve" smooth="yes"/>
      <point x="187" y="424"/>
      <point x="198" y="441"/>
      <point x="218" y="441" type="curve" smooth="yes"/>
      <point x="237" y="441"/>
      <point x="258" y="426"/>
      <point x="261" y="353" type="curve"/>
      <point x="391" y="353" type="line"/>
      <point x="395" y="417"/>
      <point x="417" y="432"/>
      <point x="442" y="432" type="curve" smooth="yes"/>
      <point x="478" y="432"/>
      <point x="496" y="398"/>
      <point x="496" y="335" type="curve" smooth="yes"/>
      <point x="496" y="227"/>
      <point x="433" y="124"/>
      <point x="337" y="124" type="curve" smooth="yes"/>
      <point x="300" y="124"/>
      <point x="286" y="137"/>
      <point x="286" y="157" type="curve" smooth="yes"/>
      <point x="286" y="174"/>
      <point x="297" y="188"/>
      <point x="329" y="188" type="curve" smooth="yes"/>
      <point x="411" y="188"/>
      <point x="473" y="84"/>
      <point x="490" y="-55" type="curve"/>
      <point x="655" y="-25" type="line"/>
      <point x="636" y="48"/>
      <point x="611" y="121"/>
      <point x="563" y="175" type="curve"/>
      <point x="496" y="267"/>
      <point x="429" y="316"/>
      <point x="320" y="316" type="curve" smooth="yes"/>
      <point x="194" y="316"/>
      <point x="133" y="248"/>
      <point x="133" y="160" type="curve" smooth="yes"/>
      <point x="133" y="48"/>
      <point x="205" y="-12"/>
    </contour>
    <contour>
      <point x="734" y="586" type="curve" smooth="yes"/>
      <point x="648" y="586"/>
      <point x="616" y="550"/>
      <point x="579" y="496" type="curve"/>
      <point x="661" y="342" type="line"/>
      <point x="663" y="426"/>
      <point x="686" y="441"/>
      <point x="705" y="441" type="curve" smooth="yes"/>
      <point x="725" y="441"/>
      <point x="736" y="424"/>
      <point x="736" y="397" type="curve" smooth="yes"/>
      <point x="736" y="378"/>
      <point x="731" y="355"/>
      <point x="725" y="340" type="curve"/>
      <point x="881" y="302" type="line"/>
      <point x="891" y="328"/>
      <point x="902" y="372"/>
      <point x="902" y="415" type="curve" smooth="yes"/>
      <point x="902" y="512"/>
      <point x="838" y="586"/>
    </contour>
  </outline>
</glyph>
<glyph name="ttaknda" format="2">
  <advance width="787"/>
  <unicode hex="0C9F"/>
  <outline>
    <contour>
      <point x="263" y="-12" type="curve" smooth="yes"/>
      <point x="354" y="-12"/>
      <point x="414" y="23"/>
      <point x="469" y="118" type="curve"/>
      <point x="392" y="106" type="line"/>
      <point x="444" y="6"/>
      <point x="505" y="-12"/>
      <point x="582" y="-12" type="curve" smooth="yes"/>
      <point x="700" y="-12"/>
      <point x="760" y="63"/>
      <point x="760" y="166" type="curve" smooth="yes"/>
      <point x="760" y="261"/>
      <point x="706" y="329"/>
      <point x="625" y="366" type="curve"/>
      <point x="518" y="281" type="line"/>
      <point x="553" y="273"/>
      <point x="594" y="241"/>
      <point x="594" y="193" type="curve" smooth="yes"/>
      <point x="594" y="164"/>
      <point x="580" y="144"/>
      <point x="549" y="144" type="curve" smooth="yes"/>
      <point x="513" y="144"/>
      <point x="494" y="167"/>
      <point x="492" y="227" type="curve"/>
      <point x="360" y="227" type="line"/>
      <point x="350" y="167"/>
      <point x="323" y="141"/>
      <point x="273" y="141" type="curve" smooth="yes"/>
      <point x="226" y="141"/>
      <point x="189" y="167"/>
      <point x="189" y="232" type="curve" smooth="yes"/>
      <point x="189" y="253" type="line" smooth="yes"/>
      <point x="189" y="360"/>
      <point x="214" y="388"/>
      <point x="236" y="388" type="curve" smooth="yes"/>
      <point x="251" y="388"/>
      <point x="259" y="376"/>
      <point x="259" y="353" type="curve" smooth="yes"/>
      <point x="259" y="335"/>
      <point x="252" y="316"/>
      <point x="227" y="316" type="curve" smooth="yes"/>
      <point x="203" y="316"/>
      <point x="187" y="324"/>
      <point x="164" y="340" type="curve"/>
      <point x="137" y="234" type="line"/>
      <point x="168" y="213"/>
      <point x="206" y="198"/>
      <point x="245" y="198" type="curve" smooth="yes"/>
      <point x="352" y="198"/>
      <point x="397" y="269"/>
      <point x="397" y="354" type="curve" smooth="yes"/>
      <point x="397" y="458"/>
      <point x="334" y="510"/>
      <point x="243" y="510" type="curve" smooth="yes"/>
      <point x="125" y="510"/>
      <point x="31" y="429"/>
      <point x="31" y="248" type="curve" smooth="yes"/>
      <point x="31" y="78"/>
      <point x="125" y="-12"/>
    </contour>
    <contour>
      <point x="179" y="429" type="curve"/>
      <point x="294" y="488" type="line"/>
      <point x="279" y="497"/>
      <point x="263" y="508"/>
      <point x="263" y="526" type="curve" smooth="yes"/>
      <point x="263" y="540"/>
      <point x="270" y="553"/>
      <point x="306" y="558" type="curve"/>
      <point x="294" y="700" type="line"/>
      <point x="150" y="696"/>
      <point x="99" y="627"/>
      <point x="99" y="560" type="curve" smooth="yes"/>
      <point x="99" y="513"/>
      <point x="121" y="459"/>
    </contour>
    <contour>
      <point x="494" y="278" type="line"/>
      <point x="543" y="278" type="line" smooth="yes"/>
      <point x="580" y="278"/>
      <point x="623" y="291"/>
      <point x="651" y="303" type="curve" smooth="yes"/>
      <point x="727" y="336"/>
      <point x="751" y="399"/>
      <point x="751" y="464" type="curve" smooth="yes"/>
      <point x="751" y="554"/>
      <point x="704" y="634"/>
      <point x="582" y="678" type="curve"/>
      <point x="513" y="530" type="line"/>
      <point x="556" y="511"/>
      <point x="585" y="491"/>
      <point x="585" y="460" type="curve" smooth="yes"/>
      <point x="585" y="444"/>
      <point x="581" y="432"/>
      <point x="572" y="424" type="curve" smooth="yes"/>
      <point x="562" y="416"/>
      <point x="547" y="412"/>
      <point x="517" y="412" type="curve" smooth="yes"/>
      <point x="494" y="412" type="line"/>
    </contour>
  </outline>
</glyph>
<glyph name="tthaknda" format="2">
  <advance width="585"/>
  <unicode hex="0CA0"/>
  <outline>
    <contour>
      <point x="292" y="-12" type="curve" smooth="yes"/>
      <point x="466" y="-12"/>
      <point x="552" y="85"/>
      <point x="552" y="246" type="curve" smooth="yes"/>
      <point x="552" y="371"/>
      <point x="506" y="428"/>
      <point x="454" y="470" type="curve"/>
      <point x="405" y="430" type="line"/>
      <point x="467" y="442"/>
      <point x="493" y="462"/>
      <point x="514" y="486" type="curve" smooth="yes"/>
      <point x="541" y="518"/>
      <point x="552" y="560"/>
      <point x="552" y="600" type="curve" smooth="yes"/>
      <point x="552" y="666"/>
      <point x="529" y="719"/>
      <point x="467" y="798" type="curve"/>
      <point x="347" y="719" type="line"/>
      <point x="376" y="686"/>
      <point x="395" y="654"/>
      <point x="395" y="620" type="curve" smooth="yes"/>
      <point x="395" y="604"/>
      <point x="390" y="593"/>
      <point x="382" y="586" type="curve" smooth="yes"/>
      <point x="371" y="577"/>
      <point x="354" y="574"/>
      <point x="307" y="574" type="curve" smooth="yes"/>
      <point x="33" y="574" type="line"/>
      <point x="33" y="423" type="line"/>
      <point x="174" y="423" type="line"/>
      <point x="150" y="472" type="line"/>
      <point x="77" y="423"/>
      <point x="33" y="368"/>
      <point x="33" y="245" type="curve" smooth="yes"/>
      <point x="33" y="85"/>
      <point x="119" y="-12"/>
    </contour>
    <contour>
      <point x="294" y="147" type="curve" smooth="yes"/>
      <point x="232" y="147"/>
      <point x="199" y="186"/>
      <point x="199" y="279" type="curve" smooth="yes"/>
      <point x="199" y="363"/>
      <point x="228" y="424"/>
      <point x="295" y="424" type="curve" smooth="yes"/>
      <point x="355" y="424"/>
      <point x="386" y="367"/>
      <point x="386" y="275" type="curve" smooth="yes"/>
      <point x="386" y="185"/>
      <point x="353" y="147"/>
    </contour>
    <contour>
      <point x="292" y="215" type="curve" smooth="yes"/>
      <point x="339" y="215"/>
      <point x="364" y="244"/>
      <point x="364" y="286" type="curve" smooth="yes"/>
      <point x="364" y="332"/>
      <point x="336" y="357"/>
      <point x="292" y="357" type="curve" smooth="yes"/>
      <point x="247" y="357"/>
      <point x="220" y="330"/>
      <point x="220" y="286" type="curve" smooth="yes"/>
      <point x="220" y="245"/>
      <point x="244" y="215"/>
    </contour>
  </outline>
</glyph>
<glyph name="ddaknda" format="2">
  <advance width="713"/>
  <unicode hex="0CA1"/>
  <outline>
    <contour>
      <point x="204" y="-12" type="curve" smooth="yes"/>
      <point x="287" y="-12"/>
      <point x="319" y="19"/>
      <point x="384" y="112" type="curve"/>
      <point x="305" y="105" type="line"/>
      <point x="347" y="32"/>
      <point x="394" y="-12"/>
      <point x="497" y="-12" type="curve" smooth="yes"/>
      <point x="618" y="-12"/>
      <point x="683" y="56"/>
      <point x="683" y="173" type="curve" smooth="yes"/>
      <point x="683" y="272"/>
      <point x="641" y="327"/>
      <point x="585" y="364" type="curve"/>
      <point x="570" y="380"/>
      <point x="522" y="401"/>
      <point x="487" y="401" type="curve" smooth="yes"/>
      <point x="418" y="401"/>
      <point x="365" y="364"/>
      <point x="365" y="294" type="curve" smooth="yes"/>
      <point x="365" y="212"/>
      <point x="427" y="181"/>
      <point x="491" y="181" type="curve" smooth="yes"/>
      <point x="546" y="181"/>
      <point x="578" y="202"/>
      <point x="618" y="238" type="curve"/>
      <point x="627" y="248"/>
      <point x="651" y="248"/>
      <point x="656" y="257" type="curve"/>
      <point x="663" y="273"/>
      <point x="667" y="305"/>
      <point x="667" y="322" type="curve" smooth="yes"/>
      <point x="667" y="413"/>
      <point x="618" y="469"/>
      <point x="535" y="487" type="curve"/>
      <point x="526" y="428" type="line"/>
      <point x="567" y="434"/>
      <point x="612" y="447"/>
      <point x="645" y="486" type="curve" smooth="yes"/>
      <point x="672" y="518"/>
      <point x="683" y="560"/>
      <point x="683" y="600" type="curve" smooth="yes"/>
      <point x="683" y="667"/>
      <point x="660" y="719"/>
      <point x="598" y="798" type="curve"/>
      <point x="478" y="719" type="line"/>
      <point x="507" y="686"/>
      <point x="526" y="654"/>
      <point x="526" y="620" type="curve" smooth="yes"/>
      <point x="526" y="604"/>
      <point x="521" y="593"/>
      <point x="513" y="586" type="curve" smooth="yes"/>
      <point x="502" y="577"/>
      <point x="485" y="574"/>
      <point x="438" y="574" type="curve" smooth="yes"/>
      <point x="33" y="574" type="line"/>
      <point x="33" y="423" type="line"/>
      <point x="167" y="423" type="line"/>
      <point x="151" y="456" type="line"/>
      <point x="74" y="397"/>
      <point x="33" y="318"/>
      <point x="33" y="198" type="curve" smooth="yes"/>
      <point x="33" y="70"/>
      <point x="94" y="-12"/>
    </contour>
    <contour>
      <point x="233" y="145" type="curve" smooth="yes"/>
      <point x="211" y="145"/>
      <point x="199" y="164"/>
      <point x="199" y="219" type="curve" smooth="yes"/>
      <point x="199" y="332"/>
      <point x="248" y="423"/>
      <point x="347" y="423" type="curve" smooth="yes"/>
      <point x="398" y="423" type="line" smooth="yes"/>
      <point x="486" y="423"/>
      <point x="526" y="387"/>
      <point x="526" y="330" type="curve" smooth="yes"/>
      <point x="526" y="291"/>
      <point x="514" y="275"/>
      <point x="494" y="275" type="curve" smooth="yes"/>
      <point x="480" y="275"/>
      <point x="469" y="281"/>
      <point x="469" y="297" type="curve" smooth="yes"/>
      <point x="469" y="311"/>
      <point x="478" y="317"/>
      <point x="489" y="317" type="curve" smooth="yes"/>
      <point x="516" y="317"/>
      <point x="529" y="277"/>
      <point x="529" y="225" type="curve" smooth="yes"/>
      <point x="529" y="171"/>
      <point x="508" y="141"/>
      <point x="466" y="141" type="curve" smooth="yes"/>
      <point x="429" y="141"/>
      <point x="410" y="161"/>
      <point x="405" y="206" type="curve"/>
      <point x="273" y="206" type="line"/>
      <point x="267" y="166"/>
      <point x="257" y="145"/>
    </contour>
  </outline>
</glyph>
<glyph name="nnaknda" format="2">
  <advance width="807"/>
  <unicode hex="0CA3"/>
  <outline>
    <contour>
      <point x="531" y="-12" type="curve" smooth="yes"/>
      <point x="711" y="-12"/>
      <point x="775" y="115"/>
      <point x="775" y="274" type="curve" smooth="yes"/>
      <point x="775" y="445"/>
      <point x="702" y="586"/>
      <point x="536" y="586" type="curve" smooth="yes"/>
      <point x="429" y="586"/>
      <point x="370" y="535"/>
      <point x="325" y="461" type="curve"/>
      <point x="395" y="468" type="line"/>
      <point x="361" y="541"/>
      <point x="301" y="586"/>
      <point x="211" y="586" type="curve" smooth="yes"/>
      <point x="85" y="586"/>
      <point x="24" y="507"/>
      <point x="24" y="418" type="curve" smooth="yes"/>
      <point x="24" y="320"/>
      <point x="89" y="265"/>
      <point x="168" y="238" type="curve"/>
      <point x="178" y="297" type="line"/>
      <point x="66" y="276"/>
      <point x="23" y="207"/>
      <point x="23" y="141" type="curve" smooth="yes"/>
      <point x="23" y="50"/>
      <point x="76" y="-12"/>
      <point x="200" y="-12" type="curve" smooth="yes"/>
      <point x="256" y="-12"/>
      <point x="308" y="-2"/>
      <point x="361" y="30" type="curve"/>
      <point x="295" y="153" type="line"/>
      <point x="273" y="138"/>
      <point x="254" y="132"/>
      <point x="229" y="132" type="curve" smooth="yes"/>
      <point x="205" y="132"/>
      <point x="191" y="145"/>
      <point x="191" y="164" type="curve" smooth="yes"/>
      <point x="191" y="176"/>
      <point x="195" y="185"/>
      <point x="203" y="192" type="curve" smooth="yes"/>
      <point x="215" y="203"/>
      <point x="235" y="207"/>
      <point x="266" y="207" type="curve" smooth="yes"/>
      <point x="269" y="207" type="line"/>
      <point x="269" y="337" type="line"/>
      <point x="266" y="337" type="line" smooth="yes"/>
      <point x="243" y="337"/>
      <point x="225" y="340"/>
      <point x="212" y="350" type="curve" smooth="yes"/>
      <point x="201" y="358"/>
      <point x="193" y="370"/>
      <point x="193" y="388" type="curve" smooth="yes"/>
      <point x="193" y="412"/>
      <point x="208" y="431"/>
      <point x="238" y="431" type="curve" smooth="yes"/>
      <point x="280" y="431"/>
      <point x="296" y="397"/>
      <point x="299" y="344" type="curve"/>
      <point x="429" y="344" type="line"/>
      <point x="441" y="396"/>
      <point x="467" y="434"/>
      <point x="518" y="434" type="curve" smooth="yes"/>
      <point x="586" y="434"/>
      <point x="611" y="354"/>
      <point x="611" y="276" type="curve" smooth="yes"/>
      <point x="611" y="266" type="line" smooth="yes"/>
      <point x="611" y="175"/>
      <point x="588" y="124"/>
      <point x="529" y="124" type="curve" smooth="yes"/>
      <point x="489" y="124"/>
      <point x="472" y="148"/>
      <point x="472" y="172" type="curve" smooth="yes"/>
      <point x="472" y="189"/>
      <point x="478" y="197"/>
      <point x="486" y="197" type="curve" smooth="yes"/>
      <point x="492" y="197"/>
      <point x="497" y="192"/>
      <point x="497" y="178" type="curve" smooth="yes"/>
      <point x="497" y="172"/>
      <point x="497" y="169"/>
      <point x="496" y="164" type="curve"/>
      <point x="585" y="160" type="line"/>
      <point x="589" y="175"/>
      <point x="593" y="190"/>
      <point x="593" y="209" type="curve" smooth="yes"/>
      <point x="593" y="277"/>
      <point x="560" y="323"/>
      <point x="482" y="323" type="curve" smooth="yes"/>
      <point x="405" y="323"/>
      <point x="348" y="268"/>
      <point x="348" y="170" type="curve" smooth="yes"/>
      <point x="348" y="57"/>
      <point x="413" y="-12"/>
    </contour>
  </outline>
</glyph>
<glyph name="taknda" format="2">
  <advance width="618"/>
  <unicode hex="0CA4"/>
  <outline>
    <contour>
      <point x="318" y="-12" type="curve" smooth="yes"/>
      <point x="484" y="-12"/>
      <point x="587" y="52"/>
      <point x="587" y="193" type="curve" smooth="yes"/>
      <point x="587" y="285"/>
      <point x="543" y="352"/>
      <point x="462" y="382" type="curve" smooth="yes"/>
      <point x="455" y="385"/>
      <point x="460" y="354"/>
      <point x="453" y="358" type="curve" smooth="yes"/>
      <point x="411" y="385"/>
      <point x="385" y="395"/>
      <point x="350" y="395" type="curve" smooth="yes"/>
      <point x="246" y="395"/>
      <point x="213" y="338"/>
      <point x="213" y="282" type="curve" smooth="yes"/>
      <point x="213" y="215"/>
      <point x="253" y="167"/>
      <point x="347" y="167" type="curve" smooth="yes"/>
      <point x="445" y="167"/>
      <point x="477" y="235"/>
      <point x="508" y="296" type="curve"/>
      <point x="546" y="307" type="line"/>
      <point x="548" y="313"/>
      <point x="549" y="329"/>
      <point x="549" y="336" type="curve" smooth="yes"/>
      <point x="549" y="398"/>
      <point x="515" y="453"/>
      <point x="457" y="495" type="curve"/>
      <point x="342" y="436" type="line"/>
      <point x="382" y="411"/>
      <point x="408" y="385"/>
      <point x="408" y="322" type="curve" smooth="yes"/>
      <point x="408" y="284"/>
      <point x="389" y="265"/>
      <point x="372" y="265" type="curve" smooth="yes"/>
      <point x="358" y="265"/>
      <point x="350" y="272"/>
      <point x="350" y="287" type="curve" smooth="yes"/>
      <point x="350" y="297"/>
      <point x="357" y="307"/>
      <point x="375" y="307" type="curve" smooth="yes"/>
      <point x="384" y="307"/>
      <point x="398" y="303"/>
      <point x="410" y="292" type="curve"/>
      <point x="412" y="289"/>
      <point x="415" y="284"/>
      <point x="416" y="279" type="curve"/>
      <point x="424" y="269"/>
      <point x="441" y="239"/>
      <point x="441" y="223" type="curve" smooth="yes"/>
      <point x="441" y="164"/>
      <point x="405" y="131"/>
      <point x="320" y="131" type="curve" smooth="yes"/>
      <point x="207" y="131"/>
      <point x="194" y="191"/>
      <point x="194" y="224" type="curve" smooth="yes"/>
      <point x="194" y="241"/>
      <point x="196" y="251"/>
      <point x="197" y="258" type="curve"/>
      <point x="39" y="277" type="line"/>
      <point x="33" y="253"/>
      <point x="31" y="232"/>
      <point x="31" y="207" type="curve" smooth="yes"/>
      <point x="31" y="90"/>
      <point x="95" y="-12"/>
    </contour>
    <contour>
      <point x="28" y="423" type="line"/>
      <point x="351" y="423" type="line" smooth="yes"/>
      <point x="464" y="423"/>
      <point x="512" y="447"/>
      <point x="545" y="486" type="curve" smooth="yes"/>
      <point x="572" y="518"/>
      <point x="583" y="560"/>
      <point x="583" y="600" type="curve" smooth="yes"/>
      <point x="583" y="667"/>
      <point x="560" y="719"/>
      <point x="498" y="798" type="curve"/>
      <point x="378" y="719" type="line"/>
      <point x="407" y="686"/>
      <point x="426" y="654"/>
      <point x="426" y="620" type="curve" smooth="yes"/>
      <point x="426" y="604"/>
      <point x="421" y="593"/>
      <point x="413" y="586" type="curve" smooth="yes"/>
      <point x="402" y="577"/>
      <point x="385" y="574"/>
      <point x="338" y="574" type="curve" smooth="yes"/>
      <point x="28" y="574" type="line"/>
    </contour>
  </outline>
</glyph>
<glyph name="thaknda" format="2">
  <advance width="682"/>
  <unicode hex="0CA5"/>
  <outline>
    <contour>
      <point x="205" y="-12" type="curve" smooth="yes"/>
      <point x="288" y="-12"/>
      <point x="321" y="19"/>
      <point x="386" y="112" type="curve"/>
      <point x="307" y="105" type="line"/>
      <point x="353" y="27"/>
      <point x="390" y="-12"/>
      <point x="477" y="-12" type="curve" smooth="yes"/>
      <point x="589" y="-12"/>
      <point x="649" y="69"/>
      <point x="649" y="198" type="curve" smooth="yes"/>
      <point x="649" y="316"/>
      <point x="610" y="393"/>
      <point x="549" y="457" type="curve"/>
      <point x="492" y="428" type="line"/>
      <point x="533" y="434"/>
      <point x="578" y="447"/>
      <point x="611" y="486" type="curve" smooth="yes"/>
      <point x="638" y="518"/>
      <point x="649" y="560"/>
      <point x="649" y="600" type="curve" smooth="yes"/>
      <point x="649" y="667"/>
      <point x="626" y="719"/>
      <point x="564" y="798" type="curve"/>
      <point x="444" y="719" type="line"/>
      <point x="473" y="686"/>
      <point x="492" y="654"/>
      <point x="492" y="620" type="curve" smooth="yes"/>
      <point x="492" y="604"/>
      <point x="487" y="593"/>
      <point x="479" y="586" type="curve" smooth="yes"/>
      <point x="468" y="577"/>
      <point x="451" y="574"/>
      <point x="404" y="574" type="curve" smooth="yes"/>
      <point x="33" y="574" type="line"/>
      <point x="33" y="423" type="line"/>
      <point x="167" y="423" type="line"/>
      <point x="147" y="456" type="line"/>
      <point x="73" y="397"/>
      <point x="33" y="318"/>
      <point x="33" y="198" type="curve" smooth="yes"/>
      <point x="33" y="70"/>
      <point x="94" y="-12"/>
    </contour>
    <contour>
      <point x="234" y="145" type="curve" smooth="yes"/>
      <point x="211" y="145"/>
      <point x="199" y="164"/>
      <point x="199" y="219" type="curve" smooth="yes"/>
      <point x="199" y="332"/>
      <point x="249" y="423"/>
      <point x="332" y="423" type="curve" smooth="yes"/>
      <point x="349" y="423" type="line" smooth="yes"/>
      <point x="439" y="423"/>
      <point x="483" y="332"/>
      <point x="483" y="219" type="curve" smooth="yes"/>
      <point x="483" y="164"/>
      <point x="471" y="145"/>
      <point x="449" y="145" type="curve" smooth="yes"/>
      <point x="428" y="145"/>
      <point x="410" y="157"/>
      <point x="407" y="219" type="curve"/>
      <point x="275" y="219" type="line"/>
      <point x="271" y="166"/>
      <point x="259" y="145"/>
    </contour>
    <contour>
      <point x="342" y="234" type="curve" smooth="yes"/>
      <point x="391" y="234"/>
      <point x="418" y="265"/>
      <point x="418" y="309" type="curve" smooth="yes"/>
      <point x="418" y="357"/>
      <point x="388" y="384"/>
      <point x="342" y="384" type="curve" smooth="yes"/>
      <point x="295" y="384"/>
      <point x="266" y="355"/>
      <point x="266" y="309" type="curve" smooth="yes"/>
      <point x="266" y="266"/>
      <point x="292" y="234"/>
    </contour>
    <contour>
      <point x="260" y="-144" type="line"/>
      <point x="423" y="-144" type="line"/>
      <point x="412" y="-2" type="line"/>
      <point x="271" y="-2" type="line"/>
    </contour>
  </outline>
</glyph>
<glyph name="daknda" format="2">
  <advance width="678"/>
  <unicode hex="0CA6"/>
  <outline>
    <contour>
      <point x="204" y="-12" type="curve" smooth="yes"/>
      <point x="287" y="-12"/>
      <point x="319" y="19"/>
      <point x="384" y="112" type="curve"/>
      <point x="305" y="105" type="line"/>
      <point x="351" y="27"/>
      <point x="387" y="-12"/>
      <point x="474" y="-12" type="curve" smooth="yes"/>
      <point x="585" y="-12"/>
      <point x="645" y="69"/>
      <point x="645" y="198" type="curve" smooth="yes"/>
      <point x="645" y="316"/>
      <point x="607" y="393"/>
      <point x="546" y="457" type="curve"/>
      <point x="488" y="428" type="line"/>
      <point x="529" y="434"/>
      <point x="574" y="447"/>
      <point x="607" y="486" type="curve" smooth="yes"/>
      <point x="634" y="518"/>
      <point x="645" y="560"/>
      <point x="645" y="600" type="curve" smooth="yes"/>
      <point x="645" y="667"/>
      <point x="622" y="719"/>
      <point x="560" y="798" type="curve"/>
      <point x="440" y="719" type="line"/>
      <point x="469" y="686"/>
      <point x="488" y="654"/>
      <point x="488" y="620" type="curve" smooth="yes"/>
      <point x="488" y="604"/>
      <point x="483" y="593"/>
      <point x="475" y="586" type="curve" smooth="yes"/>
      <point x="464" y="577"/>
      <point x="447" y="574"/>
      <point x="400" y="574" type="curve" smooth="yes"/>
      <point x="33" y="574" type="line"/>
      <point x="33" y="423" type="line"/>
      <point x="167" y="423" type="line"/>
      <point x="147" y="456" type="line"/>
      <point x="73" y="397"/>
      <point x="33" y="318"/>
      <point x="33" y="198" type="curve" smooth="yes"/>
      <point x="33" y="70"/>
      <point x="94" y="-12"/>
    </contour>
    <contour>
      <point x="233" y="145" type="curve" smooth="yes"/>
      <point x="211" y="145"/>
      <point x="199" y="164"/>
      <point x="199" y="219" type="curve" smooth="yes"/>
      <point x="199" y="332"/>
      <point x="248" y="423"/>
      <point x="331" y="423" type="curve" smooth="yes"/>
      <point x="346" y="423" type="line" smooth="yes"/>
      <point x="436" y="423"/>
      <point x="479" y="332"/>
      <point x="479" y="219" type="curve" smooth="yes"/>
      <point x="479" y="164"/>
      <point x="467" y="145"/>
      <point x="446" y="145" type="curve" smooth="yes"/>
      <point x="426" y="145"/>
      <point x="408" y="159"/>
      <point x="405" y="227" type="curve"/>
      <point x="273" y="227" type="line"/>
      <point x="269" y="168"/>
      <point x="257" y="145"/>
    </contour>
  </outline>
</glyph>
<glyph name="naknda" format="2">
  <advance width="642"/>
  <unicode hex="0CA8"/>
  <outline>
    <contour>
      <point x="432" y="-12" type="curve" smooth="yes"/>
      <point x="544" y="-12"/>
      <point x="609" y="53"/>
      <point x="609" y="196" type="curve" smooth="yes"/>
      <point x="609" y="317"/>
      <point x="551" y="401"/>
      <point x="471" y="456" type="curve"/>
      <point x="349" y="423" type="line"/>
      <point x="377" y="423" type="line"/>
      <point x="490" y="423"/>
      <point x="538" y="447"/>
      <point x="571" y="486" type="curve" smooth="yes"/>
      <point x="598" y="518"/>
      <point x="609" y="560"/>
      <point x="609" y="600" type="curve" smooth="yes"/>
      <point x="609" y="667"/>
      <point x="586" y="719"/>
      <point x="524" y="798" type="curve"/>
      <point x="404" y="719" type="line"/>
      <point x="433" y="686"/>
      <point x="452" y="654"/>
      <point x="452" y="620" type="curve" smooth="yes"/>
      <point x="452" y="604"/>
      <point x="447" y="593"/>
      <point x="439" y="586" type="curve" smooth="yes"/>
      <point x="428" y="577"/>
      <point x="411" y="574"/>
      <point x="364" y="574" type="curve" smooth="yes"/>
      <point x="27" y="574" type="line"/>
      <point x="27" y="423" type="line"/>
      <point x="305" y="423" type="line"/>
      <point x="383" y="380"/>
      <point x="443" y="286"/>
      <point x="443" y="201" type="curve" smooth="yes"/>
      <point x="443" y="166"/>
      <point x="435" y="145"/>
      <point x="413" y="145" type="curve" smooth="yes"/>
      <point x="393" y="145"/>
      <point x="383" y="154"/>
      <point x="353" y="210" type="curve" smooth="yes"/>
      <point x="311" y="289"/>
      <point x="257" y="313"/>
      <point x="194" y="313" type="curve" smooth="yes"/>
      <point x="79" y="313"/>
      <point x="26" y="236"/>
      <point x="26" y="141" type="curve" smooth="yes"/>
      <point x="26" y="78"/>
      <point x="47" y="22"/>
      <point x="72" y="-23" type="curve"/>
      <point x="222" y="35" type="line"/>
      <point x="206" y="68"/>
      <point x="192" y="101"/>
      <point x="192" y="133" type="curve" smooth="yes"/>
      <point x="192" y="150"/>
      <point x="197" y="162"/>
      <point x="209" y="162" type="curve" smooth="yes"/>
      <point x="219" y="162"/>
      <point x="228" y="153"/>
      <point x="245" y="118" type="curve" smooth="yes"/>
      <point x="297" y="12"/>
      <point x="351" y="-12"/>
    </contour>
  </outline>
</glyph>
<glyph name="paknda" format="2">
  <advance width="749"/>
  <unicode hex="0CAA"/>
  <outline>
    <contour>
      <point x="229" y="-12" type="curve" smooth="yes"/>
      <point x="325" y="-12"/>
      <point x="372" y="12"/>
      <point x="433" y="90" type="curve"/>
      <point x="377" y="105" type="line"/>
      <point x="423" y="27"/>
      <point x="459" y="-12"/>
      <point x="546" y="-12" type="curve" smooth="yes"/>
      <point x="649" y="-12"/>
      <point x="717" y="45"/>
      <point x="717" y="183" type="curve" smooth="yes"/>
      <point x="717" y="260"/>
      <point x="698" y="331"/>
      <point x="654" y="401" type="curve"/>
      <point x="500" y="345" type="line"/>
      <point x="526" y="306"/>
      <point x="551" y="248"/>
      <point x="551" y="197" type="curve" smooth="yes"/>
      <point x="551" y="169"/>
      <point x="544" y="145"/>
      <point x="518" y="145" type="curve" smooth="yes"/>
      <point x="498" y="145"/>
      <point x="479" y="161"/>
      <point x="477" y="224" type="curve"/>
      <point x="345" y="224" type="line"/>
      <point x="334" y="166"/>
      <point x="302" y="140"/>
      <point x="244" y="140" type="curve" smooth="yes"/>
      <point x="189" y="140"/>
      <point x="163" y="160"/>
      <point x="163" y="197" type="curve" smooth="yes"/>
      <point x="163" y="221"/>
      <point x="172" y="229"/>
      <point x="182" y="229" type="curve" smooth="yes"/>
      <point x="194" y="229"/>
      <point x="199" y="214"/>
      <point x="199" y="203" type="curve" smooth="yes"/>
      <point x="199" y="194"/>
      <point x="198" y="189"/>
      <point x="197" y="185" type="curve"/>
      <point x="306" y="179" type="line"/>
      <point x="311" y="194"/>
      <point x="315" y="220"/>
      <point x="315" y="241" type="curve" smooth="yes"/>
      <point x="315" y="308"/>
      <point x="271" y="355"/>
      <point x="186" y="355" type="curve" smooth="yes"/>
      <point x="83" y="355"/>
      <point x="26" y="284"/>
      <point x="26" y="183" type="curve" smooth="yes"/>
      <point x="26" y="70"/>
      <point x="97" y="-12"/>
    </contour>
    <contour>
      <point x="402" y="255" type="curve" smooth="yes"/>
      <point x="451" y="255"/>
      <point x="478" y="286"/>
      <point x="478" y="330" type="curve" smooth="yes"/>
      <point x="478" y="378"/>
      <point x="448" y="405"/>
      <point x="402" y="405" type="curve" smooth="yes"/>
      <point x="355" y="405"/>
      <point x="326" y="376"/>
      <point x="326" y="330" type="curve" smooth="yes"/>
      <point x="326" y="287"/>
      <point x="352" y="255"/>
    </contour>
    <contour>
      <point x="28" y="423" type="line"/>
      <point x="485" y="423" type="line" smooth="yes"/>
      <point x="598" y="423"/>
      <point x="646" y="447"/>
      <point x="679" y="486" type="curve" smooth="yes"/>
      <point x="706" y="518"/>
      <point x="717" y="560"/>
      <point x="717" y="600" type="curve" smooth="yes"/>
      <point x="717" y="667"/>
      <point x="694" y="719"/>
      <point x="632" y="798" type="curve"/>
      <point x="512" y="719" type="line"/>
      <point x="541" y="686"/>
      <point x="560" y="654"/>
      <point x="560" y="620" type="curve" smooth="yes"/>
      <point x="560" y="604"/>
      <point x="555" y="593"/>
      <point x="547" y="586" type="curve" smooth="yes"/>
      <point x="536" y="577"/>
      <point x="519" y="574"/>
      <point x="472" y="574" type="curve" smooth="yes"/>
      <point x="28" y="574" type="line"/>
    </contour>
  </outline>
</glyph>
<glyph name="baknda" format="2">
  <advance width="759"/>
  <unicode hex="0CAC"/>
  <outline>
    <contour>
      <point x="530" y="-12" type="curve" smooth="yes"/>
      <point x="663" y="-12"/>
      <point x="729" y="86"/>
      <point x="729" y="227" type="curve" smooth="yes"/>
      <point x="729" y="406"/>
      <point x="636" y="514"/>
      <point x="553" y="588" type="curve"/>
      <point x="434" y="468" type="line"/>
      <point x="492" y="417"/>
      <point x="563" y="340"/>
      <point x="563" y="234" type="curve" smooth="yes"/>
      <point x="563" y="169"/>
      <point x="534" y="145"/>
      <point x="504" y="145" type="curve" smooth="yes"/>
      <point x="471" y="145"/>
      <point x="451" y="159"/>
      <point x="448" y="227" type="curve"/>
      <point x="316" y="227" type="line"/>
      <point x="312" y="166"/>
      <point x="292" y="141"/>
      <point x="249" y="141" type="curve" smooth="yes"/>
      <point x="226" y="141"/>
      <point x="214" y="150"/>
      <point x="214" y="169" type="curve" smooth="yes"/>
      <point x="214" y="188"/>
      <point x="227" y="204"/>
      <point x="272" y="247" type="curve" smooth="yes"/>
      <point x="352" y="323"/>
      <point x="384" y="365"/>
      <point x="384" y="442" type="curve" smooth="yes"/>
      <point x="384" y="506"/>
      <point x="339" y="586"/>
      <point x="203" y="586" type="curve" smooth="yes"/>
      <point x="87" y="586"/>
      <point x="21" y="527"/>
      <point x="21" y="435" type="curve" smooth="yes"/>
      <point x="21" y="396"/>
      <point x="31" y="369"/>
      <point x="42" y="342" type="curve"/>
      <point x="184" y="380" type="line"/>
      <point x="180" y="392"/>
      <point x="176" y="407"/>
      <point x="176" y="423" type="curve" smooth="yes"/>
      <point x="176" y="445"/>
      <point x="185" y="457"/>
      <point x="201" y="457" type="curve" smooth="yes"/>
      <point x="215" y="457"/>
      <point x="224" y="449"/>
      <point x="224" y="429" type="curve" smooth="yes"/>
      <point x="224" y="408"/>
      <point x="212" y="389"/>
      <point x="161" y="346" type="curve" smooth="yes"/>
      <point x="70" y="268"/>
      <point x="48" y="218"/>
      <point x="48" y="154" type="curve" smooth="yes"/>
      <point x="48" y="59"/>
      <point x="104" y="-12"/>
      <point x="218" y="-12" type="curve" smooth="yes"/>
      <point x="305" y="-12"/>
      <point x="358" y="15"/>
      <point x="421" y="105" type="curve"/>
      <point x="348" y="106" type="line"/>
      <point x="393" y="21"/>
      <point x="440" y="-12"/>
    </contour>
  </outline>
</glyph>
<glyph name="raknda" format="2">
  <advance width="566"/>
  <unicode hex="0CB0"/>
  <outline>
    <contour>
      <point x="283" y="-12" type="curve" smooth="yes"/>
      <point x="447" y="-12"/>
      <point x="533" y="85"/>
      <point x="533" y="246" type="curve" smooth="yes"/>
      <point x="533" y="371"/>
      <point x="487" y="428"/>
      <point x="435" y="470" type="curve"/>
      <point x="386" y="430" type="line"/>
      <point x="448" y="442"/>
      <point x="474" y="462"/>
      <point x="495" y="486" type="curve" smooth="yes"/>
      <point x="522" y="518"/>
      <point x="533" y="560"/>
      <point x="533" y="600" type="curve" smooth="yes"/>
      <point x="533" y="666"/>
      <point x="510" y="719"/>
      <point x="448" y="798" type="curve"/>
      <point x="328" y="719" type="line"/>
      <point x="357" y="686"/>
      <point x="376" y="654"/>
      <point x="376" y="620" type="curve" smooth="yes"/>
      <point x="376" y="604"/>
      <point x="371" y="593"/>
      <point x="363" y="586" type="curve" smooth="yes"/>
      <point x="352" y="577"/>
      <point x="335" y="574"/>
      <point x="288" y="574" type="curve" smooth="yes"/>
      <point x="33" y="574" type="line"/>
      <point x="33" y="423" type="line"/>
      <point x="164" y="423" type="line"/>
      <point x="147" y="472" type="line"/>
      <point x="77" y="423"/>
      <point x="33" y="368"/>
      <point x="33" y="245" type="curve" smooth="yes"/>
      <point x="33" y="85"/>
      <point x="119" y="-12"/>
    </contour>
    <contour>
      <point x="284" y="147" type="curve" smooth="yes"/>
      <point x="228" y="147"/>
      <point x="199" y="186"/>
      <point x="199" y="279" type="curve" smooth="yes"/>
      <point x="199" y="363"/>
      <point x="226" y="424"/>
      <point x="285" y="424" type="curve" smooth="yes"/>
      <point x="339" y="424"/>
      <point x="367" y="367"/>
      <point x="367" y="275" type="curve" smooth="yes"/>
      <point x="367" y="185"/>
      <point x="338" y="147"/>
    </contour>
  </outline>
</glyph>
<glyph name="rraknda" format="2">
  <advance width="863"/>
  <unicode hex="0CB1"/>
  <outline>
    <contour>
      <point x="271" y="-12" type="curve" smooth="yes"/>
      <point x="378" y="-12"/>
      <point x="415" y="31"/>
      <point x="474" y="118" type="curve"/>
      <point x="388" y="118" type="line"/>
      <point x="447" y="31"/>
      <point x="484" y="-12"/>
      <point x="591" y="-12" type="curve" smooth="yes"/>
      <point x="738" y="-12"/>
      <point x="831" y="95"/>
      <point x="831" y="280" type="curve" smooth="yes"/>
      <point x="831" y="484"/>
      <point x="741" y="586"/>
      <point x="612" y="586" type="curve" smooth="yes"/>
      <point x="503" y="586"/>
      <point x="451" y="515"/>
      <point x="451" y="415" type="curve" smooth="yes"/>
      <point x="451" y="367"/>
      <point x="471" y="328"/>
      <point x="492" y="306" type="curve"/>
      <point x="518" y="270"/>
      <point x="549" y="245"/>
      <point x="608" y="245" type="curve" smooth="yes"/>
      <point x="654" y="245"/>
      <point x="709" y="264"/>
      <point x="752" y="297" type="curve"/>
      <point x="711" y="414" type="line"/>
      <point x="690" y="389"/>
      <point x="663" y="368"/>
      <point x="633" y="368" type="curve" smooth="yes"/>
      <point x="603" y="368"/>
      <point x="586" y="384"/>
      <point x="586" y="418" type="curve" smooth="yes"/>
      <point x="586" y="446"/>
      <point x="597" y="461"/>
      <point x="616" y="461" type="curve" smooth="yes"/>
      <point x="646" y="461"/>
      <point x="672" y="423"/>
      <point x="672" y="276" type="curve" smooth="yes"/>
      <point x="672" y="189"/>
      <point x="646" y="145"/>
      <point x="586" y="145" type="curve" smooth="yes"/>
      <point x="532" y="145"/>
      <point x="506" y="172"/>
      <point x="497" y="227" type="curve"/>
      <point x="365" y="227" type="line"/>
      <point x="356" y="172"/>
      <point x="330" y="145"/>
      <point x="275" y="145" type="curve" smooth="yes"/>
      <point x="218" y="145"/>
      <point x="191" y="189"/>
      <point x="191" y="275" type="curve" smooth="yes"/>
      <point x="191" y="423"/>
      <point x="217" y="461"/>
      <point x="247" y="461" type="curve" smooth="yes"/>
      <point x="266" y="461"/>
      <point x="277" y="448"/>
      <point x="277" y="418" type="curve" smooth="yes"/>
      <point x="277" y="384"/>
      <point x="260" y="368"/>
      <point x="231" y="368" type="curve" smooth="yes"/>
      <point x="199" y="368"/>
      <point x="173" y="389"/>
      <point x="152" y="414" type="curve"/>
      <point x="111" y="297" type="line"/>
      <point x="154" y="264"/>
      <point x="209" y="245"/>
      <point x="255" y="245" type="curve" smooth="yes"/>
      <point x="310" y="245"/>
      <point x="341" y="268"/>
      <point x="367" y="299" type="curve"/>
      <point x="393" y="327"/>
      <point x="412" y="363"/>
      <point x="412" y="415" type="curve" smooth="yes"/>
      <point x="412" y="516"/>
      <point x="360" y="586"/>
      <point x="254" y="586" type="curve" smooth="yes"/>
      <point x="122" y="586"/>
      <point x="32" y="483"/>
      <point x="32" y="280" type="curve" smooth="yes"/>
      <point x="32" y="95"/>
      <point x="125" y="-12"/>
    </contour>
    <contour>
      <point x="255" y="245" type="line"/>
      <point x="608" y="245" type="line"/>
      <point x="518" y="354" type="line"/>
      <point x="510" y="356"/>
      <point x="457" y="361"/>
      <point x="436" y="361" type="curve" smooth="yes"/>
      <point x="429" y="361" type="line" smooth="yes"/>
      <point x="410" y="361"/>
      <point x="370" y="356"/>
      <point x="353" y="353" type="curve"/>
    </contour>
  </outline>
</glyph>
<glyph name="laknda" format="2">
  <advance width="687"/>
  <unicode hex="0CB2"/>
  <outline>
    <contour>
      <point x="345" y="-12" type="curve" smooth="yes"/>
      <point x="565" y="-12"/>
      <point x="657" y="123"/>
      <point x="657" y="288" type="curve" smooth="yes"/>
      <point x="657" y="423"/>
      <point x="600" y="518"/>
      <point x="530" y="588" type="curve"/>
      <point x="404" y="480" type="line"/>
      <point x="449" y="438"/>
      <point x="490" y="376"/>
      <point x="490" y="300" type="curve" smooth="yes"/>
      <point x="490" y="197"/>
      <point x="426" y="147"/>
      <point x="346" y="147" type="curve" smooth="yes"/>
      <point x="231" y="147"/>
      <point x="184" y="209"/>
      <point x="184" y="322" type="curve" smooth="yes"/>
      <point x="184" y="414"/>
      <point x="205" y="461"/>
      <point x="236" y="461" type="curve" smooth="yes"/>
      <point x="252" y="461"/>
      <point x="263" y="448"/>
      <point x="263" y="418" type="curve" smooth="yes"/>
      <point x="263" y="381"/>
      <point x="246" y="368"/>
      <point x="220" y="368" type="curve" smooth="yes"/>
      <point x="190" y="368"/>
      <point x="165" y="384"/>
      <point x="141" y="414" type="curve"/>
      <point x="101" y="306" type="line"/>
      <point x="136" y="271"/>
      <point x="190" y="245"/>
      <point x="241" y="245" type="curve" smooth="yes"/>
      <point x="345" y="245"/>
      <point x="404" y="300"/>
      <point x="404" y="411" type="curve" smooth="yes"/>
      <point x="404" y="502"/>
      <point x="358" y="586"/>
      <point x="242" y="586" type="curve" smooth="yes"/>
      <point x="114" y="586"/>
      <point x="28" y="481"/>
      <point x="28" y="321" type="curve" smooth="yes"/>
      <point x="28" y="118"/>
      <point x="144" y="-12"/>
    </contour>
  </outline>
</glyph>
<glyph name="llaknda" format="2">
  <advance width="659"/>
  <unicode hex="0CB3"/>
  <outline>
    <contour>
      <point x="339" y="-12" type="curve" smooth="yes"/>
      <point x="462" y="-12"/>
      <point x="509" y="33"/>
      <point x="509" y="95" type="curve" smooth="yes"/>
      <point x="509" y="139"/>
      <point x="488" y="165"/>
      <point x="465" y="180" type="curve"/>
      <point x="422" y="145" type="line"/>
      <point x="571" y="157"/>
      <point x="631" y="231"/>
      <point x="631" y="327" type="curve" smooth="yes"/>
      <point x="631" y="408"/>
      <point x="586" y="467"/>
      <point x="521" y="492" type="curve"/>
      <point x="511" y="436" type="line"/>
      <point x="579" y="453"/>
      <point x="631" y="512"/>
      <point x="631" y="600" type="curve" smooth="yes"/>
      <point x="631" y="667"/>
      <point x="608" y="719"/>
      <point x="546" y="798" type="curve"/>
      <point x="426" y="719" type="line"/>
      <point x="455" y="686"/>
      <point x="474" y="654"/>
      <point x="474" y="620" type="curve" smooth="yes"/>
      <point x="474" y="604"/>
      <point x="469" y="593"/>
      <point x="461" y="586" type="curve" smooth="yes"/>
      <point x="450" y="577"/>
      <point x="433" y="574"/>
      <point x="386" y="574" type="curve" smooth="yes"/>
      <point x="373" y="574" type="line"/>
      <point x="373" y="423" type="line"/>
      <point x="417" y="423" type="line"/>
      <point x="445" y="413"/>
      <point x="465" y="392"/>
      <point x="465" y="356" type="curve" smooth="yes"/>
      <point x="465" y="302"/>
      <point x="407" y="282"/>
      <point x="330" y="278" type="curve"/>
      <point x="210" y="283"/>
      <point x="160" y="326"/>
      <point x="160" y="396" type="curve" smooth="yes"/>
      <point x="160" y="443"/>
      <point x="176" y="465"/>
      <point x="194" y="465" type="curve" smooth="yes"/>
      <point x="210" y="465"/>
      <point x="221" y="453"/>
      <point x="221" y="425" type="curve" smooth="yes"/>
      <point x="221" y="388"/>
      <point x="203" y="378"/>
      <point x="180" y="378" type="curve" smooth="yes"/>
      <point x="153" y="378"/>
      <point x="117" y="396"/>
      <point x="97" y="415" type="curve"/>
      <point x="90" y="327" type="line"/>
      <point x="111" y="310"/>
      <point x="157" y="295"/>
      <point x="217" y="295" type="curve" smooth="yes"/>
      <point x="296" y="295"/>
      <point x="353" y="349"/>
      <point x="353" y="432" type="curve" smooth="yes"/>
      <point x="353" y="535"/>
      <point x="292" y="586"/>
      <point x="204" y="586" type="curve" smooth="yes"/>
      <point x="94" y="586"/>
      <point x="26" y="503"/>
      <point x="26" y="388" type="curve" smooth="yes"/>
      <point x="26" y="262"/>
      <point x="107" y="166"/>
      <point x="244" y="148" type="curve"/>
      <point x="200" y="184" type="line"/>
      <point x="173" y="165"/>
      <point x="158" y="138"/>
      <point x="158" y="103" type="curve" smooth="yes"/>
      <point x="158" y="29"/>
      <point x="217" y="-12"/>
    </contour>
    <contour>
      <point x="333" y="96" type="curve" smooth="yes"/>
      <point x="314" y="96"/>
      <point x="303" y="105"/>
      <point x="303" y="124" type="curve" smooth="yes"/>
      <point x="303" y="140"/>
      <point x="316" y="151"/>
      <point x="333" y="158" type="curve"/>
      <point x="350" y="152"/>
      <point x="364" y="140"/>
      <point x="364" y="124" type="curve" smooth="yes"/>
      <point x="364" y="101"/>
      <point x="351" y="96"/>
    </contour>
  </outline>
</glyph>
<glyph name="shaknda" format="2">
  <advance width="597"/>
  <unicode hex="0CB6"/>
  <outline>
    <contour>
      <point x="251" y="-12" type="curve" smooth="yes"/>
      <point x="465" y="-12"/>
      <point x="567" y="108"/>
      <point x="567" y="270" type="curve" smooth="yes"/>
      <point x="567" y="360"/>
      <point x="532" y="461"/>
      <point x="426" y="517" type="curve"/>
      <point x="340" y="490" type="line"/>
      <point x="337" y="462" type="line"/>
      <point x="366" y="433"/>
      <point x="402" y="387"/>
      <point x="402" y="281" type="curve" smooth="yes"/>
      <point x="402" y="190"/>
      <point x="336" y="138"/>
      <point x="243" y="138" type="curve" smooth="yes"/>
      <point x="202" y="138"/>
      <point x="191" y="151"/>
      <point x="191" y="166" type="curve" smooth="yes"/>
      <point x="191" y="183"/>
      <point x="201" y="190"/>
      <point x="253" y="207" type="curve" smooth="yes"/>
      <point x="361" y="242"/>
      <point x="381" y="300"/>
      <point x="381" y="371" type="curve" smooth="yes"/>
      <point x="381" y="431"/>
      <point x="321" y="498"/>
      <point x="225" y="498" type="curve" smooth="yes"/>
      <point x="131" y="498"/>
      <point x="48" y="459"/>
      <point x="48" y="378" type="curve" smooth="yes"/>
      <point x="48" y="361"/>
      <point x="52" y="334"/>
      <point x="60" y="319" type="curve"/>
      <point x="224" y="370" type="line"/>
      <point x="221" y="378"/>
      <point x="217" y="392"/>
      <point x="217" y="406" type="curve" smooth="yes"/>
      <point x="217" y="422"/>
      <point x="225" y="434"/>
      <point x="239" y="434" type="curve" smooth="yes"/>
      <point x="251" y="434"/>
      <point x="262" y="426"/>
      <point x="262" y="400" type="curve" smooth="yes"/>
      <point x="262" y="373"/>
      <point x="256" y="353"/>
      <point x="193" y="332" type="curve" smooth="yes"/>
      <point x="70" y="291"/>
      <point x="25" y="241"/>
      <point x="25" y="162" type="curve" smooth="yes"/>
      <point x="25" y="46"/>
      <point x="111" y="-12"/>
    </contour>
    <contour>
      <point x="27" y="423" type="line"/>
      <point x="191" y="423" type="line"/>
      <point x="240" y="446" type="line"/>
      <point x="286" y="423" type="line"/>
      <point x="335" y="423" type="line"/>
      <point x="448" y="423"/>
      <point x="496" y="447"/>
      <point x="529" y="486" type="curve" smooth="yes"/>
      <point x="556" y="518"/>
      <point x="567" y="560"/>
      <point x="567" y="599" type="curve" smooth="yes"/>
      <point x="567" y="667"/>
      <point x="544" y="719"/>
      <point x="482" y="798" type="curve"/>
      <point x="362" y="719" type="line"/>
      <point x="391" y="686"/>
      <point x="410" y="654"/>
      <point x="410" y="620" type="curve" smooth="yes"/>
      <point x="410" y="604"/>
      <point x="405" y="593"/>
      <point x="397" y="586" type="curve" smooth="yes"/>
      <point x="386" y="577"/>
      <point x="369" y="574"/>
      <point x="322" y="574" type="curve" smooth="yes"/>
      <point x="27" y="574" type="line"/>
    </contour>
  </outline>
</glyph>
<glyph name="ssaknda" format="2">
  <advance width="807"/>
  <unicode hex="0CB7"/>
  <outline>
    <contour>
      <point x="229" y="-12" type="curve" smooth="yes"/>
      <point x="325" y="-12"/>
      <point x="372" y="12"/>
      <point x="433" y="90" type="curve"/>
      <point x="377" y="105" type="line"/>
      <point x="423" y="27"/>
      <point x="461" y="-11"/>
      <point x="586" y="-11" type="curve" smooth="yes"/>
      <point x="602" y="-11"/>
      <point x="651" y="-2"/>
      <point x="674" y="12" type="curve"/>
      <point x="737" y="38"/>
      <point x="775" y="87"/>
      <point x="775" y="186" type="curve" smooth="yes"/>
      <point x="775" y="260"/>
      <point x="756" y="331"/>
      <point x="712" y="401" type="curve"/>
      <point x="558" y="345" type="line"/>
      <point x="584" y="306"/>
      <point x="617" y="248"/>
      <point x="617" y="197" type="curve" smooth="yes"/>
      <point x="617" y="154"/>
      <point x="584" y="139"/>
      <point x="541" y="139" type="curve" smooth="yes"/>
      <point x="495" y="139"/>
      <point x="479" y="165"/>
      <point x="465" y="224" type="curve"/>
      <point x="345" y="224" type="line"/>
      <point x="334" y="166"/>
      <point x="302" y="140"/>
      <point x="244" y="140" type="curve" smooth="yes"/>
      <point x="189" y="140"/>
      <point x="163" y="160"/>
      <point x="163" y="197" type="curve" smooth="yes"/>
      <point x="163" y="221"/>
      <point x="172" y="229"/>
      <point x="182" y="229" type="curve" smooth="yes"/>
      <point x="194" y="229"/>
      <point x="199" y="214"/>
      <point x="199" y="203" type="curve" smooth="yes"/>
      <point x="199" y="194"/>
      <point x="198" y="189"/>
      <point x="197" y="185" type="curve"/>
      <point x="306" y="179" type="line"/>
      <point x="311" y="194"/>
      <point x="315" y="220"/>
      <point x="315" y="241" type="curve" smooth="yes"/>
      <point x="315" y="308"/>
      <point x="271" y="355"/>
      <point x="186" y="355" type="curve" smooth="yes"/>
      <point x="83" y="355"/>
      <point x="26" y="284"/>
      <point x="26" y="183" type="curve" smooth="yes"/>
      <point x="26" y="70"/>
      <point x="97" y="-12"/>
    </contour>
    <contour>
      <point x="402" y="255" type="curve" smooth="yes"/>
      <point x="451" y="255"/>
      <point x="478" y="286"/>
      <point x="478" y="330" type="curve" smooth="yes"/>
      <point x="478" y="378"/>
      <point x="448" y="405"/>
      <point x="402" y="405" type="curve" smooth="yes"/>
      <point x="355" y="405"/>
      <point x="326" y="376"/>
      <point x="326" y="330" type="curve" smooth="yes"/>
      <point x="326" y="287"/>
      <point x="352" y="255"/>
    </contour>
    <contour>
      <point x="604" y="-69" type="line"/>
      <point x="715" y="-15" type="line"/>
      <point x="655" y="81" type="line"/>
      <point x="652" y="90" type="line"/>
      <point x="559" y="299" type="line"/>
      <point x="466" y="259" type="line"/>
      <point x="571" y="41" type="line"/>
      <point x="561" y="16" type="line"/>
    </contour>
    <contour>
      <point x="28" y="423" type="line"/>
      <point x="543" y="423" type="line" smooth="yes"/>
      <point x="656" y="423"/>
      <point x="704" y="447"/>
      <point x="737" y="486" type="curve" smooth="yes"/>
      <point x="764" y="518"/>
      <point x="775" y="560"/>
      <point x="775" y="600" type="curve" smooth="yes"/>
      <point x="775" y="667"/>
      <point x="752" y="719"/>
      <point x="690" y="798" type="curve"/>
      <point x="570" y="719" type="line"/>
      <point x="599" y="686"/>
      <point x="618" y="654"/>
      <point x="618" y="620" type="curve" smooth="yes"/>
      <point x="618" y="604"/>
      <point x="613" y="593"/>
      <point x="605" y="586" type="curve" smooth="yes"/>
      <point x="594" y="577"/>
      <point x="577" y="574"/>
      <point x="530" y="574" type="curve" smooth="yes"/>
      <point x="28" y="574" type="line"/>
    </contour>
  </outline>
</glyph>
<glyph name="saknda" format="2">
  <advance width="648"/>
  <unicode hex="0CB8"/>
  <outline>
    <contour>
      <point x="434" y="-12" type="curve" smooth="yes"/>
      <point x="548" y="-12"/>
      <point x="616" y="45"/>
      <point x="616" y="182" type="curve" smooth="yes"/>
      <point x="616" y="256"/>
      <point x="599" y="320"/>
      <point x="561" y="390" type="curve"/>
      <point x="415" y="334" type="line"/>
      <point x="432" y="296"/>
      <point x="450" y="248"/>
      <point x="450" y="201" type="curve" smooth="yes"/>
      <point x="450" y="158"/>
      <point x="438" y="145"/>
      <point x="417" y="145" type="curve" smooth="yes"/>
      <point x="399" y="145"/>
      <point x="391" y="149"/>
      <point x="346" y="218" type="curve" smooth="yes"/>
      <point x="305" y="281"/>
      <point x="264" y="313"/>
      <point x="194" y="313" type="curve" smooth="yes"/>
      <point x="79" y="313"/>
      <point x="26" y="236"/>
      <point x="26" y="142" type="curve" smooth="yes"/>
      <point x="26" y="78"/>
      <point x="47" y="22"/>
      <point x="72" y="-23" type="curve"/>
      <point x="222" y="35" type="line"/>
      <point x="206" y="68"/>
      <point x="192" y="101"/>
      <point x="192" y="133" type="curve" smooth="yes"/>
      <point x="192" y="150"/>
      <point x="197" y="162"/>
      <point x="209" y="162" type="curve" smooth="yes"/>
      <point x="219" y="162"/>
      <point x="228" y="153"/>
      <point x="245" y="118" type="curve" smooth="yes"/>
      <point x="296" y="12"/>
      <point x="351" y="-12"/>
    </contour>
    <contour>
      <point x="332" y="277" type="curve" smooth="yes"/>
      <point x="384" y="277"/>
      <point x="406" y="306"/>
      <point x="406" y="347" type="curve" smooth="yes"/>
      <point x="406" y="392"/>
      <point x="379" y="418"/>
      <point x="332" y="418" type="curve" smooth="yes"/>
      <point x="284" y="418"/>
      <point x="258" y="391"/>
      <point x="258" y="349" type="curve" smooth="yes"/>
      <point x="258" y="300"/>
      <point x="291" y="277"/>
    </contour>
    <contour>
      <point x="27" y="423" type="line"/>
      <point x="384" y="423" type="line" smooth="yes"/>
      <point x="497" y="423"/>
      <point x="545" y="447"/>
      <point x="578" y="486" type="curve" smooth="yes"/>
      <point x="605" y="518"/>
      <point x="616" y="560"/>
      <point x="616" y="600" type="curve" smooth="yes"/>
      <point x="616" y="667"/>
      <point x="593" y="719"/>
      <point x="531" y="798" type="curve"/>
      <point x="411" y="719" type="line"/>
      <point x="440" y="686"/>
      <point x="459" y="654"/>
      <point x="459" y="620" type="curve" smooth="yes"/>
      <point x="459" y="604"/>
      <point x="454" y="593"/>
      <point x="446" y="586" type="curve" smooth="yes"/>
      <point x="435" y="577"/>
      <point x="418" y="574"/>
      <point x="371" y="574" type="curve" smooth="yes"/>
      <point x="27" y="574" type="line"/>
    </contour>
  </outline>
</glyph>
<glyph name="haknda" format="2">
  <advance width="723"/>
  <unicode hex="0CB9"/>
  <outline>
    <contour>
      <point x="207" y="-12" type="curve" smooth="yes"/>
      <point x="304" y="-12"/>
      <point x="347" y="22"/>
      <point x="392" y="83" type="curve"/>
      <point x="336" y="81" type="line"/>
      <point x="381" y="20"/>
      <point x="419" y="-12"/>
      <point x="513" y="-12" type="curve" smooth="yes"/>
      <point x="631" y="-12"/>
      <point x="696" y="62"/>
      <point x="696" y="181" type="curve" smooth="yes"/>
      <point x="696" y="301"/>
      <point x="629" y="375"/>
      <point x="532" y="375" type="curve" smooth="yes"/>
      <point x="453" y="375"/>
      <point x="421" y="336"/>
      <point x="401" y="304" type="curve"/>
      <point x="421" y="265" type="line"/>
      <point x="431" y="289"/>
      <point x="434" y="305"/>
      <point x="434" y="329" type="curve" smooth="yes"/>
      <point x="434" y="395"/>
      <point x="407" y="429"/>
      <point x="372" y="454" type="curve"/>
      <point x="205" y="426" type="line"/>
      <point x="284" y="413"/>
      <point x="300" y="358"/>
      <point x="300" y="316" type="curve" smooth="yes"/>
      <point x="300" y="296"/>
      <point x="297" y="282"/>
      <point x="296" y="274" type="curve"/>
      <point x="335" y="260" type="line"/>
      <point x="319" y="323"/>
      <point x="278" y="375"/>
      <point x="197" y="375" type="curve" smooth="yes"/>
      <point x="95" y="375"/>
      <point x="28" y="302"/>
      <point x="28" y="187" type="curve" smooth="yes"/>
      <point x="28" y="62"/>
      <point x="90" y="-12"/>
    </contour>
    <contour>
      <point x="238" y="125" type="curve" smooth="yes"/>
      <point x="207" y="125"/>
      <point x="193" y="149"/>
      <point x="193" y="182" type="curve" smooth="yes"/>
      <point x="193" y="215"/>
      <point x="207" y="239"/>
      <point x="238" y="239" type="curve" smooth="yes"/>
      <point x="269" y="239"/>
      <point x="283" y="215"/>
      <point x="283" y="182" type="curve" smooth="yes"/>
      <point x="283" y="149"/>
      <point x="269" y="125"/>
    </contour>
    <contour>
      <point x="486" y="125" type="curve" smooth="yes"/>
      <point x="455" y="125"/>
      <point x="441" y="149"/>
      <point x="441" y="182" type="curve" smooth="yes"/>
      <point x="441" y="215"/>
      <point x="455" y="239"/>
      <point x="486" y="239" type="curve" smooth="yes"/>
      <point x="517" y="239"/>
      <point x="531" y="215"/>
      <point x="531" y="182" type="curve" smooth="yes"/>
      <point x="531" y="149"/>
      <point x="517" y="125"/>
    </contour>
    <contour>
      <point x="31" y="423" type="line"/>
      <point x="464" y="423" type="line" smooth="yes"/>
      <point x="577" y="423"/>
      <point x="625" y="447"/>
      <point x="658" y="486" type="curve" smooth="yes"/>
      <point x="685" y="518"/>
      <point x="696" y="560"/>
      <point x="696" y="600" type="curve" smooth="yes"/>
      <point x="696" y="667"/>
      <point x="673" y="719"/>
      <point x="611" y="798" type="curve"/>
      <point x="491" y="719" type="line"/>
      <point x="520" y="686"/>
      <point x="539" y="654"/>
      <point x="539" y="620" type="curve" smooth="yes"/>
      <point x="539" y="604"/>
      <point x="534" y="593"/>
      <point x="526" y="586" type="curve" smooth="yes"/>
      <point x="515" y="577"/>
      <point x="498" y="574"/>
      <point x="451" y="574" type="curve" smooth="yes"/>
      <point x="31" y="574" type="line"/>
    </contour>
  </outline>
</glyph>
<glyph name="nuktaknda" format="2">
  <unicode hex="0CBC"/>
  <outline>
    <contour>
      <point x="-171" y="-211" type="curve" smooth="yes"/>
      <point x="-123" y="-211"/>
      <point x="-91" y="-176"/>
      <point x="-91" y="-128" type="curve" smooth="yes"/>
      <point x="-91" y="-75"/>
      <point x="-126" y="-45"/>
      <point x="-171" y="-45" type="curve" smooth="yes"/>
      <point x="-217" y="-45"/>
      <point x="-251" y="-77"/>
      <point x="-251" y="-128" type="curve" smooth="yes"/>
      <point x="-251" y="-175"/>
      <point x="-221" y="-211"/>
    </contour>
    <contour>
      <point x="-384" y="-211" type="curve" smooth="yes"/>
      <point x="-336" y="-211"/>
      <point x="-304" y="-176"/>
      <point x="-304" y="-128" type="curve" smooth="yes"/>
      <point x="-304" y="-75"/>
      <point x="-339" y="-45"/>
      <point x="-384" y="-45" type="curve" smooth="yes"/>
      <point x="-430" y="-45"/>
      <point x="-464" y="-77"/>
      <point x="-464" y="-128" type="curve" smooth="yes"/>
      <point x="-464" y="-175"/>
      <point x="-434" y="-211"/>
    </contour>
  </outline>
</glyph>
<glyph name="avagrahaknda" format="2">
  <advance width="441"/>
  <unicode hex="0CBD"/>
  <outline>
    <contour>
      <point x="230" y="-12" type="curve" smooth="yes"/>
      <point x="355" y="-12"/>
      <point x="420" y="54"/>
      <point x="420" y="157" type="curve" smooth="yes"/>
      <point x="420" y="248"/>
      <point x="383" y="304"/>
      <point x="257" y="366" type="curve" smooth="yes"/>
      <point x="220" y="384"/>
      <point x="198" y="395"/>
      <point x="198" y="409" type="curve" smooth="yes"/>
      <point x="198" y="418"/>
      <point x="202" y="423"/>
      <point x="218" y="423" type="curve" smooth="yes"/>
      <point x="399" y="423" type="line"/>
      <point x="399" y="574" type="line"/>
      <point x="256" y="574" type="line" smooth="yes"/>
      <point x="166" y="574"/>
      <point x="128" y="565"/>
      <point x="91" y="542" type="curve" smooth="yes"/>
      <point x="53" y="518"/>
      <point x="31" y="479"/>
      <point x="31" y="420" type="curve" smooth="yes"/>
      <point x="31" y="340"/>
      <point x="79" y="287"/>
      <point x="192" y="232" type="curve" smooth="yes"/>
      <point x="237" y="210"/>
      <point x="253" y="194"/>
      <point x="253" y="168" type="curve" smooth="yes"/>
      <point x="253" y="153"/>
      <point x="243" y="142"/>
      <point x="223" y="142" type="curve" smooth="yes"/>
      <point x="194" y="142"/>
      <point x="182" y="165"/>
      <point x="174" y="220" type="curve"/>
      <point x="15" y="200" type="line"/>
      <point x="38" y="74"/>
      <point x="93" y="-12"/>
    </contour>
  </outline>
</glyph>
<glyph name="aavowelsignknda" format="2">
  <advance width="451"/>
  <unicode hex="0CBE"/>
  <outline>
    <contour>
      <point x="420" y="254" type="curve" smooth="yes"/>
      <point x="420" y="382"/>
      <point x="377" y="468"/>
      <point x="307" y="516" type="curve" smooth="yes"/>
      <point x="249" y="556"/>
      <point x="190" y="574"/>
      <point x="23" y="574" type="curve" smooth="yes"/>
      <point x="-232" y="574" type="line"/>
      <point x="-232" y="423" type="line"/>
      <point x="46" y="423" type="line" smooth="yes"/>
      <point x="132" y="423"/>
      <point x="170" y="411"/>
      <point x="201" y="389" type="curve" smooth="yes"/>
      <point x="238" y="363"/>
      <point x="258" y="317"/>
      <point x="258" y="249" type="curve" smooth="yes"/>
      <point x="258" y="169"/>
      <point x="234" y="130"/>
      <point x="186" y="130" type="curve" smooth="yes"/>
      <point x="146" y="130"/>
      <point x="137" y="155"/>
      <point x="137" y="185" type="curve" smooth="yes"/>
      <point x="137" y="206"/>
      <point x="139" y="217"/>
      <point x="146" y="235" type="curve"/>
      <point x="112" y="189" type="line"/>
      <point x="129" y="173"/>
      <point x="145" y="169"/>
      <point x="164" y="169" type="curve" smooth="yes"/>
      <point x="205" y="169"/>
      <point x="224" y="198"/>
      <point x="224" y="240" type="curve" smooth="yes"/>
      <point x="224" y="293"/>
      <point x="193" y="323"/>
      <point x="137" y="323" type="curve" smooth="yes"/>
      <point x="60" y="323"/>
      <point x="14" y="260"/>
      <point x="14" y="178" type="curve" smooth="yes"/>
      <point x="14" y="58"/>
      <point x="85" y="-12"/>
      <point x="200" y="-12" type="curve" smooth="yes"/>
      <point x="339" y="-12"/>
      <point x="420" y="93"/>
    </contour>
  </outline>
</glyph>
<glyph name="ivowelsignknda" format="2">
  <advance width="338"/>
  <unicode hex="0CBF"/>
  <outline>
    <contour>
      <point x="99" y="307" type="curve" smooth="yes"/>
      <point x="226" y="307"/>
      <point x="319" y="370"/>
      <point x="319" y="523" type="curve" smooth="yes"/>
      <point x="319" y="661"/>
      <point x="237" y="751"/>
      <point x="109" y="751" type="curve" smooth="yes"/>
      <point x="4" y="751"/>
      <point x="-56" y="690"/>
      <point x="-56" y="614" type="curve" smooth="yes"/>
      <point x="-56" y="531"/>
      <point x="-4" y="477"/>
      <point x="105" y="477" type="curve" smooth="yes"/>
      <point x="160" y="477"/>
      <point x="205" y="505"/>
      <point x="239" y="542" type="curve"/>
      <point x="208" y="629" type="line"/>
      <point x="179" y="594"/>
      <point x="151" y="580"/>
      <point x="115" y="580" type="curve" smooth="yes"/>
      <point x="92" y="580"/>
      <point x="77" y="591"/>
      <point x="77" y="613" type="curve" smooth="yes"/>
      <point x="77" y="637"/>
      <point x="92" y="648"/>
      <point x="113" y="648" type="curve" smooth="yes"/>
      <point x="156" y="648"/>
      <point x="184" y="600"/>
      <point x="184" y="533" type="curve" smooth="yes"/>
      <point x="184" y="523" type="line" smooth="yes"/>
      <point x="184" y="453"/>
      <point x="150" y="432"/>
      <point x="85" y="432" type="curve" smooth="yes"/>
      <point x="18" y="432"/>
      <point x="-29" y="463"/>
      <point x="-82" y="543" type="curve"/>
      <point x="-169" y="470" type="line"/>
      <point x="-113" y="378"/>
      <point x="-33" y="307"/>
    </contour>
  </outline>
</glyph>
<glyph name="uvowelsignknda" format="2">
  <advance width="303"/>
  <unicode hex="0CC1"/>
  <outline>
    <contour>
      <point x="71" y="-12" type="curve" smooth="yes"/>
      <point x="206" y="-12"/>
      <point x="273" y="86"/>
      <point x="273" y="227" type="curve" smooth="yes"/>
      <point x="273" y="406"/>
      <point x="180" y="514"/>
      <point x="97" y="588" type="curve"/>
      <point x="-22" y="468" type="line"/>
      <point x="36" y="417"/>
      <point x="107" y="341"/>
      <point x="107" y="234" type="curve" smooth="yes"/>
      <point x="107" y="175"/>
      <point x="81" y="145"/>
      <point x="39" y="145" type="curve" smooth="yes"/>
      <point x="-9" y="145"/>
      <point x="-37" y="170"/>
      <point x="-78" y="222" type="curve"/>
      <point x="-165" y="119" type="line"/>
      <point x="-91" y="24"/>
      <point x="-25" y="-12"/>
    </contour>
  </outline>
</glyph>
<glyph name="uuvowelsignknda" format="2">
  <advance width="703"/>
  <unicode hex="0CC2"/>
  <outline>
    <contour>
      <point x="65" y="-12" type="curve" smooth="yes"/>
      <point x="169" y="-12"/>
      <point x="234" y="46"/>
      <point x="234" y="168" type="curve" smooth="yes"/>
      <point x="234" y="218"/>
      <point x="231" y="255"/>
      <point x="231" y="296" type="curve" smooth="yes"/>
      <point x="231" y="391"/>
      <point x="279" y="432"/>
      <point x="352" y="432" type="curve" smooth="yes"/>
      <point x="448" y="432"/>
      <point x="508" y="363"/>
      <point x="508" y="244" type="curve" smooth="yes"/>
      <point x="508" y="169"/>
      <point x="485" y="130"/>
      <point x="437" y="130" type="curve" smooth="yes"/>
      <point x="397" y="130"/>
      <point x="388" y="156"/>
      <point x="388" y="185" type="curve" smooth="yes"/>
      <point x="388" y="206"/>
      <point x="390" y="217"/>
      <point x="397" y="235" type="curve"/>
      <point x="363" y="189" type="line"/>
      <point x="380" y="173"/>
      <point x="398" y="169"/>
      <point x="415" y="169" type="curve" smooth="yes"/>
      <point x="456" y="169"/>
      <point x="475" y="198"/>
      <point x="475" y="240" type="curve" smooth="yes"/>
      <point x="475" y="293"/>
      <point x="444" y="323"/>
      <point x="388" y="323" type="curve" smooth="yes"/>
      <point x="311" y="323"/>
      <point x="265" y="260"/>
      <point x="265" y="178" type="curve" smooth="yes"/>
      <point x="265" y="58"/>
      <point x="336" y="-12"/>
      <point x="451" y="-12" type="curve" smooth="yes"/>
      <point x="593" y="-12"/>
      <point x="673" y="93"/>
      <point x="673" y="251" type="curve" smooth="yes"/>
      <point x="673" y="424"/>
      <point x="579" y="586"/>
      <point x="351" y="586" type="curve" smooth="yes"/>
      <point x="196" y="586"/>
      <point x="68" y="503"/>
      <point x="68" y="328" type="curve" smooth="yes"/>
      <point x="68" y="284"/>
      <point x="71" y="247"/>
      <point x="71" y="193" type="curve" smooth="yes"/>
      <point x="71" y="158"/>
      <point x="59" y="144"/>
      <point x="31" y="144" type="curve" smooth="yes"/>
      <point x="-5" y="144"/>
      <point x="-36" y="167"/>
      <point x="-77" y="219" type="curve"/>
      <point x="-164" y="115" type="line"/>
      <point x="-98" y="34"/>
      <point x="-35" y="-12"/>
    </contour>
  </outline>
</glyph>
<glyph name="rvocalicvowelsignknda" format="2">
  <advance width="137"/>
  <unicode hex="0CC3"/>
  <outline>
    <contour>
      <point x="-63" y="-422" type="curve" smooth="yes"/>
      <point x="77" y="-422"/>
      <point x="153" y="-333"/>
      <point x="153" y="-156" type="curve" smooth="yes"/>
      <point x="153" y="-71"/>
      <point x="134" y="6"/>
      <point x="94" y="85" type="curve"/>
      <point x="1" y="43" type="line"/>
      <point x="31" y="-18"/>
      <point x="51" y="-85"/>
      <point x="51" y="-160" type="curve" smooth="yes"/>
      <point x="51" y="-294"/>
      <point x="-11" y="-321"/>
      <point x="-67" y="-321" type="curve" smooth="yes"/>
      <point x="-125" y="-321"/>
      <point x="-156" y="-293"/>
      <point x="-156" y="-228" type="curve" smooth="yes"/>
      <point x="-156" y="-217" type="line" smooth="yes"/>
      <point x="-156" y="-160"/>
      <point x="-137" y="-137"/>
      <point x="-113" y="-137" type="curve" smooth="yes"/>
      <point x="-99" y="-137"/>
      <point x="-90" y="-149"/>
      <point x="-90" y="-167" type="curve" smooth="yes"/>
      <point x="-90" y="-194"/>
      <point x="-106" y="-201"/>
      <point x="-127" y="-201" type="curve" smooth="yes"/>
      <point x="-145" y="-201"/>
      <point x="-160" y="-194"/>
      <point x="-172" y="-184" type="curve"/>
      <point x="-187" y="-259" type="line"/>
      <point x="-165" y="-276"/>
      <point x="-139" y="-285"/>
      <point x="-106" y="-285" type="curve" smooth="yes"/>
      <point x="-42" y="-285"/>
      <point x="6" y="-252"/>
      <point x="6" y="-168" type="curve" smooth="yes"/>
      <point x="6" y="-113"/>
      <point x="-21" y="-48"/>
      <point x="-108" y="-48" type="curve" smooth="yes"/>
      <point x="-186" y="-48"/>
      <point x="-249" y="-113"/>
      <point x="-249" y="-221" type="curve" smooth="yes"/>
      <point x="-249" y="-349"/>
      <point x="-176" y="-422"/>
    </contour>
  </outline>
</glyph>
<glyph name="rrvocalicvowelsignknda" format="2">
  <advance width="437"/>
  <unicode hex="0CC4"/>
  <outline>
    <contour>
      <point x="-63" y="-422" type="curve" smooth="yes"/>
      <point x="77" y="-422"/>
      <point x="153" y="-333"/>
      <point x="153" y="-156" type="curve" smooth="yes"/>
      <point x="153" y="-86"/>
      <point x="141" y="-24"/>
      <point x="109" y="38" type="curve"/>
      <point x="66" y="81" type="line"/>
      <point x="9" y="26" type="line"/>
      <point x="34" y="-30"/>
      <point x="51" y="-92"/>
      <point x="51" y="-160" type="curve" smooth="yes"/>
      <point x="51" y="-294"/>
      <point x="-11" y="-321"/>
      <point x="-67" y="-321" type="curve" smooth="yes"/>
      <point x="-125" y="-321"/>
      <point x="-156" y="-293"/>
      <point x="-156" y="-228" type="curve" smooth="yes"/>
      <point x="-156" y="-217" type="line" smooth="yes"/>
      <point x="-156" y="-160"/>
      <point x="-137" y="-137"/>
      <point x="-113" y="-137" type="curve" smooth="yes"/>
      <point x="-99" y="-137"/>
      <point x="-90" y="-149"/>
      <point x="-90" y="-167" type="curve" smooth="yes"/>
      <point x="-90" y="-194"/>
      <point x="-106" y="-201"/>
      <point x="-127" y="-201" type="curve" smooth="yes"/>
      <point x="-145" y="-201"/>
      <point x="-160" y="-194"/>
      <point x="-172" y="-184" type="curve"/>
      <point x="-187" y="-259" type="line"/>
      <point x="-165" y="-276"/>
      <point x="-139" y="-285"/>
      <point x="-106" y="-285" type="curve" smooth="yes"/>
      <point x="-42" y="-285"/>
      <point x="6" y="-252"/>
      <point x="6" y="-168" type="curve" smooth="yes"/>
      <point x="6" y="-113"/>
      <point x="-21" y="-48"/>
      <point x="-108" y="-48" type="curve" smooth="yes"/>
      <point x="-186" y="-48"/>
      <point x="-249" y="-113"/>
      <point x="-249" y="-221" type="curve" smooth="yes"/>
      <point x="-249" y="-349"/>
      <point x="-176" y="-422"/>
    </contour>
    <contour>
      <point x="306" y="-357" type="curve" smooth="yes"/>
      <point x="399" y="-357"/>
      <point x="455" y="-288"/>
      <point x="455" y="-161" type="curve" smooth="yes"/>
      <point x="455" y="-79"/>
      <point x="432" y="-6"/>
      <point x="366" y="38" type="curve" smooth="yes"/>
      <point x="325" y="65"/>
      <point x="267" y="81"/>
      <point x="166" y="81" type="curve" smooth="yes"/>
      <point x="66" y="81" type="line"/>
      <point x="99" y="-20" type="line"/>
      <point x="180" y="-20" type="line" smooth="yes"/>
      <point x="247" y="-20"/>
      <point x="277" y="-29"/>
      <point x="302" y="-45" type="curve" smooth="yes"/>
      <point x="339" y="-69"/>
      <point x="353" y="-109"/>
      <point x="353" y="-164" type="curve" smooth="yes"/>
      <point x="353" y="-215"/>
      <point x="338" y="-259"/>
      <point x="298" y="-259" type="curve" smooth="yes"/>
      <point x="269" y="-259"/>
      <point x="256" y="-243"/>
      <point x="256" y="-212" type="curve" smooth="yes"/>
      <point x="256" y="-201"/>
      <point x="258" y="-187"/>
      <point x="262" y="-173" type="curve"/>
      <point x="238" y="-189" type="line"/>
      <point x="247" y="-212"/>
      <point x="263" y="-224"/>
      <point x="284" y="-224" type="curve" smooth="yes"/>
      <point x="313" y="-224"/>
      <point x="328" y="-205"/>
      <point x="328" y="-168" type="curve" smooth="yes"/>
      <point x="328" y="-130"/>
      <point x="306" y="-105"/>
      <point x="264" y="-105" type="curve" smooth="yes"/>
      <point x="210" y="-105"/>
      <point x="174" y="-147"/>
      <point x="174" y="-222" type="curve" smooth="yes"/>
      <point x="174" y="-299"/>
      <point x="216" y="-357"/>
    </contour>
  </outline>
</glyph>
<glyph name="evowelsignknda" format="2">
  <unicode hex="0CC6"/>
  <outline>
    <contour>
      <point x="-518" y="423" type="line"/>
      <point x="-292" y="423" type="line" smooth="yes"/>
      <point x="-166" y="423"/>
      <point x="-110" y="446"/>
      <point x="-74" y="478" type="curve" smooth="yes"/>
      <point x="-35" y="513"/>
      <point x="-20" y="568"/>
      <point x="-20" y="620" type="curve" smooth="yes"/>
      <point x="-20" y="714"/>
      <point x="-77" y="809"/>
      <point x="-210" y="809" type="curve" smooth="yes"/>
      <point x="-325" y="809"/>
      <point x="-376" y="744"/>
      <point x="-376" y="681" type="curve" smooth="yes"/>
      <point x="-376" y="622"/>
      <point x="-344" y="592"/>
      <point x="-294" y="592" type="curve" smooth="yes"/>
      <point x="-247" y="592"/>
      <point x="-220" y="610"/>
      <point x="-220" y="650" type="curve" smooth="yes"/>
      <point x="-220" y="687"/>
      <point x="-250" y="703"/>
      <point x="-277" y="703" type="curve" smooth="yes"/>
      <point x="-289" y="703"/>
      <point x="-306" y="700"/>
      <point x="-318" y="687" type="curve"/>
      <point x="-250" y="609" type="line"/>
      <point x="-253" y="619"/>
      <point x="-256" y="633"/>
      <point x="-256" y="645" type="curve" smooth="yes"/>
      <point x="-256" y="683"/>
      <point x="-238" y="693"/>
      <point x="-215" y="693" type="curve" smooth="yes"/>
      <point x="-193" y="693"/>
      <point x="-172" y="676"/>
      <point x="-172" y="638" type="curve" smooth="yes"/>
      <point x="-172" y="616"/>
      <point x="-178" y="603"/>
      <point x="-189" y="592" type="curve" smooth="yes"/>
      <point x="-203" y="580"/>
      <point x="-221" y="574"/>
      <point x="-277" y="574" type="curve" smooth="yes"/>
      <point x="-518" y="574" type="line"/>
    </contour>
  </outline>
</glyph>
<glyph name="auvowelsignknda" format="2">
  <advance width="432"/>
  <unicode hex="0CCC"/>
  <outline>
    <contour>
      <point x="13" y="584" type="curve" smooth="yes"/>
      <point x="13" y="621"/>
      <point x="-1" y="660"/>
      <point x="-22" y="690" type="curve"/>
      <point x="-173" y="673" type="line"/>
      <point x="-155" y="654"/>
      <point x="-143" y="633"/>
      <point x="-143" y="608" type="curve" smooth="yes"/>
      <point x="-143" y="596"/>
      <point x="-147" y="588"/>
      <point x="-153" y="583" type="curve" smooth="yes"/>
      <point x="-162" y="575"/>
      <point x="-177" y="574"/>
      <point x="-205" y="574" type="curve" smooth="yes"/>
      <point x="-221" y="574" type="line"/>
      <point x="-221" y="423" type="line"/>
      <point x="-184" y="423" type="line" smooth="yes"/>
      <point x="-92" y="423"/>
      <point x="-47" y="442"/>
      <point x="-17" y="482" type="curve" smooth="yes"/>
      <point x="2" y="507"/>
      <point x="13" y="542"/>
    </contour>
    <contour>
      <point x="409" y="472" type="curve" smooth="yes"/>
      <point x="409" y="599"/>
      <point x="366" y="686"/>
      <point x="296" y="734" type="curve" smooth="yes"/>
      <point x="238" y="774"/>
      <point x="178" y="792"/>
      <point x="12" y="792" type="curve" smooth="yes"/>
      <point x="-260" y="792" type="line"/>
      <point x="-260" y="641" type="line"/>
      <point x="35" y="641" type="line" smooth="yes"/>
      <point x="121" y="641"/>
      <point x="159" y="629"/>
      <point x="190" y="607" type="curve" smooth="yes"/>
      <point x="227" y="581"/>
      <point x="247" y="535"/>
      <point x="247" y="467" type="curve" smooth="yes"/>
      <point x="247" y="387"/>
      <point x="223" y="348"/>
      <point x="175" y="348" type="curve" smooth="yes"/>
      <point x="135" y="348"/>
      <point x="126" y="373"/>
      <point x="126" y="403" type="curve" smooth="yes"/>
      <point x="126" y="424"/>
      <point x="128" y="435"/>
      <point x="135" y="453" type="curve"/>
      <point x="101" y="407" type="line"/>
      <point x="118" y="391"/>
      <point x="132" y="387"/>
      <point x="153" y="387" type="curve" smooth="yes"/>
      <point x="194" y="387"/>
      <point x="213" y="416"/>
      <point x="213" y="458" type="curve" smooth="yes"/>
      <point x="213" y="511"/>
      <point x="182" y="541"/>
      <point x="126" y="541" type="curve" smooth="yes"/>
      <point x="49" y="541"/>
      <point x="3" y="478"/>
      <point x="3" y="396" type="curve" smooth="yes"/>
      <point x="3" y="276"/>
      <point x="74" y="206"/>
      <point x="189" y="206" type="curve" smooth="yes"/>
      <point x="328" y="206"/>
      <point x="409" y="311"/>
    </contour>
  </outline>
</glyph>
<glyph name="viramaknda" format="2">
  <advance width="338"/>
  <unicode hex="0CCD"/>
  <outline>
    <contour>
      <point x="167" y="235" type="curve" smooth="yes"/>
      <point x="259" y="235"/>
      <point x="325" y="287"/>
      <point x="325" y="400" type="curve" smooth="yes"/>
      <point x="325" y="462"/>
      <point x="296" y="511"/>
      <point x="250" y="539" type="curve" smooth="yes"/>
      <point x="214" y="561"/>
      <point x="172" y="574"/>
      <point x="92" y="574" type="curve" smooth="yes"/>
      <point x="-199" y="574" type="line"/>
      <point x="-199" y="423" type="line"/>
      <point x="124" y="423" type="line" smooth="yes"/>
      <point x="148" y="423"/>
      <point x="161" y="419"/>
      <point x="172" y="411" type="curve" smooth="yes"/>
      <point x="182" y="403"/>
      <point x="188" y="392"/>
      <point x="188" y="375" type="curve" smooth="yes"/>
      <point x="188" y="355"/>
      <point x="179" y="347"/>
      <point x="166" y="347" type="curve" smooth="yes"/>
      <point x="140" y="347"/>
      <point x="131" y="372"/>
      <point x="131" y="411" type="curve" smooth="yes"/>
      <point x="131" y="473" type="line" smooth="yes"/>
      <point x="131" y="565"/>
      <point x="161" y="614"/>
      <point x="223" y="614" type="curve" smooth="yes"/>
      <point x="256" y="614"/>
      <point x="280" y="606"/>
      <point x="299" y="596" type="curve"/>
      <point x="355" y="705" type="line"/>
      <point x="322" y="722"/>
      <point x="283" y="735"/>
      <point x="221" y="735" type="curve" smooth="yes"/>
      <point x="90" y="735"/>
      <point x="-9" y="650"/>
      <point x="-9" y="491" type="curve" smooth="yes"/>
      <point x="-9" y="443" type="line" smooth="yes"/>
      <point x="-9" y="300"/>
      <point x="62" y="235"/>
    </contour>
  </outline>
</glyph>
<glyph name="lengthmarkknda" format="2">
  <advance width="438"/>
  <unicode hex="0CD5"/>
  <outline>
    <contour>
      <point x="417" y="414" type="curve" smooth="yes"/>
      <point x="417" y="508"/>
      <point x="362" y="586"/>
      <point x="241" y="586" type="curve" smooth="yes"/>
      <point x="114" y="586"/>
      <point x="26" y="488"/>
      <point x="26" y="331" type="curve" smooth="yes"/>
      <point x="26" y="173"/>
      <point x="100" y="62"/>
      <point x="183" y="-12" type="curve"/>
      <point x="303" y="99" type="line"/>
      <point x="249" y="146"/>
      <point x="184" y="211"/>
      <point x="184" y="318" type="curve" smooth="yes"/>
      <point x="184" y="349" type="line" smooth="yes"/>
      <point x="184" y="414"/>
      <point x="205" y="461"/>
      <point x="236" y="461" type="curve" smooth="yes"/>
      <point x="252" y="461"/>
      <point x="263" y="448"/>
      <point x="263" y="418" type="curve" smooth="yes"/>
      <point x="263" y="381"/>
      <point x="246" y="368"/>
      <point x="219" y="368" type="curve" smooth="yes"/>
      <point x="190" y="368"/>
      <point x="165" y="384"/>
      <point x="141" y="414" type="curve"/>
      <point x="101" y="306" type="line"/>
      <point x="136" y="271"/>
      <point x="190" y="245"/>
      <point x="249" y="245" type="curve" smooth="yes"/>
      <point x="354" y="245"/>
      <point x="417" y="298"/>
    </contour>
  </outline>
</glyph>
<glyph name="ailengthmarkknda" format="2">
  <advance width="169"/>
  <unicode hex="0CD6"/>
  <outline>
    <contour>
      <point x="-56" y="-422" type="curve" smooth="yes"/>
      <point x="82" y="-422"/>
      <point x="161" y="-336"/>
      <point x="161" y="-191" type="curve" smooth="yes"/>
      <point x="161" y="-105"/>
      <point x="137" y="-57"/>
      <point x="105" y="-15" type="curve"/>
      <point x="106" y="-61" type="line"/>
      <point x="137" y="-29"/>
      <point x="158" y="4"/>
      <point x="158" y="58" type="curve" smooth="yes"/>
      <point x="158" y="119"/>
      <point x="134" y="162"/>
      <point x="85" y="214" type="curve"/>
      <point x="3" y="143" type="line"/>
      <point x="33" y="115"/>
      <point x="51" y="84"/>
      <point x="51" y="49" type="curve" smooth="yes"/>
      <point x="51" y="19"/>
      <point x="39" y="-5"/>
      <point x="4" y="-38" type="curve"/>
      <point x="37" y="-79"/>
      <point x="59" y="-128"/>
      <point x="59" y="-189" type="curve" smooth="yes"/>
      <point x="59" y="-285"/>
      <point x="-4" y="-321"/>
      <point x="-60" y="-321" type="curve" smooth="yes"/>
      <point x="-126" y="-321"/>
      <point x="-156" y="-293"/>
      <point x="-156" y="-228" type="curve" smooth="yes"/>
      <point x="-156" y="-217" type="line" smooth="yes"/>
      <point x="-156" y="-160"/>
      <point x="-137" y="-137"/>
      <point x="-113" y="-137" type="curve" smooth="yes"/>
      <point x="-99" y="-137"/>
      <point x="-90" y="-149"/>
      <point x="-90" y="-167" type="curve" smooth="yes"/>
      <point x="-90" y="-194"/>
      <point x="-106" y="-201"/>
      <point x="-127" y="-201" type="curve" smooth="yes"/>
      <point x="-145" y="-201"/>
      <point x="-160" y="-194"/>
      <point x="-172" y="-184" type="curve"/>
      <point x="-187" y="-259" type="line"/>
      <point x="-165" y="-276"/>
      <point x="-139" y="-285"/>
      <point x="-106" y="-285" type="curve" smooth="yes"/>
      <point x="-44" y="-285"/>
      <point x="6" y="-252"/>
      <point x="6" y="-168" type="curve" smooth="yes"/>
      <point x="6" y="-113"/>
      <point x="-21" y="-48"/>
      <point x="-108" y="-48" type="curve" smooth="yes"/>
      <point x="-186" y="-48"/>
      <point x="-249" y="-113"/>
      <point x="-249" y="-221" type="curve" smooth="yes"/>
      <point x="-249" y="-349"/>
      <point x="-179" y="-422"/>
    </contour>
  </outline>
</glyph>
<glyph name="faknda" format="2">
  <advance width="845"/>
  <unicode hex="0CDE"/>
  <outline>
    <contour>
      <point x="266" y="-12" type="curve" smooth="yes"/>
      <point x="371" y="-12"/>
      <point x="407" y="31"/>
      <point x="465" y="118" type="curve"/>
      <point x="379" y="118" type="line"/>
      <point x="437" y="31"/>
      <point x="473" y="-12"/>
      <point x="578" y="-12" type="curve" smooth="yes"/>
      <point x="722" y="-12"/>
      <point x="813" y="95"/>
      <point x="813" y="280" type="curve" smooth="yes"/>
      <point x="813" y="484"/>
      <point x="723" y="586"/>
      <point x="594" y="586" type="curve" smooth="yes"/>
      <point x="485" y="586"/>
      <point x="433" y="515"/>
      <point x="433" y="415" type="curve" smooth="yes"/>
      <point x="433" y="306"/>
      <point x="486" y="245"/>
      <point x="590" y="245" type="curve" smooth="yes"/>
      <point x="636" y="245"/>
      <point x="691" y="264"/>
      <point x="734" y="297" type="curve"/>
      <point x="693" y="414" type="line"/>
      <point x="672" y="389"/>
      <point x="645" y="368"/>
      <point x="615" y="368" type="curve" smooth="yes"/>
      <point x="585" y="368"/>
      <point x="568" y="384"/>
      <point x="568" y="418" type="curve" smooth="yes"/>
      <point x="568" y="446"/>
      <point x="579" y="461"/>
      <point x="598" y="461" type="curve" smooth="yes"/>
      <point x="628" y="461"/>
      <point x="654" y="423"/>
      <point x="654" y="276" type="curve" smooth="yes"/>
      <point x="654" y="189"/>
      <point x="629" y="145"/>
      <point x="572" y="145" type="curve" smooth="yes"/>
      <point x="521" y="145"/>
      <point x="497" y="172"/>
      <point x="488" y="227" type="curve"/>
      <point x="356" y="227" type="line"/>
      <point x="347" y="172"/>
      <point x="323" y="145"/>
      <point x="271" y="145" type="curve" smooth="yes"/>
      <point x="217" y="145"/>
      <point x="191" y="189"/>
      <point x="191" y="275" type="curve" smooth="yes"/>
      <point x="191" y="423"/>
      <point x="217" y="461"/>
      <point x="247" y="461" type="curve" smooth="yes"/>
      <point x="266" y="461"/>
      <point x="277" y="448"/>
      <point x="277" y="418" type="curve" smooth="yes"/>
      <point x="277" y="384"/>
      <point x="260" y="368"/>
      <point x="231" y="368" type="curve" smooth="yes"/>
      <point x="199" y="368"/>
      <point x="173" y="389"/>
      <point x="152" y="414" type="curve"/>
      <point x="111" y="297" type="line"/>
      <point x="154" y="264"/>
      <point x="209" y="245"/>
      <point x="255" y="245" type="curve" smooth="yes"/>
      <point x="360" y="245"/>
      <point x="412" y="306"/>
      <point x="412" y="415" type="curve" smooth="yes"/>
      <point x="412" y="516"/>
      <point x="360" y="586"/>
      <point x="254" y="586" type="curve" smooth="yes"/>
      <point x="122" y="586"/>
      <point x="32" y="483"/>
      <point x="32" y="280" type="curve" smooth="yes"/>
      <point x="32" y="95"/>
      <point x="123" y="-12"/>
    </contour>
  </outline>
</glyph>
